SplineFontDB: 1.0
FontName: Vytis-Bold
FullName: Vytis Bold
FamilyName: Vytis
Weight: Bold
Copyright: Copyleft Atviras kodas Lietuvai (AKL), 2005
Version: 1.002 2005
ItalicAngle: 0
UnderlinePosition: -223
UnderlineWidth: 195
Ascent: 1638
Descent: 410
Order2: 1
XUID: [1021 703 207864929 1682046]
FSType: 0
PfmFamily: 17
TTFWeight: 700
TTFWidth: 5
Panose: 2 2 8 3 7 5 5 2 3 4
LineGap: 87
VLineGap: 0
OS2TypoAscent: 1387
OS2TypoDescent: -442
OS2TypoLinegap: 0
OS2WinAscent: -276
OS2WinAOffset: 1
OS2WinDescent: -185
OS2WinDOffset: 1
HheadAscent: -276
HheadAOffset: 1
HheadDescent: 185
HheadDOffset: 1
OS2SubXSize: 1434
OS2SubYSize: 1331
OS2SubXOff: 0
OS2SubYOff: 293
OS2SupXSize: 1434
OS2SupYSize: 1331
OS2SupXOff: 0
OS2SupYOff: 928
OS2StrikeYSize: 102
OS2StrikeYPos: 530
OS2FamilyClass: 261
OS2Vendor: 'euge'
ScriptLang: 4
 1 latn 1 dflt 
 1 cyrl 1 dflt 
 1 grek 1 dflt 
 1 DFLT 1 dflt 
TtfTable: prep 1168
\,]eb\,]GX5i1DV()It?eJ8r@H[HSJ5^O"U3I?,k?[-O7J9V1DdM<W=G'=]<*,TX1(E@70()Is+
DAF0%D?0`Q!C(HtDI78`CMnWB)K^*9'c^k$'GVT@AH=Js5\:(0BbV:%"D/?[,\@.sB%1GRB(T[<
'P7AABO>ESAS;bs+)!lP!cMbEA^=oihdu7f!^C7WBV/tQB[:>qAS?d;)B!T3H:&PnGs`Gm!Wp3R
"=p^["=k"g+0kr5Z3LUp&*b8%?g7`sl+cHaJ(k"'V[k;RV[k;SV[k;TV[k:CV^a5X\Gs@NWZWWK
\Gs@NWXB@u\Gs@Nm2$j)\Gs?00U`jt3C'#A%QTr9""Tt6!\9h+""TS"""TP!""TLu!%WSa!Des]
5F&F;^Qm-1"M"KI5RcWY$p!>+$7hF/'-F^dl*lHN.mWG/%QV'!^pEeW,!!15^pEeO(cf,+^d'9_
$kG?/og&3>o`N?'%3N^5!%VHu!U5:>/*;Nf/*2He/&/I;Zi[c;^d&sG)&bM#Ym1OpYC-R)c9a3.
W'W0]:oId#!mSpm/%GVp5RP^Q*'$:.!KW6A\Gs?0*/u6l3K8t".uB,i.uK8j.uT>h.u]/b.tE3R
/%GVp[t5VD3KQQU+h7QfZ]H4N3Oo+)[u_@D3KS^l/%GVp5XM+K#s!O/!<Aeo@%dUPIgR]TIfq9M
Ifq9OK``jnK``j"UB<%*K``i]K`EWYKa'%mL-7^\L4oj_KS'IZK7sO\\Gs?0Z\:G$3=gfcKeJ.`
K`i>R'c8hD'f?^=1_gNW'aui4#r*/!0GO[C'`]j$-799O-P%[W%P0+@+sRRC,7bh;%Nli(%hK<]
#mq%K"pYDB!sAc9!!*-0"p8BX5QD9(3C!QW'0-$p#qO@)!=o\A%g*=Q57_*3":5SL*s2QL)Z^rg
(^Crg'bD/j&d/mX/3GCE-p/h=,Wm85+?U]-)a"s"'g**k%m1.\#!;uM!'F(6!O*20!)$9XYS.%1
!)$6WYVRe&\-!jOYVI_%YQn!/=Kql-N`iSB/$K)2\,cS/YQTcl!WZ3(&joi,=L\ALYlOlcKc@Q&

StartChar: .notdef
Encoding: 65536 -1 0
Width: 1593
Flags: W
Fore
284 0 m 1,0,-1
 284 1536 l 1,1,-1
 1337 1536 l 1,2,-1
 1337 0 l 1,3,-1
 284 0 l 1,0,-1
412 128 m 1,4,-1
 1209 128 l 1,5,-1
 1209 1408 l 1,6,-1
 412 1408 l 1,7,-1
 412 128 l 1,4,-1
EndSplineSet
EndChar
StartChar: exclam
Encoding: 33 33 4
Width: 682
Flags: W
Fore
307 440 m 1,0,1
 307 609 307 609 226 929 c 0,2,3
 172 1142 172 1142 172 1217 c 0,4,5
 172 1292 172 1292 219 1339 c 128,-1,6
 266 1386 266 1386 340 1386 c 0,7,8
 414 1386 414 1386 461 1338.5 c 128,-1,9
 508 1291 508 1291 508 1217 c 0,10,11
 508 1143 508 1143 455 937 c 0,12,13
 402 732 402 732 387.5 627 c 128,-1,14
 373 522 373 522 373 440 c 1,15,-1
 307 440 l 1,0,1
340 301 m 0,16,17
 409 301 409 301 457.5 252.5 c 128,-1,18
 506 204 506 204 506 135 c 0,19,20
 506 66 506 66 457.5 17.5 c 128,-1,21
 409 -31 409 -31 340 -31 c 0,22,23
 271 -31 271 -31 222.5 17.5 c 128,-1,24
 174 66 174 66 174 135 c 0,25,26
 174 204 174 204 222.5 252.5 c 128,-1,27
 271 301 271 301 340 301 c 0,16,17
EndSplineSet
EndChar
StartChar: quotedbl
Encoding: 34 34 5
Width: 1137
Flags: W
Fore
778 721 m 1,0,1
 664 1147 664 1147 664 1239 c 0,2,3
 664 1302 664 1302 706.5 1344 c 128,-1,4
 749 1386 749 1386 811 1386 c 0,5,6
 873 1386 873 1386 915.5 1343.5 c 128,-1,7
 958 1301 958 1301 958 1239 c 0,8,9
 958 1147 958 1147 844 721 c 1,10,-1
 778 721 l 1,0,1
293 721 m 1,11,12
 178 1147 178 1147 178 1239 c 0,13,14
 178 1302 178 1302 221 1344 c 128,-1,15
 264 1386 264 1386 326 1386 c 0,16,17
 387 1386 387 1386 430 1343.5 c 128,-1,18
 473 1301 473 1301 473 1239 c 0,19,20
 473 1147 473 1147 358 721 c 1,21,-1
 293 721 l 1,11,12
EndSplineSet
EndChar
StartChar: numbersign
Encoding: 35 35 6
Width: 1024
Flags: W
Fore
983 397 m 1,0,-1
 733 397 l 1,1,-1
 647 -29 l 1,2,-1
 516 -29 l 1,3,-1
 602 397 l 1,4,-1
 309 397 l 1,5,-1
 223 -29 l 1,6,-1
 92 -29 l 1,7,-1
 178 397 l 1,8,-1
 41 397 l 1,9,-1
 41 528 l 1,10,-1
 205 528 l 1,11,-1
 264 821 l 1,12,-1
 41 821 l 1,13,-1
 41 952 l 1,14,-1
 289 952 l 1,15,-1
 377 1384 l 1,16,-1
 508 1384 l 1,17,-1
 420 952 l 1,18,-1
 713 952 l 1,19,-1
 801 1384 l 1,20,-1
 932 1384 l 1,21,-1
 844 952 l 1,22,-1
 983 952 l 1,23,-1
 983 821 l 1,24,-1
 819 821 l 1,25,-1
 760 528 l 1,26,-1
 983 528 l 1,27,-1
 983 397 l 1,0,-1
688 821 m 1,28,-1
 395 821 l 1,29,-1
 336 528 l 1,30,-1
 629 528 l 1,31,-1
 688 821 l 1,28,-1
EndSplineSet
EndChar
StartChar: dollar
Encoding: 36 36 7
Width: 1024
Flags: W
Fore
551 846 m 1,0,1
 776 729 776 729 858 619.5 c 128,-1,2
 940 510 940 510 940 371 c 0,3,4
 940 211 940 211 833 97 c 128,-1,5
 726 -17 726 -17 551 -29 c 1,6,-1
 551 -156 l 1,7,-1
 465 -156 l 1,8,-1
 465 -29 l 1,9,10
 399 -24 399 -24 298 3 c 0,11,12
 232 20 232 20 207 20 c 0,13,14
 171 20 171 20 166 -31 c 1,15,-1
 98 -31 l 1,16,-1
 98 399 l 1,17,-1
 166 399 l 1,18,19
 207 89 207 89 465 66 c 1,20,-1
 465 551 l 1,21,22
 253 664 253 664 176.5 772.5 c 128,-1,23
 100 881 100 881 100 1024 c 0,24,25
 100 1174 100 1174 199.5 1275 c 128,-1,26
 299 1376 299 1376 465 1386 c 1,27,-1
 465 1470 l 1,28,-1
 551 1470 l 1,29,-1
 551 1384 l 1,30,31
 601 1379 601 1379 681 1360 c 0,32,33
 739 1346 739 1346 760 1346 c 0,34,35
 797 1346 797 1346 805 1386 c 1,36,-1
 872 1386 l 1,37,-1
 872 983 l 1,38,-1
 805 983 l 1,39,40
 756 1263 756 1263 551 1288 c 1,41,-1
 551 846 l 1,0,1
465 897 m 1,42,-1
 465 1290 l 1,43,44
 391 1281 391 1281 349 1233 c 128,-1,45
 307 1185 307 1185 307 1112 c 0,46,47
 307 995 307 995 465 897 c 1,42,-1
551 68 m 1,48,49
 715 93 715 93 715 268 c 0,50,51
 715 402 715 402 551 500 c 1,52,-1
 551 68 l 1,48,49
EndSplineSet
EndChar
StartChar: percent
Encoding: 37 37 8
Width: 2048
Flags: W
Fore
1565 1386 m 1,0,-1
 623 -31 l 1,1,-1
 487 -31 l 1,2,-1
 1430 1386 l 1,3,-1
 1565 1386 l 1,0,-1
479 1384 m 0,4,5
 625 1384 625 1384 720 1276.5 c 128,-1,6
 815 1169 815 1169 815 1018 c 0,7,8
 815 866 815 866 720 758.5 c 128,-1,9
 625 651 625 651 479 651 c 0,10,11
 333 651 333 651 238 758.5 c 128,-1,12
 143 866 143 866 143 1018 c 0,13,14
 143 1169 143 1169 238 1276.5 c 128,-1,15
 333 1384 333 1384 479 1384 c 0,4,5
479 709 m 0,16,17
 521 709 521 709 543 775.5 c 128,-1,18
 565 842 565 842 565 1018 c 0,19,20
 565 1193 565 1193 543 1260 c 128,-1,21
 521 1327 521 1327 479 1327 c 0,22,23
 437 1327 437 1327 415 1260 c 128,-1,24
 393 1193 393 1193 393 1018 c 0,25,26
 393 842 393 842 415 775.5 c 128,-1,27
 437 709 437 709 479 709 c 0,16,17
1569 705 m 0,28,29
 1715 705 1715 705 1810 597.5 c 128,-1,30
 1905 490 1905 490 1905 338 c 0,31,32
 1905 186 1905 186 1810 78.5 c 128,-1,33
 1715 -29 1715 -29 1569 -29 c 0,34,35
 1423 -29 1423 -29 1328 78.5 c 128,-1,36
 1233 186 1233 186 1233 338 c 0,37,38
 1233 490 1233 490 1328 597.5 c 128,-1,39
 1423 705 1423 705 1569 705 c 0,28,29
1569 29 m 0,40,41
 1611 29 1611 29 1633 96 c 128,-1,42
 1655 163 1655 163 1655 338 c 0,43,44
 1655 513 1655 513 1633 580 c 128,-1,45
 1611 647 1611 647 1569 647 c 0,46,47
 1527 647 1527 647 1505 580 c 128,-1,48
 1483 513 1483 513 1483 338 c 0,49,50
 1483 163 1483 163 1505 96 c 128,-1,51
 1527 29 1527 29 1569 29 c 0,40,41
EndSplineSet
EndChar
StartChar: ampersand
Encoding: 38 38 9
Width: 1706
Flags: W
Fore
1667 47 m 1,0,1
 1610 16 1610 16 1504 -4.5 c 128,-1,2
 1398 -25 1398 -25 1317 -25 c 0,3,4
 1188 -25 1188 -25 1106 10.5 c 128,-1,5
 1024 46 1024 46 920 164 c 1,6,7
 709 -31 709 -31 492 -31 c 0,8,9
 296 -31 296 -31 184 63 c 128,-1,10
 72 157 72 157 72 313 c 0,11,12
 72 592 72 592 475 750 c 1,13,14
 365 923 365 923 365 1081 c 0,15,16
 365 1222 365 1222 471 1304 c 128,-1,17
 577 1386 577 1386 752 1386 c 0,18,19
 906 1386 906 1386 987.5 1312.5 c 128,-1,20
 1069 1239 1069 1239 1069 1118 c 0,21,22
 1069 1007 1069 1007 1001 926.5 c 128,-1,23
 933 846 933 846 768 770 c 1,24,25
 924 547 924 547 1044 416 c 1,26,27
 1198 568 1198 568 1198 643 c 0,28,29
 1198 679 1198 679 1166 702 c 128,-1,30
 1134 725 1134 725 1090 725 c 1,31,-1
 1090 793 l 1,32,-1
 1595 793 l 1,33,-1
 1595 725 l 1,34,35
 1523 725 1523 725 1474 697.5 c 128,-1,36
 1425 670 1425 670 1324 563 c 2,37,-1
 1112 340 l 1,38,39
 1217 219 1217 219 1323.5 154.5 c 128,-1,40
 1430 90 1430 90 1520 90 c 0,41,42
 1594 90 1594 90 1667 109 c 1,43,-1
 1667 47 l 1,0,1
713 852 m 1,44,45
 829 904 829 904 883.5 963.5 c 128,-1,46
 938 1023 938 1023 938 1118 c 0,47,48
 938 1194 938 1194 891 1243 c 128,-1,49
 844 1292 844 1292 774 1292 c 0,50,51
 703 1292 703 1292 654.5 1245.5 c 128,-1,52
 606 1199 606 1199 606 1128 c 0,53,54
 606 1011 606 1011 713 852 c 1,44,45
850 238 m 1,55,56
 727 375 727 375 532 657 c 1,57,58
 381 563 381 563 381 385 c 0,59,60
 381 279 381 279 443 206 c 128,-1,61
 505 133 505 133 600 133 c 0,62,63
 723 133 723 133 850 238 c 1,55,56
EndSplineSet
EndChar
StartChar: quotesingle
Encoding: 39 39 10
Width: 569
Flags: W
Fore
252 721 m 1,0,1
 137 1147 137 1147 137 1239 c 0,2,3
 137 1301 137 1301 180 1343.5 c 128,-1,4
 223 1386 223 1386 285 1386 c 0,5,6
 346 1386 346 1386 389 1343.5 c 128,-1,7
 432 1301 432 1301 432 1239 c 0,8,9
 432 1147 432 1147 317 721 c 1,10,-1
 252 721 l 1,0,1
EndSplineSet
EndChar
StartChar: parenleft
Encoding: 40 40 11
Width: 682
Flags: W
Fore
657 -442 m 1,0,1
 391 -349 391 -349 236.5 -80.5 c 128,-1,2
 82 188 82 188 82 489 c 0,3,4
 82 791 82 791 236.5 1059.5 c 128,-1,5
 391 1328 391 1328 657 1421 c 1,6,-1
 657 1354 l 1,7,8
 515 1269 515 1269 443 1039.5 c 128,-1,9
 371 810 371 810 371 489 c 0,10,11
 371 278 371 278 403.5 100 c 128,-1,12
 436 -78 436 -78 499.5 -198.5 c 128,-1,13
 563 -319 563 -319 657 -375 c 1,14,-1
 657 -442 l 1,0,1
EndSplineSet
EndChar
StartChar: parenright
Encoding: 41 41 12
Width: 682
Flags: W
Fore
25 1421 m 1,0,1
 291 1328 291 1328 445.5 1059.5 c 128,-1,2
 600 791 600 791 600 489 c 0,3,4
 600 188 600 188 445.5 -80.5 c 128,-1,5
 291 -349 291 -349 25 -442 c 1,6,-1
 25 -375 l 1,7,8
 167 -290 167 -290 239 -60.5 c 128,-1,9
 311 169 311 169 311 489 c 0,10,11
 311 810 311 810 239 1039.5 c 128,-1,12
 167 1269 167 1269 25 1354 c 1,13,-1
 25 1421 l 1,0,1
EndSplineSet
EndChar
StartChar: asterisk
Encoding: 42 42 13
Width: 1024
Flags: W
Fore
543 1014 m 1,0,1
 590 1032 590 1032 661 1098 c 0,2,3
 716 1149 716 1149 745 1161.5 c 128,-1,4
 774 1174 774 1174 801 1174 c 0,5,6
 850 1174 850 1174 881.5 1143.5 c 128,-1,7
 913 1113 913 1113 913 1067 c 0,8,9
 913 1015 913 1015 875.5 982.5 c 128,-1,10
 838 950 838 950 772 950 c 0,11,12
 752 950 752 950 708 956 c 0,13,14
 657 963 657 963 631 963 c 0,15,16
 593 963 593 963 563 954 c 1,17,18
 592 918 592 918 680 868 c 0,19,20
 750 831 750 831 775.5 798.5 c 128,-1,21
 801 766 801 766 801 723 c 0,22,23
 801 677 801 677 769 645.5 c 128,-1,24
 737 614 737 614 688 614 c 0,25,26
 585 614 585 614 559 772 c 0,27,28
 547 860 547 860 512 918 c 1,29,30
 477 860 477 860 465 772 c 0,31,32
 439 614 439 614 336 614 c 0,33,34
 287 614 287 614 255 645.5 c 128,-1,35
 223 677 223 677 223 723 c 0,36,37
 223 766 223 766 248.5 798.5 c 128,-1,38
 274 831 274 831 344 868 c 0,39,40
 432 918 432 918 461 954 c 1,41,42
 431 963 431 963 393 963 c 0,43,44
 367 963 367 963 316 956 c 0,45,46
 272 950 272 950 252 950 c 0,47,48
 186 950 186 950 148.5 982.5 c 128,-1,49
 111 1015 111 1015 111 1067 c 0,50,51
 111 1112 111 1112 142 1143 c 128,-1,52
 173 1174 173 1174 223 1174 c 0,53,54
 250 1174 250 1174 279 1161.5 c 128,-1,55
 308 1149 308 1149 363 1098 c 0,56,57
 434 1032 434 1032 481 1014 c 1,58,59
 477 1067 477 1067 437 1153 c 0,60,61
 401 1228 401 1228 401 1270 c 0,62,63
 401 1320 401 1320 433.5 1353 c 128,-1,64
 466 1386 466 1386 512 1386 c 0,65,66
 558 1386 558 1386 590.5 1353 c 128,-1,67
 623 1320 623 1320 623 1270 c 0,68,69
 623 1228 623 1228 587 1153 c 0,70,71
 547 1067 547 1067 543 1014 c 1,0,1
EndSplineSet
EndChar
StartChar: plus
Encoding: 43 43 14
Width: 1167
Flags: W
Fore
1130 612 m 1,0,-1
 649 612 l 1,1,-1
 649 131 l 1,2,-1
 518 131 l 1,3,-1
 518 612 l 1,4,-1
 37 612 l 1,5,-1
 37 743 l 1,6,-1
 518 743 l 1,7,-1
 518 1225 l 1,8,-1
 649 1225 l 1,9,-1
 649 743 l 1,10,-1
 1130 743 l 1,11,-1
 1130 612 l 1,0,-1
EndSplineSet
EndChar
StartChar: comma
Encoding: 44 44 15
Width: 512
Flags: W
Fore
111 -295 m 1,0,1
 192 -270 192 -270 243.5 -209.5 c 128,-1,2
 295 -149 295 -149 295 -88 c 0,3,4
 295 -18 295 -18 199 0 c 0,5,6
 145 11 145 11 107.5 52 c 128,-1,7
 70 93 70 93 70 150 c 0,8,9
 70 212 70 212 116 256.5 c 128,-1,10
 162 301 162 301 229 301 c 0,11,12
 326 301 326 301 382 218.5 c 128,-1,13
 438 136 438 136 438 18 c 0,14,15
 438 -109 438 -109 351.5 -214 c 128,-1,16
 265 -319 265 -319 111 -362 c 1,17,-1
 111 -295 l 1,0,1
EndSplineSet
EndChar
StartChar: hyphen
Encoding: 45 45 16
Width: 682
Flags: W
Fore
633 367 m 1,0,-1
 49 367 l 1,1,-1
 49 573 l 1,2,-1
 633 573 l 1,3,-1
 633 367 l 1,0,-1
EndSplineSet
EndChar
StartChar: period
Encoding: 46 46 17
Width: 512
Flags: W
Fore
256 301 m 0,0,1
 325 301 325 301 373.5 252.5 c 128,-1,2
 422 204 422 204 422 135 c 0,3,4
 422 66 422 66 373.5 17.5 c 128,-1,5
 325 -31 325 -31 256 -31 c 0,6,7
 187 -31 187 -31 138.5 17.5 c 128,-1,8
 90 66 90 66 90 135 c 0,9,10
 90 204 90 204 138.5 252.5 c 128,-1,11
 187 301 187 301 256 301 c 0,0,1
EndSplineSet
EndChar
StartChar: slash
Encoding: 47 47 18
Width: 569
Flags: W
Fore
575 1421 m 1,0,-1
 137 -31 l 1,1,-1
 -6 -31 l 1,2,-1
 432 1421 l 1,3,-1
 575 1421 l 1,0,-1
EndSplineSet
EndChar
StartChar: zero
Encoding: 48 48 19
Width: 1024
Flags: W
Fore
512 1384 m 0,0,1
 709 1384 709 1384 829.5 1197.5 c 128,-1,2
 950 1011 950 1011 950 678 c 0,3,4
 950 344 950 344 829.5 157.5 c 128,-1,5
 709 -29 709 -29 512 -29 c 0,6,7
 315 -29 315 -29 194.5 157.5 c 128,-1,8
 74 344 74 344 74 678 c 0,9,10
 74 1019 74 1019 196.5 1201.5 c 128,-1,11
 319 1384 319 1384 512 1384 c 0,0,1
512 61 m 0,12,13
 585 61 585 61 616 179.5 c 128,-1,14
 647 298 647 298 647 678 c 0,15,16
 647 1007 647 1007 621.5 1150.5 c 128,-1,17
 596 1294 596 1294 512 1294 c 0,18,19
 439 1294 439 1294 408 1176 c 128,-1,20
 377 1058 377 1058 377 678 c 0,21,22
 377 298 377 298 408 179.5 c 128,-1,23
 439 61 439 61 512 61 c 0,12,13
EndSplineSet
EndChar
StartChar: one
Encoding: 49 49 20
Width: 1024
Flags: W
Fore
893 0 m 1,0,-1
 156 0 l 1,1,-1
 156 68 l 1,2,3
 278 68 278 68 325 75.5 c 128,-1,4
 372 83 372 83 385.5 108.5 c 128,-1,5
 399 134 399 134 399 201 c 2,6,-1
 399 1104 l 2,7,8
 399 1161 399 1161 378 1180.5 c 128,-1,9
 357 1200 357 1200 287 1200 c 2,10,-1
 145 1200 l 1,11,-1
 145 1270 l 1,12,13
 259 1270 259 1270 344.5 1293.5 c 128,-1,14
 430 1317 430 1317 526 1384 c 1,15,-1
 674 1384 l 1,16,-1
 674 201 l 2,17,18
 674 107 674 107 707 87.5 c 128,-1,19
 740 68 740 68 893 68 c 1,20,-1
 893 0 l 1,0,-1
EndSplineSet
KernsSLIFO: 20 -113 0 0
EndChar
StartChar: two
Encoding: 50 50 21
Width: 1024
Flags: W
Fore
928 0 m 1,0,-1
 49 0 l 1,1,-1
 49 135 l 1,2,3
 410 482 410 482 518.5 642.5 c 128,-1,4
 627 803 627 803 627 963 c 0,5,6
 627 1071 627 1071 570 1134.5 c 128,-1,7
 513 1198 513 1198 424 1198 c 0,8,9
 230 1198 230 1198 123 981 c 1,10,-1
 59 997 l 1,11,12
 187 1386 187 1386 512 1386 c 0,13,14
 689 1386 689 1386 798 1278.5 c 128,-1,15
 907 1171 907 1171 907 995 c 0,16,17
 907 863 907 863 821 742.5 c 128,-1,18
 735 622 735 622 572 485 c 2,19,-1
 244 209 l 1,20,-1
 715 209 l 2,21,22
 813 209 813 209 837.5 245 c 128,-1,23
 862 281 862 281 862 420 c 1,24,-1
 928 420 l 1,25,-1
 928 0 l 1,0,-1
EndSplineSet
EndChar
StartChar: three
Encoding: 51 51 22
Width: 1024
Flags: W
Fore
608 795 m 1,0,1
 756 780 756 780 847 689.5 c 128,-1,2
 938 599 938 599 938 467 c 0,3,4
 938 251 938 251 781.5 111 c 128,-1,5
 625 -29 625 -29 379 -29 c 0,6,7
 165 -29 165 -29 23 57 c 1,8,-1
 39 133 l 1,9,10
 182 70 182 70 322 70 c 0,11,12
 468 70 468 70 562.5 163 c 128,-1,13
 657 256 657 256 657 412 c 0,14,15
 657 537 657 537 580.5 617.5 c 128,-1,16
 504 698 504 698 391 698 c 0,17,18
 355 698 355 698 301 688 c 1,19,-1
 301 766 l 1,20,21
 445 799 445 799 515.5 864 c 128,-1,22
 586 929 586 929 586 1040 c 0,23,24
 586 1112 586 1112 533 1160 c 128,-1,25
 480 1208 480 1208 401 1208 c 0,26,27
 242 1208 242 1208 129 1063 c 1,28,-1
 74 1102 l 1,29,30
 224 1386 224 1386 483 1386 c 0,31,32
 636 1386 636 1386 732.5 1303 c 128,-1,33
 829 1220 829 1220 829 1092 c 0,34,35
 829 995 829 995 770.5 916 c 128,-1,36
 712 837 712 837 608 799 c 1,37,-1
 608 795 l 1,0,1
EndSplineSet
EndChar
StartChar: four
Encoding: 52 52 23
Width: 1024
Flags: W
Fore
985 334 m 1,0,-1
 778 334 l 1,1,-1
 778 201 l 2,2,3
 778 108 778 108 809 88 c 128,-1,4
 840 68 840 68 971 68 c 1,5,-1
 971 0 l 1,6,-1
 260 0 l 1,7,-1
 260 68 l 1,8,9
 382 68 382 68 429 75.5 c 128,-1,10
 476 83 476 83 490 108.5 c 128,-1,11
 504 134 504 134 504 201 c 2,12,-1
 504 334 l 1,13,-1
 45 334 l 1,14,-1
 45 504 l 1,15,-1
 567 1384 l 1,16,-1
 778 1384 l 1,17,-1
 778 518 l 1,18,-1
 985 518 l 1,19,-1
 985 334 l 1,0,-1
504 518 m 1,20,-1
 504 1096 l 1,21,-1
 162 518 l 1,22,-1
 504 518 l 1,20,-1
EndSplineSet
EndChar
StartChar: five
Encoding: 53 53 24
Width: 1024
Flags: W
Fore
246 811 m 1,0,1
 354 866 354 866 465 866 c 0,2,3
 670 866 670 866 796 752 c 128,-1,4
 922 638 922 638 922 453 c 0,5,6
 922 239 922 239 770 104 c 128,-1,7
 618 -31 618 -31 375 -31 c 0,8,9
 231 -31 231 -31 82 29 c 1,10,-1
 98 117 l 1,11,12
 229 68 229 68 342 68 c 0,13,14
 480 68 480 68 560.5 163 c 128,-1,15
 641 258 641 258 641 428 c 0,16,17
 641 571 641 571 574.5 657 c 128,-1,18
 508 743 508 743 414 743 c 0,19,20
 328 743 328 743 225 686 c 1,21,-1
 133 694 l 1,22,-1
 195 1356 l 1,23,-1
 862 1356 l 1,24,-1
 862 1147 l 1,25,-1
 274 1147 l 1,26,-1
 246 811 l 1,0,1
EndSplineSet
EndChar
StartChar: six
Encoding: 54 54 25
Width: 1024
Flags: W
Fore
369 809 m 1,0,1
 449 893 449 893 588 893 c 0,2,3
 755 893 755 893 862 768 c 128,-1,4
 969 643 969 643 969 453 c 0,5,6
 969 231 969 231 850 101 c 128,-1,7
 731 -29 731 -29 543 -29 c 0,8,9
 330 -29 330 -29 196.5 127.5 c 128,-1,10
 63 284 63 284 63 571 c 0,11,12
 63 930 63 930 280.5 1157 c 128,-1,13
 498 1384 498 1384 836 1384 c 1,14,-1
 836 1315 l 1,15,16
 414 1272 414 1272 369 809 c 1,0,1
360 666 m 1,17,-1
 358 567 l 2,18,19
 358 329 358 329 406.5 194 c 128,-1,20
 455 59 455 59 541 59 c 0,21,22
 674 59 674 59 674 430 c 0,23,24
 674 587 674 587 629.5 679.5 c 128,-1,25
 585 772 585 772 520 772 c 0,26,27
 423 772 423 772 360 666 c 1,17,-1
EndSplineSet
EndChar
StartChar: seven
Encoding: 55 55 26
Width: 1024
Flags: W
Fore
932 1272 m 1,0,-1
 471 0 l 1,1,-1
 260 0 l 1,2,-1
 750 1116 l 1,3,-1
 311 1116 l 2,4,5
 219 1116 219 1116 194.5 1070 c 128,-1,6
 170 1024 170 1024 170 897 c 1,7,-1
 100 897 l 1,8,-1
 100 1356 l 1,9,-1
 932 1356 l 1,10,-1
 932 1272 l 1,0,-1
EndSplineSet
EndChar
StartChar: eight
Encoding: 56 56 27
Width: 1024
Flags: W
Fore
713 772 m 1,0,1
 956 622 956 622 956 393 c 0,2,3
 956 206 956 206 828 89.5 c 128,-1,4
 700 -27 700 -27 487 -27 c 0,5,6
 292 -27 292 -27 177.5 72 c 128,-1,7
 63 171 63 171 63 330 c 0,8,9
 63 520 63 520 299 676 c 1,10,11
 94 804 94 804 94 1018 c 0,12,13
 94 1170 94 1170 222 1277 c 128,-1,14
 350 1384 350 1384 532 1384 c 0,15,16
 708 1384 708 1384 809.5 1295 c 128,-1,17
 911 1206 911 1206 911 1065 c 0,18,19
 911 901 911 901 713 772 c 1,0,1
586 840 m 1,20,21
 665 891 665 891 703 940.5 c 128,-1,22
 741 990 741 990 741 1059 c 0,23,24
 741 1157 741 1157 687.5 1222.5 c 128,-1,25
 634 1288 634 1288 543 1288 c 0,26,27
 459 1288 459 1288 401.5 1233 c 128,-1,28
 344 1178 344 1178 344 1096 c 0,29,30
 344 1009 344 1009 405 955 c 128,-1,31
 466 901 466 901 586 840 c 1,20,21
707 295 m 0,32,33
 707 413 707 413 637 475 c 128,-1,34
 567 537 567 537 430 606 c 1,35,36
 337 543 337 543 290.5 478.5 c 128,-1,37
 244 414 244 414 244 330 c 0,38,39
 244 208 244 208 312 139 c 128,-1,40
 380 70 380 70 483 70 c 0,41,42
 585 70 585 70 646 134 c 128,-1,43
 707 198 707 198 707 295 c 0,32,33
EndSplineSet
EndChar
StartChar: nine
Encoding: 57 57 28
Width: 1024
Flags: W
Fore
655 547 m 1,0,1
 575 463 575 463 436 463 c 0,2,3
 269 463 269 463 162 588 c 128,-1,4
 55 713 55 713 55 903 c 0,5,6
 55 1125 55 1125 173.5 1254.5 c 128,-1,7
 292 1384 292 1384 481 1384 c 0,8,9
 694 1384 694 1384 827.5 1228 c 128,-1,10
 961 1072 961 1072 961 784 c 0,11,12
 961 424 961 424 744 197.5 c 128,-1,13
 527 -29 527 -29 188 -29 c 1,14,-1
 188 41 l 1,15,16
 610 84 610 84 655 547 c 1,0,1
664 690 m 1,17,-1
 666 788 l 2,18,19
 666 1019 666 1019 619 1157.5 c 128,-1,20
 572 1296 572 1296 483 1296 c 0,21,22
 350 1296 350 1296 350 926 c 0,23,24
 350 768 350 768 394.5 676 c 128,-1,25
 439 584 439 584 504 584 c 0,26,27
 601 584 601 584 664 690 c 1,17,-1
EndSplineSet
EndChar
StartChar: colon
Encoding: 58 58 29
Width: 682
Flags: W
Fore
340 965 m 0,0,1
 409 965 409 965 457.5 916.5 c 128,-1,2
 506 868 506 868 506 799 c 0,3,4
 506 730 506 730 457.5 681.5 c 128,-1,5
 409 633 409 633 340 633 c 0,6,7
 271 633 271 633 222.5 681.5 c 128,-1,8
 174 730 174 730 174 799 c 0,9,10
 174 868 174 868 222.5 916.5 c 128,-1,11
 271 965 271 965 340 965 c 0,0,1
340 301 m 0,12,13
 409 301 409 301 457.5 252.5 c 128,-1,14
 506 204 506 204 506 135 c 0,15,16
 506 66 506 66 457.5 17.5 c 128,-1,17
 409 -31 409 -31 340 -31 c 0,18,19
 271 -31 271 -31 222.5 17.5 c 128,-1,20
 174 66 174 66 174 135 c 0,21,22
 174 204 174 204 222.5 252.5 c 128,-1,23
 271 301 271 301 340 301 c 0,12,13
EndSplineSet
EndChar
StartChar: semicolon
Encoding: 59 59 30
Width: 682
Flags: W
Fore
195 -295 m 1,0,1
 276 -270 276 -270 327.5 -209.5 c 128,-1,2
 379 -149 379 -149 379 -88 c 0,3,4
 379 -18 379 -18 283 0 c 0,5,6
 229 11 229 11 191.5 52 c 128,-1,7
 154 93 154 93 154 150 c 0,8,9
 154 213 154 213 200 257 c 128,-1,10
 246 301 246 301 313 301 c 0,11,12
 410 301 410 301 466 218.5 c 128,-1,13
 522 136 522 136 522 18 c 0,14,15
 522 -109 522 -109 435.5 -214 c 128,-1,16
 349 -319 349 -319 195 -362 c 1,17,-1
 195 -295 l 1,0,1
340 965 m 0,18,19
 409 965 409 965 457.5 916.5 c 128,-1,20
 506 868 506 868 506 799 c 0,21,22
 506 730 506 730 457.5 681.5 c 128,-1,23
 409 633 409 633 340 633 c 0,24,25
 271 633 271 633 222.5 681.5 c 128,-1,26
 174 730 174 730 174 799 c 0,27,28
 174 868 174 868 222.5 916.5 c 128,-1,29
 271 965 271 965 340 965 c 0,18,19
EndSplineSet
EndChar
StartChar: less
Encoding: 60 60 31
Width: 1167
Flags: W
Fore
1130 186 m 1,0,-1
 37 637 l 1,1,-1
 37 719 l 1,2,-1
 1130 1169 l 1,3,-1
 1130 1026 l 1,4,-1
 285 678 l 1,5,-1
 1130 330 l 1,6,-1
 1130 186 l 1,0,-1
EndSplineSet
EndChar
StartChar: equal
Encoding: 61 61 32
Width: 1167
Flags: W
Fore
1130 776 m 1,0,-1
 37 776 l 1,1,-1
 37 907 l 1,2,-1
 1130 907 l 1,3,-1
 1130 776 l 1,0,-1
1130 453 m 1,4,-1
 37 453 l 1,5,-1
 37 584 l 1,6,-1
 1130 584 l 1,7,-1
 1130 453 l 1,4,-1
EndSplineSet
EndChar
StartChar: greater
Encoding: 62 62 33
Width: 1167
Flags: W
Fore
1130 637 m 1,0,-1
 37 186 l 1,1,-1
 37 330 l 1,2,-1
 883 678 l 1,3,-1
 37 1026 l 1,4,-1
 37 1169 l 1,5,-1
 1130 719 l 1,6,-1
 1130 637 l 1,0,-1
EndSplineSet
EndChar
StartChar: question
Encoding: 63 63 34
Width: 1024
Flags: W
Fore
350 717 m 1,0,1
 536 766 536 766 614 827 c 128,-1,2
 692 888 692 888 692 985 c 0,3,4
 692 1094 692 1094 629 1161.5 c 128,-1,5
 566 1229 566 1229 455 1229 c 0,6,7
 394 1229 394 1229 320 1165 c 0,8,9
 253 1108 253 1108 205 1108 c 0,10,11
 159 1108 159 1108 127.5 1140.5 c 128,-1,12
 96 1173 96 1173 96 1225 c 0,13,14
 96 1296 96 1296 167.5 1341 c 128,-1,15
 239 1386 239 1386 358 1386 c 0,16,17
 478 1386 478 1386 615 1306 c 128,-1,18
 752 1226 752 1226 840 1103 c 128,-1,19
 928 980 928 980 928 866 c 0,20,21
 928 739 928 739 807 642.5 c 128,-1,22
 686 546 686 546 420 471 c 1,23,-1
 420 381 l 1,24,-1
 350 381 l 1,25,-1
 350 717 l 1,0,1
397 301 m 0,26,27
 466 301 466 301 514.5 252.5 c 128,-1,28
 563 204 563 204 563 135 c 0,29,30
 563 66 563 66 514.5 17.5 c 128,-1,31
 466 -31 466 -31 397 -31 c 0,32,33
 329 -31 329 -31 280 17.5 c 128,-1,34
 231 66 231 66 231 135 c 0,35,36
 231 204 231 204 280 252.5 c 128,-1,37
 329 301 329 301 397 301 c 0,26,27
EndSplineSet
EndChar
StartChar: at
Encoding: 64 64 35
Width: 1905
Flags: W
Fore
1669 -133 m 1,0,1
 1540 -280 1540 -280 1357 -359 c 128,-1,2
 1174 -438 1174 -438 977 -438 c 0,3,4
 598 -438 598 -438 346 -187 c 128,-1,5
 94 64 94 64 94 440 c 0,6,7
 94 701 94 701 218.5 920 c 128,-1,8
 343 1139 343 1139 562 1262.5 c 128,-1,9
 781 1386 781 1386 1044 1386 c 0,10,11
 1356 1386 1356 1386 1558.5 1193 c 128,-1,12
 1761 1000 1761 1000 1761 700 c 0,13,14
 1761 434 1761 434 1599.5 232.5 c 128,-1,15
 1438 31 1438 31 1192 31 c 0,16,17
 1093 31 1093 31 1038 80.5 c 128,-1,18
 983 130 983 130 983 215 c 0,19,20
 983 240 983 240 993 274 c 1,21,22
 926 163 926 163 833.5 97 c 128,-1,23
 741 31 741 31 666 31 c 0,24,25
 587 31 587 31 535 105 c 128,-1,26
 483 179 483 179 483 299 c 0,27,28
 483 552 483 552 652 758.5 c 128,-1,29
 821 965 821 965 1059 965 c 0,30,31
 1143 965 1143 965 1231 911 c 1,32,-1
 1364 932 l 1,33,-1
 1446 932 l 1,34,-1
 1261 308 l 2,35,36
 1233 212 1233 212 1233 180 c 0,37,38
 1233 133 1233 133 1274 133 c 0,39,40
 1434 133 1434 133 1567 306 c 128,-1,41
 1700 479 1700 479 1700 700 c 0,42,43
 1700 978 1700 978 1517.5 1152.5 c 128,-1,44
 1335 1327 1335 1327 1049 1327 c 0,45,46
 675 1327 675 1327 438 1064 c 128,-1,47
 201 801 201 801 201 414 c 0,48,49
 201 69 201 69 418.5 -154 c 128,-1,50
 636 -377 636 -377 977 -377 c 0,51,52
 1372 -377 1372 -377 1626 -94 c 1,53,-1
 1669 -133 l 1,0,1
1141 827 m 1,54,55
 1111 874 1111 874 1059 874 c 0,56,57
 963 874 963 874 866.5 679 c 128,-1,58
 770 484 770 484 770 303 c 0,59,60
 770 217 770 217 819 217 c 0,61,62
 863 217 863 217 933.5 301 c 128,-1,63
 1004 385 1004 385 1010 403 c 2,64,-1
 1141 827 l 1,54,55
EndSplineSet
EndChar
StartChar: A
Encoding: 65 65 36
Width: 1479
Flags: W
Fore
829 496 m 1,0,-1
 641 950 l 1,1,-1
 444 496 l 1,2,-1
 829 496 l 1,0,-1
1458 0 m 1,3,-1
 811 0 l 1,4,-1
 811 68 l 1,5,6
 887 70 887 70 918.5 91 c 128,-1,7
 950 112 950 112 950 160 c 0,8,9
 950 208 950 208 874 391 c 1,10,-1
 399 391 l 1,11,12
 311 187 311 187 311 147 c 0,13,14
 311 111 311 111 343.5 92 c 128,-1,15
 376 73 376 73 467 68 c 1,16,-1
 467 0 l 1,17,-1
 20 0 l 1,18,-1
 20 68 l 1,19,20
 85 72 85 72 130 109 c 128,-1,21
 175 146 175 146 231 274 c 2,22,-1
 719 1386 l 1,23,-1
 764 1386 l 1,24,-1
 1217 311 l 2,25,26
 1255 218 1255 218 1278.5 175.5 c 128,-1,27
 1302 133 1302 133 1345.5 101.5 c 128,-1,28
 1389 70 1389 70 1458 68 c 1,29,-1
 1458 0 l 1,3,-1
EndSplineSet
KernsSLIFO: 183 -152 0 0 92 -152 0 0 90 -152 0 0 89 -152 0 0 60 -188 0 0 58 -227 0 0 57 -264 0 0 55 -152 0 0 3 -113 0 0
EndChar
StartChar: B
Encoding: 66 66 37
Width: 1366
Flags: W
Fore
967 700 m 1,0,1
 1116 682 1116 682 1204 593.5 c 128,-1,2
 1292 505 1292 505 1292 377 c 0,3,4
 1292 213 1292 213 1161.5 106.5 c 128,-1,5
 1031 0 1031 0 770 0 c 2,6,-1
 47 0 l 1,7,-1
 47 68 l 1,8,9
 157 68 157 68 192.5 81 c 128,-1,10
 228 94 228 94 241 126 c 128,-1,11
 254 158 254 158 254 260 c 2,12,-1
 254 1096 l 2,13,14
 254 1189 254 1189 242 1226 c 128,-1,15
 230 1263 230 1263 189 1275.5 c 128,-1,16
 148 1288 148 1288 47 1288 c 1,17,-1
 47 1356 l 1,18,-1
 713 1356 l 2,19,20
 966 1356 966 1356 1096.5 1264 c 128,-1,21
 1227 1172 1227 1172 1227 1004 c 0,22,23
 1227 897 1227 897 1158.5 814.5 c 128,-1,24
 1090 732 1090 732 967 700 c 1,0,1
541 741 m 1,25,-1
 633 741 l 2,26,27
 772 741 772 741 851 813 c 128,-1,28
 930 885 930 885 930 999 c 0,29,30
 930 1128 930 1128 852 1198 c 128,-1,31
 774 1268 774 1268 647 1268 c 0,32,33
 592 1268 592 1268 541 1257 c 1,34,-1
 541 741 l 1,25,-1
541 117 m 1,35,36
 626 92 626 92 700 92 c 0,37,38
 829 92 829 92 902 159.5 c 128,-1,39
 975 227 975 227 975 354 c 0,40,41
 975 448 975 448 933 512.5 c 128,-1,42
 891 577 891 577 810.5 610 c 128,-1,43
 730 643 730 643 625 643 c 2,44,-1
 541 643 l 1,45,-1
 541 117 l 1,35,36
EndSplineSet
EndChar
StartChar: C
Encoding: 67 67 38
Width: 1479
Flags: W
Fore
811 -31 m 0,0,1
 486 -31 486 -31 289 163.5 c 128,-1,2
 92 358 92 358 92 678 c 0,3,4
 92 982 92 982 290.5 1184 c 128,-1,5
 489 1386 489 1386 813 1386 c 0,6,7
 938 1386 938 1386 1122 1345 c 0,8,9
 1181 1331 1181 1331 1194 1331 c 0,10,11
 1235 1331 1235 1331 1245 1386 c 1,12,-1
 1311 1386 l 1,13,-1
 1311 934 l 1,14,-1
 1249 934 l 1,15,16
 1209 1106 1209 1106 1096 1199 c 128,-1,17
 983 1292 983 1292 821 1292 c 0,18,19
 628 1292 628 1292 519 1118 c 128,-1,20
 410 944 410 944 410 678 c 0,21,22
 410 412 410 412 541 260.5 c 128,-1,23
 672 109 672 109 901 109 c 0,24,25
 1150 109 1150 109 1341 305 c 1,26,-1
 1384 244 l 1,27,28
 1154 -31 1154 -31 811 -31 c 0,0,1
EndSplineSet
EndChar
StartChar: D
Encoding: 68 68 39
Width: 1479
Flags: W
Fore
47 1356 m 1,0,-1
 698 1356 l 2,1,2
 1027 1356 1027 1356 1206.5 1176.5 c 128,-1,3
 1386 997 1386 997 1386 684 c 0,4,5
 1386 379 1386 379 1197.5 189.5 c 128,-1,6
 1009 0 1009 0 678 0 c 2,7,-1
 47 0 l 1,8,-1
 47 68 l 1,9,10
 157 68 157 68 192.5 81 c 128,-1,11
 228 94 228 94 241 126 c 128,-1,12
 254 158 254 158 254 260 c 2,13,-1
 254 1096 l 2,14,15
 254 1189 254 1189 242 1226 c 128,-1,16
 230 1263 230 1263 189 1275.5 c 128,-1,17
 148 1288 148 1288 47 1288 c 1,18,-1
 47 1356 l 1,0,-1
541 111 m 1,19,20
 596 92 596 92 653 92 c 0,21,22
 855 92 855 92 962 245.5 c 128,-1,23
 1069 399 1069 399 1069 678 c 0,24,25
 1069 964 1069 964 962.5 1117 c 128,-1,26
 856 1270 856 1270 651 1270 c 0,27,28
 605 1270 605 1270 541 1257 c 1,29,-1
 541 111 l 1,19,20
EndSplineSet
EndChar
StartChar: E
Encoding: 69 69 40
Width: 1366
Flags: W
Fore
1262 0 m 1,0,-1
 47 0 l 1,1,-1
 47 68 l 1,2,3
 157 68 157 68 192.5 81 c 128,-1,4
 228 94 228 94 241 126 c 128,-1,5
 254 158 254 158 254 260 c 2,6,-1
 254 1096 l 2,7,8
 254 1189 254 1189 242 1226 c 128,-1,9
 230 1263 230 1263 189 1275.5 c 128,-1,10
 148 1288 148 1288 47 1288 c 1,11,-1
 47 1356 l 1,12,-1
 1208 1356 l 1,13,-1
 1208 1020 l 1,14,-1
 1139 1020 l 1,15,16
 1139 1165 1139 1165 1088 1208 c 128,-1,17
 1037 1251 1037 1251 881 1251 c 2,18,-1
 541 1251 l 1,19,-1
 541 762 l 1,20,-1
 784 762 l 2,21,22
 877 762 877 762 912.5 771 c 128,-1,23
 948 780 948 780 962.5 817 c 128,-1,24
 977 854 977 854 977 946 c 1,25,-1
 1044 946 l 1,26,-1
 1044 471 l 1,27,-1
 977 471 l 1,28,29
 977 564 977 564 963.5 601 c 128,-1,30
 950 638 950 638 913.5 647.5 c 128,-1,31
 877 657 877 657 784 657 c 2,32,-1
 541 657 l 1,33,-1
 541 207 l 2,34,35
 541 147 541 147 562 125.5 c 128,-1,36
 583 104 583 104 651 104 c 2,37,-1
 924 104 l 2,38,39
 1194 104 1194 104 1194 391 c 1,40,-1
 1262 391 l 1,41,-1
 1262 0 l 1,0,-1
EndSplineSet
EndChar
StartChar: F
Encoding: 70 70 41
Width: 1251
Flags: W
Fore
1194 1020 m 1,0,-1
 1124 1020 l 1,1,2
 1124 1154 1124 1154 1081.5 1202.5 c 128,-1,3
 1039 1251 1039 1251 866 1251 c 2,4,-1
 541 1251 l 1,5,-1
 541 719 l 1,6,-1
 758 719 l 2,7,8
 849 719 849 719 885.5 728.5 c 128,-1,9
 922 738 922 738 936 775 c 128,-1,10
 950 812 950 812 950 905 c 1,11,-1
 1018 905 l 1,12,-1
 1018 430 l 1,13,-1
 950 430 l 1,14,15
 950 523 950 523 936.5 559.5 c 128,-1,16
 923 596 923 596 887 605 c 128,-1,17
 851 614 851 614 758 614 c 2,18,-1
 541 614 l 1,19,-1
 541 260 l 2,20,21
 541 165 541 165 557 127.5 c 128,-1,22
 573 90 573 90 624.5 79 c 128,-1,23
 676 68 676 68 809 68 c 1,24,-1
 809 0 l 1,25,-1
 47 0 l 1,26,-1
 47 68 l 1,27,28
 157 68 157 68 192.5 81 c 128,-1,29
 228 94 228 94 241 126 c 128,-1,30
 254 158 254 158 254 260 c 2,31,-1
 254 1096 l 2,32,33
 254 1189 254 1189 242 1226 c 128,-1,34
 230 1263 230 1263 189 1275.5 c 128,-1,35
 148 1288 148 1288 47 1288 c 1,36,-1
 47 1356 l 1,37,-1
 1194 1356 l 1,38,-1
 1194 1020 l 1,0,-1
EndSplineSet
KernsSLIFO: 36 -152 0 0 17 -188 0 0 15 -188 0 0 3 -76 0 0
EndChar
StartChar: G
Encoding: 71 71 42
Width: 1593
Flags: W
Fore
811 -31 m 0,0,1
 486 -31 486 -31 289 163.5 c 128,-1,2
 92 358 92 358 92 678 c 0,3,4
 92 982 92 982 290.5 1184 c 128,-1,5
 489 1386 489 1386 813 1386 c 0,6,7
 933 1386 933 1386 1150 1347 c 0,8,9
 1235 1331 1235 1331 1253 1331 c 0,10,11
 1295 1331 1295 1331 1305 1386 c 1,12,-1
 1370 1386 l 1,13,-1
 1370 934 l 1,14,-1
 1309 934 l 1,15,16
 1193 1292 1193 1292 821 1292 c 0,17,18
 628 1292 628 1292 519 1118 c 128,-1,19
 410 944 410 944 410 678 c 0,20,21
 410 489 410 489 473.5 351 c 128,-1,22
 537 213 537 213 651.5 140.5 c 128,-1,23
 766 68 766 68 901 68 c 0,24,25
 1002 68 1002 68 1100 111 c 1,26,-1
 1100 369 l 2,27,28
 1100 499 1100 499 1070 530 c 128,-1,29
 1040 561 1040 561 907 561 c 1,30,-1
 907 629 l 1,31,-1
 1554 629 l 1,32,-1
 1554 561 l 1,33,34
 1440 561 1440 561 1410 538 c 128,-1,35
 1380 515 1380 515 1380 401 c 2,36,-1
 1380 92 l 1,37,38
 1219 23 1219 23 1092 -4 c 128,-1,39
 965 -31 965 -31 811 -31 c 0,0,1
EndSplineSet
EndChar
StartChar: H
Encoding: 72 72 43
Width: 1593
Flags: W
Fore
1546 0 m 1,0,-1
 866 0 l 1,1,-1
 866 68 l 1,2,3
 995 68 995 68 1024 98.5 c 128,-1,4
 1053 129 1053 129 1053 260 c 2,5,-1
 1053 643 l 1,6,-1
 541 643 l 1,7,-1
 541 260 l 2,8,9
 541 166 541 166 551 129.5 c 128,-1,10
 561 93 561 93 598 80.5 c 128,-1,11
 635 68 635 68 727 68 c 1,12,-1
 727 0 l 1,13,-1
 47 0 l 1,14,-1
 47 68 l 1,15,16
 157 68 157 68 192.5 81 c 128,-1,17
 228 94 228 94 241 126 c 128,-1,18
 254 158 254 158 254 260 c 2,19,-1
 254 1096 l 2,20,21
 254 1189 254 1189 242 1226 c 128,-1,22
 230 1263 230 1263 189 1275.5 c 128,-1,23
 148 1288 148 1288 47 1288 c 1,24,-1
 47 1356 l 1,25,-1
 727 1356 l 1,26,-1
 727 1288 l 1,27,28
 627 1288 627 1288 595.5 1275.5 c 128,-1,29
 564 1263 564 1263 552.5 1233 c 128,-1,30
 541 1203 541 1203 541 1096 c 2,31,-1
 541 758 l 1,32,-1
 1053 758 l 1,33,-1
 1053 1096 l 2,34,35
 1053 1171 1053 1171 1048 1206.5 c 128,-1,36
 1043 1242 1043 1242 1018 1265 c 128,-1,37
 993 1288 993 1288 866 1288 c 1,38,-1
 866 1356 l 1,39,-1
 1546 1356 l 1,40,-1
 1546 1288 l 1,41,42
 1436 1288 1436 1288 1400.5 1274.5 c 128,-1,43
 1365 1261 1365 1261 1352 1229.5 c 128,-1,44
 1339 1198 1339 1198 1339 1096 c 2,45,-1
 1339 260 l 2,46,47
 1339 167 1339 167 1351.5 130 c 128,-1,48
 1364 93 1364 93 1404.5 80.5 c 128,-1,49
 1445 68 1445 68 1546 68 c 1,50,-1
 1546 0 l 1,0,-1
EndSplineSet
EndChar
StartChar: I
Encoding: 73 73 44
Width: 797
Flags: W
Fore
748 0 m 1,0,-1
 47 0 l 1,1,-1
 47 68 l 1,2,3
 157 68 157 68 192.5 81 c 128,-1,4
 228 94 228 94 241 126 c 128,-1,5
 254 158 254 158 254 260 c 2,6,-1
 254 1096 l 2,7,8
 254 1189 254 1189 242 1226 c 128,-1,9
 230 1263 230 1263 189 1275.5 c 128,-1,10
 148 1288 148 1288 47 1288 c 1,11,-1
 47 1356 l 1,12,-1
 748 1356 l 1,13,-1
 748 1288 l 1,14,15
 637 1288 637 1288 602 1274.5 c 128,-1,16
 567 1261 567 1261 554 1229.5 c 128,-1,17
 541 1198 541 1198 541 1096 c 2,18,-1
 541 260 l 2,19,20
 541 167 541 167 553 130 c 128,-1,21
 565 93 565 93 605.5 80.5 c 128,-1,22
 646 68 646 68 748 68 c 1,23,-1
 748 0 l 1,0,-1
EndSplineSet
EndChar
StartChar: J
Encoding: 74 74 45
Width: 1024
Flags: W
Fore
1014 1288 m 1,0,1
 904 1288 904 1288 868.5 1274.5 c 128,-1,2
 833 1261 833 1261 820 1229.5 c 128,-1,3
 807 1198 807 1198 807 1096 c 2,4,-1
 807 399 l 2,5,6
 807 -31 807 -31 367 -31 c 0,7,8
 225 -31 225 -31 129 34.5 c 128,-1,9
 33 100 33 100 33 193 c 0,10,11
 33 254 33 254 68 284.5 c 128,-1,12
 103 315 103 315 147 315 c 0,13,14
 187 315 187 315 220.5 291.5 c 128,-1,15
 254 268 254 268 297 179 c 0,16,17
 334 100 334 100 360.5 79.5 c 128,-1,18
 387 59 387 59 418 59 c 0,19,20
 520 59 520 59 520 260 c 2,21,-1
 520 1096 l 2,22,23
 520 1189 520 1189 508 1226 c 128,-1,24
 496 1263 496 1263 455 1275.5 c 128,-1,25
 414 1288 414 1288 313 1288 c 1,26,-1
 313 1356 l 1,27,-1
 1014 1356 l 1,28,-1
 1014 1288 l 1,0,1
EndSplineSet
EndChar
StartChar: K
Encoding: 75 75 46
Width: 1593
Flags: W
Fore
1597 0 m 1,0,1
 1476 -20 1476 -20 1352 -20 c 0,2,3
 1234 -20 1234 -20 1154 20.5 c 128,-1,4
 1074 61 1074 61 1014.5 129.5 c 128,-1,5
 955 198 955 198 839 356 c 2,6,-1
 623 653 l 1,7,-1
 541 580 l 1,8,-1
 541 260 l 2,9,10
 541 168 541 168 553.5 130.5 c 128,-1,11
 566 93 566 93 607 80.5 c 128,-1,12
 648 68 648 68 750 68 c 1,13,-1
 750 0 l 1,14,-1
 47 0 l 1,15,-1
 47 68 l 1,16,17
 157 68 157 68 192.5 81 c 128,-1,18
 228 94 228 94 241 126 c 128,-1,19
 254 158 254 158 254 260 c 2,20,-1
 254 1085 l 2,21,22
 254 1182 254 1182 243.5 1220.5 c 128,-1,23
 233 1259 233 1259 191.5 1273.5 c 128,-1,24
 150 1288 150 1288 47 1288 c 1,25,-1
 47 1356 l 1,26,-1
 748 1356 l 1,27,-1
 748 1288 l 1,28,29
 645 1288 645 1288 604 1274 c 128,-1,30
 563 1260 563 1260 552 1222.5 c 128,-1,31
 541 1185 541 1185 541 1090 c 2,32,-1
 541 702 l 1,33,34
 955 1076 955 1076 1012 1129.5 c 128,-1,35
 1069 1183 1069 1183 1069 1227 c 0,36,37
 1069 1288 1069 1288 952 1288 c 1,38,-1
 952 1356 l 1,39,-1
 1450 1356 l 1,40,-1
 1450 1288 l 1,41,42
 1339 1288 1339 1288 1207 1173 c 2,43,-1
 840 842 l 1,44,45
 1182 368 1182 368 1311 215.5 c 128,-1,46
 1440 63 1440 63 1544 63 c 0,47,48
 1565 63 1565 63 1597 68 c 1,49,-1
 1597 0 l 1,0,1
EndSplineSet
EndChar
StartChar: L
Encoding: 76 76 47
Width: 1366
Flags: W
Fore
1262 0 m 1,0,-1
 47 0 l 1,1,-1
 47 68 l 1,2,3
 157 68 157 68 192.5 81 c 128,-1,4
 228 94 228 94 241 126 c 128,-1,5
 254 158 254 158 254 260 c 2,6,-1
 254 1096 l 2,7,8
 254 1189 254 1189 242 1226 c 128,-1,9
 230 1263 230 1263 189 1275.5 c 128,-1,10
 148 1288 148 1288 47 1288 c 1,11,-1
 47 1356 l 1,12,-1
 768 1356 l 1,13,-1
 768 1288 l 1,14,15
 642 1288 642 1288 603.5 1273 c 128,-1,16
 565 1258 565 1258 553 1224 c 128,-1,17
 541 1190 541 1190 541 1096 c 2,18,-1
 541 195 l 2,19,20
 541 134 541 134 562 113 c 128,-1,21
 583 92 583 92 651 92 c 2,22,-1
 924 92 l 2,23,24
 1063 92 1063 92 1128.5 169.5 c 128,-1,25
 1194 247 1194 247 1194 412 c 1,26,-1
 1262 412 l 1,27,-1
 1262 0 l 1,0,-1
EndSplineSet
KernsSLIFO: 183 -188 0 0 92 -113 0 0 60 -188 0 0 58 -188 0 0 57 -188 0 0 55 -188 0 0 3 -113 0 0
EndChar
StartChar: M
Encoding: 77 77 48
Width: 1933
Flags: W
Fore
1886 0 m 1,0,-1
 1186 0 l 1,1,-1
 1186 68 l 1,2,3
 1296 68 1296 68 1331.5 81 c 128,-1,4
 1367 94 1367 94 1380 126 c 128,-1,5
 1393 158 1393 158 1393 260 c 2,6,-1
 1393 1192 l 1,7,-1
 866 0 l 1,8,-1
 827 0 l 1,9,-1
 360 1192 l 1,10,-1
 360 260 l 2,11,12
 360 157 360 157 368 130 c 128,-1,13
 376 103 376 103 402.5 85.5 c 128,-1,14
 429 68 429 68 555 68 c 1,15,-1
 555 0 l 1,16,-1
 47 0 l 1,17,-1
 47 68 l 1,18,19
 157 68 157 68 192.5 81 c 128,-1,20
 228 94 228 94 241 126 c 128,-1,21
 254 158 254 158 254 260 c 2,22,-1
 254 1096 l 2,23,24
 254 1189 254 1189 242 1226 c 128,-1,25
 230 1263 230 1263 189 1275.5 c 128,-1,26
 148 1288 148 1288 47 1288 c 1,27,-1
 47 1356 l 1,28,-1
 588 1356 l 1,29,-1
 946 444 l 1,30,-1
 1348 1356 l 1,31,-1
 1886 1356 l 1,32,-1
 1886 1288 l 1,33,34
 1776 1288 1776 1288 1740.5 1274.5 c 128,-1,35
 1705 1261 1705 1261 1692 1229.5 c 128,-1,36
 1679 1198 1679 1198 1679 1096 c 2,37,-1
 1679 260 l 2,38,39
 1679 167 1679 167 1691.5 130 c 128,-1,40
 1704 93 1704 93 1744.5 80.5 c 128,-1,41
 1785 68 1785 68 1886 68 c 1,42,-1
 1886 0 l 1,0,-1
EndSplineSet
EndChar
StartChar: N
Encoding: 78 78 49
Width: 1479
Flags: W
Fore
1427 1288 m 1,0,1
 1319 1288 1319 1288 1287 1274.5 c 128,-1,2
 1255 1261 1255 1261 1245 1231 c 128,-1,3
 1235 1201 1235 1201 1235 1096 c 2,4,-1
 1235 -23 l 1,5,-1
 1165 -23 l 1,6,-1
 360 1087 l 1,7,-1
 360 260 l 2,8,9
 360 166 360 166 370.5 129.5 c 128,-1,10
 381 93 381 93 417 80.5 c 128,-1,11
 453 68 453 68 543 68 c 1,12,-1
 543 0 l 1,13,-1
 51 0 l 1,14,-1
 51 68 l 1,15,16
 162 68 162 68 196.5 81.5 c 128,-1,17
 231 95 231 95 242.5 126.5 c 128,-1,18
 254 158 254 158 254 260 c 2,19,-1
 254 1112 l 2,20,21
 254 1190 254 1190 240 1225 c 128,-1,22
 226 1260 226 1260 182 1274 c 128,-1,23
 138 1288 138 1288 39 1288 c 1,24,-1
 39 1356 l 1,25,-1
 518 1356 l 1,26,-1
 1128 514 l 1,27,-1
 1128 1096 l 2,28,29
 1128 1185 1128 1185 1121 1217 c 128,-1,30
 1114 1249 1114 1249 1087 1268.5 c 128,-1,31
 1060 1288 1060 1288 936 1288 c 1,32,-1
 936 1356 l 1,33,-1
 1427 1356 l 1,34,-1
 1427 1288 l 1,0,1
EndSplineSet
EndChar
StartChar: O
Encoding: 79 79 50
Width: 1593
Flags: W
Fore
797 1386 m 0,0,1
 1114 1386 1114 1386 1307.5 1189 c 128,-1,2
 1501 992 1501 992 1501 678 c 0,3,4
 1501 365 1501 365 1310 167 c 128,-1,5
 1119 -31 1119 -31 797 -31 c 0,6,7
 480 -31 480 -31 286 166.5 c 128,-1,8
 92 364 92 364 92 678 c 0,9,10
 92 990 92 990 284 1188 c 128,-1,11
 476 1386 476 1386 797 1386 c 0,0,1
797 66 m 0,12,13
 984 66 984 66 1084 230 c 128,-1,14
 1184 394 1184 394 1184 678 c 0,15,16
 1184 962 1184 962 1084 1126 c 128,-1,17
 984 1290 984 1290 797 1290 c 0,18,19
 609 1290 609 1290 509.5 1126 c 128,-1,20
 410 962 410 962 410 678 c 0,21,22
 410 394 410 394 509.5 230 c 128,-1,23
 609 66 609 66 797 66 c 0,12,13
EndSplineSet
EndChar
StartChar: P
Encoding: 80 80 51
Width: 1251
Flags: W
Fore
47 1356 m 1,0,-1
 651 1356 l 2,1,2
 903 1356 903 1356 1044.5 1248.5 c 128,-1,3
 1186 1141 1186 1141 1186 965 c 0,4,5
 1186 774 1186 774 1040.5 664.5 c 128,-1,6
 895 555 895 555 621 555 c 2,7,-1
 541 555 l 1,8,-1
 541 260 l 2,9,10
 541 165 541 165 555.5 127.5 c 128,-1,11
 570 90 570 90 618 79 c 128,-1,12
 666 68 666 68 788 68 c 1,13,-1
 788 0 l 1,14,-1
 47 0 l 1,15,-1
 47 68 l 1,16,17
 157 68 157 68 192.5 81 c 128,-1,18
 228 94 228 94 241 126 c 128,-1,19
 254 158 254 158 254 260 c 2,20,-1
 254 1096 l 2,21,22
 254 1189 254 1189 242 1226 c 128,-1,23
 230 1263 230 1263 189 1275.5 c 128,-1,24
 148 1288 148 1288 47 1288 c 1,25,-1
 47 1356 l 1,0,-1
541 653 m 1,26,-1
 610 653 l 2,27,28
 732 653 732 653 810.5 735 c 128,-1,29
 889 817 889 817 889 958 c 0,30,31
 889 1105 889 1105 812 1186.5 c 128,-1,32
 735 1268 735 1268 608 1268 c 0,33,34
 574 1268 574 1268 541 1257 c 1,35,-1
 541 653 l 1,26,-1
EndSplineSet
KernsSLIFO: 36 -152 0 0 17 -188 0 0 15 -188 0 0 3 -113 0 0
EndChar
StartChar: Q
Encoding: 81 81 52
Width: 1593
Flags: W
Fore
1608 -365 m 1,0,1
 1460 -389 1460 -389 1323 -389 c 0,2,3
 1201 -389 1201 -389 1112.5 -358 c 128,-1,4
 1024 -327 1024 -327 963 -279.5 c 128,-1,5
 902 -232 902 -232 816 -147 c 0,6,7
 730 -63 730 -63 684 -25 c 1,8,9
 406 14 406 14 249 207 c 128,-1,10
 92 400 92 400 92 678 c 0,11,12
 92 990 92 990 284 1188 c 128,-1,13
 476 1386 476 1386 797 1386 c 0,14,15
 1114 1386 1114 1386 1307.5 1189 c 128,-1,16
 1501 992 1501 992 1501 678 c 0,17,18
 1501 437 1501 437 1383 258.5 c 128,-1,19
 1265 80 1265 80 1049 8 c 1,20,-1
 1184 -121 l 2,21,22
 1251 -184 1251 -184 1302 -221 c 128,-1,23
 1353 -258 1353 -258 1412 -278.5 c 128,-1,24
 1471 -299 1471 -299 1544 -299 c 0,25,26
 1577 -299 1577 -299 1608 -295 c 1,27,-1
 1608 -365 l 1,0,1
797 66 m 0,28,29
 984 66 984 66 1084 230 c 128,-1,30
 1184 394 1184 394 1184 678 c 0,31,32
 1184 962 1184 962 1084 1126 c 128,-1,33
 984 1290 984 1290 797 1290 c 0,34,35
 609 1290 609 1290 509.5 1126 c 128,-1,36
 410 962 410 962 410 678 c 0,37,38
 410 394 410 394 509.5 230 c 128,-1,39
 609 66 609 66 797 66 c 0,28,29
EndSplineSet
EndChar
StartChar: R
Encoding: 82 82 53
Width: 1479
Flags: W
Fore
1495 0 m 1,0,1
 1312 -20 1312 -20 1188 -20 c 0,2,3
 1059 -20 1059 -20 947.5 113 c 128,-1,4
 836 246 836 246 616 606 c 1,5,-1
 541 606 l 1,6,-1
 541 260 l 2,7,8
 541 164 541 164 554 127 c 128,-1,9
 567 90 567 90 610.5 79 c 128,-1,10
 654 68 654 68 768 68 c 1,11,-1
 768 0 l 1,12,-1
 47 0 l 1,13,-1
 47 68 l 1,14,15
 157 68 157 68 192.5 81 c 128,-1,16
 228 94 228 94 241 126 c 128,-1,17
 254 158 254 158 254 260 c 2,18,-1
 254 1096 l 2,19,20
 254 1189 254 1189 242 1226 c 128,-1,21
 230 1263 230 1263 189 1275.5 c 128,-1,22
 148 1288 148 1288 47 1288 c 1,23,-1
 47 1356 l 1,24,-1
 713 1356 l 2,25,26
 967 1356 967 1356 1097 1262 c 128,-1,27
 1227 1168 1227 1168 1227 991 c 0,28,29
 1227 864 1227 864 1142.5 766.5 c 128,-1,30
 1058 669 1058 669 911 633 c 1,31,32
 1149 296 1149 296 1192.5 239.5 c 128,-1,33
 1236 183 1236 183 1309.5 123 c 128,-1,34
 1383 63 1383 63 1440 63 c 0,35,36
 1455 63 1455 63 1495 68 c 1,37,-1
 1495 0 l 1,0,1
541 705 m 1,38,-1
 633 705 l 2,39,40
 769 705 769 705 849.5 787 c 128,-1,41
 930 869 930 869 930 987 c 0,42,43
 930 1129 930 1129 848.5 1198.5 c 128,-1,44
 767 1268 767 1268 647 1268 c 0,45,46
 592 1268 592 1268 541 1257 c 1,47,-1
 541 705 l 1,38,-1
EndSplineSet
KernsSLIFO: 92 -72 0 0 60 -72 0 0 58 -72 0 0 57 -72 0 0 55 -72 0 0
EndChar
StartChar: S
Encoding: 83 83 54
Width: 1139
Flags: W
Fore
586 -31 m 0,0,1
 481 -31 481 -31 333 3 c 0,2,3
 258 20 258 20 231 20 c 0,4,5
 185 20 185 20 180 -31 c 1,6,-1
 115 -31 l 1,7,-1
 115 399 l 1,8,-1
 180 399 l 1,9,10
 232 63 232 63 569 63 c 0,11,12
 678 63 678 63 739.5 117.5 c 128,-1,13
 801 172 801 172 801 268 c 0,14,15
 801 329 801 329 755.5 386 c 128,-1,16
 710 443 710 443 525 538 c 0,17,18
 396 605 396 605 315 660.5 c 128,-1,19
 234 716 234 716 176.5 806 c 128,-1,20
 119 896 119 896 119 1024 c 0,21,22
 119 1186 119 1186 241.5 1286 c 128,-1,23
 364 1386 364 1386 549 1386 c 0,24,25
 642 1386 642 1386 776 1359 c 0,26,27
 839 1346 839 1346 860 1346 c 0,28,29
 902 1346 902 1346 911 1386 c 1,30,-1
 977 1386 l 1,31,-1
 977 983 l 1,32,-1
 911 983 l 1,33,34
 882 1136 882 1136 796.5 1214 c 128,-1,35
 711 1292 711 1292 553 1292 c 0,36,37
 463 1292 463 1292 405.5 1243 c 128,-1,38
 348 1194 348 1194 348 1112 c 0,39,40
 348 1054 348 1054 394 1000 c 128,-1,41
 440 946 440 946 628 853 c 0,42,43
 762 787 762 787 846 731.5 c 128,-1,44
 930 676 930 676 990.5 587 c 128,-1,45
 1051 498 1051 498 1051 371 c 0,46,47
 1051 199 1051 199 918.5 84 c 128,-1,48
 786 -31 786 -31 586 -31 c 0,0,1
EndSplineSet
EndChar
StartChar: T
Encoding: 84 84 55
Width: 1366
Flags: W
Fore
1284 977 m 1,0,-1
 1212 977 l 1,1,2
 1212 1136 1212 1136 1165.5 1191.5 c 128,-1,3
 1119 1247 1119 1247 1030 1247 c 2,4,-1
 827 1247 l 1,5,-1
 827 260 l 2,6,7
 827 167 827 167 839.5 130 c 128,-1,8
 852 93 852 93 892.5 80.5 c 128,-1,9
 933 68 933 68 1034 68 c 1,10,-1
 1034 0 l 1,11,-1
 334 0 l 1,12,-1
 334 68 l 1,13,14
 444 68 444 68 479.5 81 c 128,-1,15
 515 94 515 94 528 126 c 128,-1,16
 541 158 541 158 541 260 c 2,17,-1
 541 1247 l 1,18,-1
 338 1247 l 2,19,20
 249 1247 249 1247 202.5 1191.5 c 128,-1,21
 156 1136 156 1136 156 977 c 1,22,-1
 84 977 l 1,23,-1
 84 1356 l 1,24,-1
 1284 1356 l 1,25,-1
 1284 977 l 1,0,-1
EndSplineSet
KernsSLIFO: 92 -152 0 0 90 -152 0 0 88 -188 0 0 86 -188 0 0 85 -152 0 0 82 -188 0 0 76 -37 0 0 72 -188 0 0 70 -188 0 0 68 -188 0 0 50 -37 0 0 36 -152 0 0 30 -152 0 0 29 -152 0 0 17 -152 0 0 16 -188 0 0 15 -152 0 0 3 -37 0 0
EndChar
StartChar: U
Encoding: 85 85 56
Width: 1479
Flags: W
Fore
754 -31 m 0,0,1
 499 -31 499 -31 364 101 c 128,-1,2
 229 233 229 233 229 481 c 2,3,-1
 229 1096 l 2,4,5
 229 1204 229 1204 222 1234.5 c 128,-1,6
 215 1265 215 1265 179.5 1276.5 c 128,-1,7
 144 1288 144 1288 47 1288 c 1,8,-1
 47 1356 l 1,9,-1
 700 1356 l 1,10,-1
 700 1288 l 1,11,12
 574 1288 574 1288 544 1257 c 128,-1,13
 514 1226 514 1226 514 1096 c 2,14,-1
 514 492 l 2,15,16
 514 303 514 303 596 206 c 128,-1,17
 678 109 678 109 834 109 c 0,18,19
 988 109 988 109 1074.5 207.5 c 128,-1,20
 1161 306 1161 306 1161 489 c 2,21,-1
 1161 1096 l 2,22,23
 1161 1190 1161 1190 1150 1226.5 c 128,-1,24
 1139 1263 1139 1263 1099 1275.5 c 128,-1,25
 1059 1288 1059 1288 958 1288 c 1,26,-1
 958 1356 l 1,27,-1
 1452 1356 l 1,28,-1
 1452 1288 l 1,29,30
 1356 1288 1356 1288 1320.5 1276.5 c 128,-1,31
 1285 1265 1285 1265 1277.5 1234.5 c 128,-1,32
 1270 1204 1270 1204 1270 1096 c 2,33,-1
 1270 485 l 2,34,35
 1270 234 1270 234 1139 101.5 c 128,-1,36
 1008 -31 1008 -31 754 -31 c 0,0,1
EndSplineSet
EndChar
StartChar: V
Encoding: 86 86 57
Width: 1479
Flags: W
Fore
1460 1288 m 1,0,1
 1396 1283 1396 1283 1351 1246.5 c 128,-1,2
 1306 1210 1306 1210 1249 1081 c 2,3,-1
 762 -31 l 1,4,-1
 717 -31 l 1,5,-1
 264 1044 l 2,6,7
 225 1138 225 1138 201.5 1180.5 c 128,-1,8
 178 1223 178 1223 135 1254 c 128,-1,9
 92 1285 92 1285 23 1288 c 1,10,-1
 23 1356 l 1,11,-1
 670 1356 l 1,12,-1
 670 1288 l 1,13,14
 594 1285 594 1285 562 1264.5 c 128,-1,15
 530 1244 530 1244 530 1196 c 0,16,17
 530 1148 530 1148 551 1100 c 2,18,-1
 838 412 l 1,19,-1
 1059 915 l 2,20,21
 1142 1106 1142 1106 1153.5 1146 c 128,-1,22
 1165 1186 1165 1186 1165 1208 c 0,23,24
 1165 1245 1165 1245 1134 1263.5 c 128,-1,25
 1103 1282 1103 1282 1014 1288 c 1,26,-1
 1014 1356 l 1,27,-1
 1460 1356 l 1,28,-1
 1460 1288 l 1,0,1
EndSplineSet
KernsSLIFO: 92 -188 0 0 88 -188 0 0 85 -152 0 0 82 -188 0 0 76 -76 0 0 72 -188 0 0 68 -188 0 0 50 -41 0 0 36 -264 0 0 30 -188 0 0 29 -188 0 0 17 -264 0 0 16 -152 0 0 15 -264 0 0 3 -37 0 0
EndChar
StartChar: W
Encoding: 87 87 58
Width: 2048
Flags: W
Fore
2032 1288 m 1,0,1
 1958 1282 1958 1282 1911 1241 c 128,-1,2
 1864 1200 1864 1200 1821 1081 c 2,3,-1
 1415 -31 l 1,4,-1
 1370 -31 l 1,5,-1
 1034 895 l 1,6,-1
 696 -31 l 1,7,-1
 651 -31 l 1,8,-1
 260 1044 l 2,9,10
 232 1124 232 1124 206 1172 c 128,-1,11
 180 1220 180 1220 135 1252.5 c 128,-1,12
 90 1285 90 1285 18 1288 c 1,13,-1
 18 1356 l 1,14,-1
 645 1356 l 1,15,-1
 645 1288 l 1,16,17
 526 1283 526 1283 526 1196 c 0,18,19
 526 1148 526 1148 556 1065 c 2,20,-1
 768 479 l 1,21,-1
 975 1059 l 1,22,23
 927 1190 927 1190 878 1237.5 c 128,-1,24
 829 1285 829 1285 758 1288 c 1,25,-1
 758 1356 l 1,26,-1
 1384 1356 l 1,27,-1
 1384 1288 l 1,28,29
 1308 1285 1308 1285 1276.5 1264.5 c 128,-1,30
 1245 1244 1245 1244 1245 1196 c 0,31,32
 1245 1141 1245 1141 1266 1084 c 2,33,-1
 1487 477 l 1,34,35
 1692 1058 1692 1058 1714.5 1118 c 128,-1,36
 1737 1178 1737 1178 1737 1208 c 0,37,38
 1737 1245 1737 1245 1705.5 1263.5 c 128,-1,39
 1674 1282 1674 1282 1585 1288 c 1,40,-1
 1585 1356 l 1,41,-1
 2032 1356 l 1,42,-1
 2032 1288 l 1,0,1
EndSplineSet
KernsSLIFO: 92 -76 0 0 88 -37 0 0 85 -37 0 0 82 -113 0 0 76 -37 0 0 72 -113 0 0 68 -113 0 0 36 -227 0 0 30 -113 0 0 29 -113 0 0 17 -188 0 0 16 -76 0 0 15 -188 0 0 3 -37 0 0
EndChar
StartChar: X
Encoding: 88 88 59
Width: 1479
Flags: W
Fore
1458 0 m 1,0,-1
 795 0 l 1,1,-1
 795 68 l 1,2,3
 934 68 934 68 934 131 c 0,4,5
 934 167 934 167 894 226 c 2,6,-1
 674 555 l 1,7,8
 425 253 425 253 397 217 c 128,-1,9
 369 181 369 181 369 145 c 0,10,11
 369 107 369 107 414.5 87.5 c 128,-1,12
 460 68 460 68 532 68 c 1,13,-1
 532 0 l 1,14,-1
 18 0 l 1,15,-1
 18 68 l 1,16,17
 133 68 133 68 265 225 c 2,18,-1
 614 645 l 1,19,-1
 345 1049 l 2,20,21
 228 1224 228 1224 188 1256 c 128,-1,22
 148 1288 148 1288 84 1288 c 1,23,-1
 84 1356 l 1,24,-1
 733 1356 l 1,25,-1
 733 1288 l 1,26,27
 594 1288 594 1288 594 1217 c 0,28,29
 594 1184 594 1184 619 1147 c 2,30,-1
 803 872 l 1,31,32
 998 1115 998 1115 1021 1147 c 128,-1,33
 1044 1179 1044 1179 1044 1210 c 0,34,35
 1044 1250 1044 1250 1016 1269 c 128,-1,36
 988 1288 988 1288 909 1288 c 1,37,-1
 909 1356 l 1,38,-1
 1407 1356 l 1,39,-1
 1407 1288 l 1,40,41
 1328 1288 1328 1288 1264.5 1241.5 c 128,-1,42
 1201 1195 1201 1195 1128 1106 c 2,43,-1
 864 786 l 1,44,-1
 1151 361 l 2,45,46
 1277 173 1277 173 1314.5 132.5 c 128,-1,47
 1352 92 1352 92 1383 80 c 128,-1,48
 1414 68 1414 68 1458 68 c 1,49,-1
 1458 0 l 1,0,-1
EndSplineSet
EndChar
StartChar: Y
Encoding: 89 89 60
Width: 1479
Flags: W
Fore
1450 1288 m 1,0,1
 1323 1280 1323 1280 1236 1131 c 2,2,-1
 874 510 l 1,3,-1
 874 260 l 2,4,5
 874 167 874 167 886.5 130 c 128,-1,6
 899 93 899 93 939.5 80.5 c 128,-1,7
 980 68 980 68 1081 68 c 1,8,-1
 1081 0 l 1,9,-1
 381 0 l 1,10,-1
 381 68 l 1,11,12
 491 68 491 68 526.5 81 c 128,-1,13
 562 94 562 94 575 126 c 128,-1,14
 588 158 588 158 588 260 c 2,15,-1
 588 494 l 1,16,-1
 331 961 l 2,17,18
 217 1169 217 1169 186.5 1210 c 128,-1,19
 156 1251 156 1251 121 1269.5 c 128,-1,20
 86 1288 86 1288 33 1288 c 1,21,-1
 33 1356 l 1,22,-1
 684 1356 l 1,23,-1
 684 1288 l 1,24,25
 605 1285 605 1285 575 1272 c 128,-1,26
 545 1259 545 1259 545 1227 c 0,27,28
 545 1195 545 1195 554 1172 c 128,-1,29
 563 1149 563 1149 637 1009 c 2,30,-1
 825 653 l 1,31,-1
 1120 1154 l 2,32,33
 1135 1179 1135 1179 1135 1208 c 0,34,35
 1135 1245 1135 1245 1103.5 1263.5 c 128,-1,36
 1072 1282 1072 1282 983 1288 c 1,37,-1
 983 1356 l 1,38,-1
 1450 1356 l 1,39,-1
 1450 1288 l 1,0,1
EndSplineSet
KernsSLIFO: 89 -227 0 0 88 -188 0 0 84 -227 0 0 83 -188 0 0 82 -227 0 0 76 -76 0 0 72 -227 0 0 68 -227 0 0 36 -188 0 0 30 -188 0 0 29 -188 0 0 17 -188 0 0 16 -188 0 0 15 -188 0 0 3 -76 0 0
EndChar
StartChar: Z
Encoding: 90 90 61
Width: 1366
Flags: W
Fore
1276 0 m 1,0,-1
 49 0 l 1,1,-1
 49 37 l 1,2,-1
 866 1253 l 1,3,-1
 434 1253 l 2,4,5
 303 1253 303 1253 269.5 1232.5 c 128,-1,6
 236 1212 236 1212 222 1171.5 c 128,-1,7
 208 1131 208 1131 190 995 c 1,8,-1
 123 995 l 1,9,-1
 123 1356 l 1,10,-1
 1241 1356 l 1,11,-1
 1241 1329 l 1,12,-1
 422 102 l 1,13,-1
 993 102 l 2,14,15
 1092 102 1092 102 1138.5 137.5 c 128,-1,16
 1185 173 1185 173 1210 379 c 1,17,-1
 1276 379 l 1,18,-1
 1276 0 l 1,0,-1
EndSplineSet
EndChar
StartChar: bracketleft
Encoding: 91 91 62
Width: 682
Flags: W
Fore
608 -406 m 1,0,-1
 168 -406 l 1,1,-1
 168 1386 l 1,2,-1
 608 1386 l 1,3,-1
 608 1303 l 1,4,-1
 436 1303 l 1,5,-1
 436 -322 l 1,6,-1
 608 -322 l 1,7,-1
 608 -406 l 1,0,-1
EndSplineSet
EndChar
StartChar: backslash
Encoding: 92 92 63
Width: 569
Flags: W
Fore
575 -31 m 1,0,-1
 432 -31 l 1,1,-1
 -6 1421 l 1,2,-1
 137 1421 l 1,3,-1
 575 -31 l 1,0,-1
EndSplineSet
EndChar
StartChar: bracketright
Encoding: 93 93 64
Width: 682
Flags: W
Fore
514 -406 m 1,0,-1
 74 -406 l 1,1,-1
 74 -322 l 1,2,-1
 246 -322 l 1,3,-1
 246 1303 l 1,4,-1
 74 1303 l 1,5,-1
 74 1386 l 1,6,-1
 514 1386 l 1,7,-1
 514 -406 l 1,0,-1
EndSplineSet
EndChar
StartChar: asciicircum
Encoding: 94 94 65
Width: 1190
Flags: W
Fore
1044 664 m 1,0,-1
 889 664 l 1,1,-1
 596 1178 l 1,2,-1
 303 664 l 1,3,-1
 147 664 l 1,4,-1
 559 1384 l 1,5,-1
 641 1384 l 1,6,-1
 1044 664 l 1,0,-1
EndSplineSet
EndChar
StartChar: underscore
Encoding: 95 95 66
Width: 1024
Flags: W
Fore
1040 -442 m 1,0,-1
 -16 -442 l 1,1,-1
 -16 -311 l 1,2,-1
 1040 -311 l 1,3,-1
 1040 -442 l 1,0,-1
EndSplineSet
EndChar
StartChar: grave
Encoding: 96 96 67
Width: 682
Flags: W
Fore
477 1051 m 1,0,-1
 381 1051 l 1,1,-1
 88 1348 l 1,2,-1
 373 1348 l 1,3,-1
 477 1051 l 1,0,-1
EndSplineSet
EndChar
StartChar: a
Encoding: 97 97 68
Width: 1024
Flags: W
Fore
598 256 m 1,0,-1
 598 492 l 1,1,2
 338 437 338 437 338 274 c 0,3,4
 338 211 338 211 368.5 177 c 128,-1,5
 399 143 399 143 444 143 c 0,6,7
 479 143 479 143 522 173.5 c 128,-1,8
 565 204 565 204 598 256 c 1,0,-1
1010 82 m 1,9,10
 903 -29 903 -29 768 -29 c 0,11,12
 685 -29 685 -29 641.5 16 c 128,-1,13
 598 61 598 61 598 139 c 1,14,15
 480 -29 480 -29 301 -29 c 0,16,17
 196 -29 196 -29 133 39.5 c 128,-1,18
 70 108 70 108 70 219 c 0,19,20
 70 364 70 364 183.5 443 c 128,-1,21
 297 522 297 522 598 582 c 1,22,23
 598 745 598 745 564 808.5 c 128,-1,24
 530 872 530 872 446 872 c 0,25,26
 355 872 355 872 322 743 c 0,27,28
 292 637 292 637 197 637 c 0,29,30
 90 637 90 637 90 745 c 0,31,32
 90 834 90 834 198 899.5 c 128,-1,33
 306 965 306 965 485 965 c 0,34,35
 667 965 667 965 765.5 895 c 128,-1,36
 864 825 864 825 864 643 c 2,37,-1
 864 240 l 2,38,39
 864 113 864 113 924 113 c 0,40,41
 956 113 956 113 987 135 c 1,42,-1
 1010 82 l 1,9,10
EndSplineSet
EndChar
StartChar: b
Encoding: 98 98 69
Width: 1139
Flags: W
Fore
418 856 m 1,0,1
 548 965 548 965 670 965 c 0,2,3
 847 965 847 965 958 833.5 c 128,-1,4
 1069 702 1069 702 1069 504 c 0,5,6
 1069 263 1069 263 920.5 117 c 128,-1,7
 772 -29 772 -29 539 -29 c 0,8,9
 430 -29 430 -29 313 20 c 1,10,-1
 207 -23 l 1,11,-1
 152 -23 l 1,12,-1
 152 1180 l 2,13,14
 152 1230 152 1230 134 1246 c 128,-1,15
 116 1262 116 1262 63 1262 c 2,16,-1
 6 1262 l 1,17,-1
 6 1325 l 1,18,-1
 362 1421 l 1,19,-1
 418 1421 l 1,20,-1
 418 856 l 1,0,1
418 98 m 1,21,22
 463 63 463 63 535 63 c 0,23,24
 653 63 653 63 718.5 170 c 128,-1,25
 784 277 784 277 784 467 c 0,26,27
 784 628 784 628 728.5 725.5 c 128,-1,28
 673 823 673 823 569 823 c 0,29,30
 491 823 491 823 418 758 c 1,31,-1
 418 98 l 1,21,22
EndSplineSet
EndChar
StartChar: c
Encoding: 99 99 70
Width: 909
Flags: W
Fore
481 -29 m 0,0,1
 297 -29 297 -29 183.5 107 c 128,-1,2
 70 243 70 243 70 461 c 0,3,4
 70 693 70 693 179 829 c 128,-1,5
 288 965 288 965 489 965 c 0,6,7
 639 965 639 965 730 903 c 128,-1,8
 821 841 821 841 821 750 c 0,9,10
 821 701 821 701 794.5 670 c 128,-1,11
 768 639 768 639 723 639 c 0,12,13
 672 639 672 639 635.5 667.5 c 128,-1,14
 599 696 599 696 573 772 c 0,15,16
 541 872 541 872 487 872 c 0,17,18
 426 872 426 872 390 779.5 c 128,-1,19
 354 687 354 687 354 524 c 0,20,21
 354 342 354 342 410 241.5 c 128,-1,22
 466 141 466 141 561 141 c 0,23,24
 690 141 690 141 807 279 c 1,25,-1
 862 221 l 1,26,27
 793 92 793 92 702 31.5 c 128,-1,28
 611 -29 611 -29 481 -29 c 0,0,1
EndSplineSet
EndChar
StartChar: d
Encoding: 100 100 71
Width: 1139
Flags: W
Fore
735 178 m 1,0,-1
 735 838 l 1,1,2
 690 872 690 872 618 872 c 0,3,4
 500 872 500 872 434.5 765.5 c 128,-1,5
 369 659 369 659 369 469 c 0,6,7
 369 308 369 308 425 210.5 c 128,-1,8
 481 113 481 113 584 113 c 0,9,10
 662 113 662 113 735 178 c 1,0,-1
1147 70 m 1,11,-1
 791 -27 l 1,12,-1
 735 -27 l 1,13,-1
 735 80 l 1,14,15
 605 -29 605 -29 483 -29 c 0,16,17
 306 -29 306 -29 195 102.5 c 128,-1,18
 84 234 84 234 84 432 c 0,19,20
 84 673 84 673 232.5 819 c 128,-1,21
 381 965 381 965 614 965 c 0,22,23
 681 965 681 965 735 950 c 1,24,-1
 735 1159 l 2,25,26
 735 1218 735 1218 717 1240 c 128,-1,27
 699 1262 699 1262 647 1262 c 2,28,-1
 590 1262 l 1,29,-1
 590 1325 l 1,30,-1
 944 1421 l 1,31,-1
 1001 1421 l 1,32,-1
 1001 215 l 2,33,34
 1001 166 1001 166 1017.5 149.5 c 128,-1,35
 1034 133 1034 133 1090 133 c 2,36,-1
 1147 133 l 1,37,-1
 1147 70 l 1,11,-1
EndSplineSet
EndChar
StartChar: e
Encoding: 101 101 72
Width: 909
Flags: W
Fore
571 573 m 1,0,1
 571 709 571 709 540 790.5 c 128,-1,2
 509 872 509 872 457 872 c 0,3,4
 413 872 413 872 385 792.5 c 128,-1,5
 357 713 357 713 354 573 c 1,6,-1
 571 573 l 1,0,1
479 -29 m 0,7,8
 298 -29 298 -29 184 106 c 128,-1,9
 70 241 70 241 70 461 c 0,10,11
 70 692 70 692 177.5 828.5 c 128,-1,12
 285 965 285 965 471 965 c 0,13,14
 652 965 652 965 750 839 c 128,-1,15
 848 713 848 713 848 481 c 1,16,-1
 352 481 l 1,17,18
 352 335 352 335 413 238 c 128,-1,19
 474 141 474 141 559 141 c 0,20,21
 696 141 696 141 807 279 c 1,22,-1
 862 221 l 1,23,24
 735 -29 735 -29 479 -29 c 0,7,8
EndSplineSet
EndChar
StartChar: f
Encoding: 102 102 73
Width: 682
Flags: W
Fore
586 0 m 1,0,-1
 39 0 l 1,1,-1
 39 68 l 1,2,3
 128 68 128 68 148 90 c 128,-1,4
 168 112 168 112 168 201 c 2,5,-1
 168 842 l 1,6,-1
 -10 842 l 1,7,-1
 -10 936 l 1,8,-1
 168 936 l 1,9,-1
 168 1008 l 2,10,11
 168 1207 168 1207 277.5 1314 c 128,-1,12
 387 1421 387 1421 590 1421 c 0,13,14
 726 1421 726 1421 818.5 1361.5 c 128,-1,15
 911 1302 911 1302 911 1217 c 0,16,17
 911 1170 911 1170 884.5 1143 c 128,-1,18
 858 1116 858 1116 811 1116 c 0,19,20
 770 1116 770 1116 736 1137 c 128,-1,21
 702 1158 702 1158 666 1239 c 0,22,23
 626 1329 626 1329 567 1329 c 0,24,25
 434 1329 434 1329 434 1081 c 2,26,-1
 434 936 l 1,27,-1
 670 936 l 1,28,-1
 670 842 l 1,29,-1
 434 842 l 1,30,-1
 434 201 l 2,31,32
 434 116 434 116 460 92 c 128,-1,33
 486 68 486 68 586 68 c 1,34,-1
 586 0 l 1,0,-1
EndSplineSet
KernsSLIFO: 183 113 0 0
EndChar
StartChar: g
Encoding: 103 103 74
Width: 1024
Flags: W
Fore
397 317 m 1,0,1
 313 260 313 260 313 225 c 0,2,3
 313 182 313 182 461 182 c 2,4,-1
 731 182 l 2,5,6
 848 182 848 182 914.5 119 c 128,-1,7
 981 56 981 56 981 -47 c 0,8,9
 981 -192 981 -192 835 -314 c 128,-1,10
 689 -436 689 -436 459 -436 c 0,11,12
 275 -436 275 -436 161 -376.5 c 128,-1,13
 47 -317 47 -317 47 -217 c 0,14,15
 47 -124 47 -124 221 -31 c 1,16,17
 172 1 172 1 140.5 49.5 c 128,-1,18
 109 98 109 98 109 139 c 0,19,20
 109 223 109 223 297 336 c 1,21,22
 190 372 190 372 130 453.5 c 128,-1,23
 70 535 70 535 70 633 c 0,24,25
 70 777 70 777 174.5 871 c 128,-1,26
 279 965 279 965 461 965 c 0,27,28
 605 965 605 965 711 899 c 1,29,-1
 975 899 l 1,30,-1
 975 791 l 1,31,-1
 803 791 l 1,32,33
 852 721 852 721 852 633 c 0,34,35
 852 491 852 491 751 403 c 128,-1,36
 650 315 650 315 461 315 c 0,37,38
 445 315 445 315 397 317 c 1,0,1
473 406 m 0,39,40
 536 406 536 406 571 466 c 128,-1,41
 606 526 606 526 606 623 c 0,42,43
 606 741 606 741 563.5 807.5 c 128,-1,44
 521 874 521 874 449 874 c 0,45,46
 384 874 384 874 349.5 812 c 128,-1,47
 315 750 315 750 315 643 c 0,48,49
 315 531 315 531 357.5 468.5 c 128,-1,50
 400 406 400 406 473 406 c 0,39,40
319 -57 m 1,51,52
 244 -119 244 -119 244 -197 c 0,53,54
 244 -262 244 -262 303.5 -305 c 128,-1,55
 363 -348 363 -348 457 -348 c 0,56,57
 593 -348 593 -348 687.5 -283 c 128,-1,58
 782 -218 782 -218 782 -143 c 0,59,60
 782 -91 782 -91 737 -77 c 128,-1,61
 692 -63 692 -63 553 -63 c 0,62,63
 348 -63 348 -63 319 -57 c 1,51,52
EndSplineSet
EndChar
StartChar: h
Encoding: 104 104 75
Width: 1139
Flags: W
Fore
1100 0 m 1,0,-1
 627 0 l 1,1,-1
 627 68 l 1,2,3
 683 68 683 68 699 90 c 128,-1,4
 715 112 715 112 715 201 c 2,5,-1
 715 631 l 2,6,7
 715 823 715 823 600 823 c 0,8,9
 539 823 539 823 436 739 c 1,10,-1
 436 201 l 2,11,12
 436 115 436 115 460 91.5 c 128,-1,13
 484 68 484 68 555 68 c 1,14,-1
 555 0 l 1,15,-1
 41 0 l 1,16,-1
 41 68 l 1,17,18
 129 68 129 68 149.5 88.5 c 128,-1,19
 170 109 170 109 170 201 c 2,20,-1
 170 1159 l 2,21,22
 170 1218 170 1218 152 1240 c 128,-1,23
 134 1262 134 1262 82 1262 c 2,24,-1
 25 1262 l 1,25,-1
 25 1325 l 1,26,-1
 379 1421 l 1,27,-1
 436 1421 l 1,28,-1
 436 829 l 1,29,30
 580 965 580 965 725 965 c 0,31,32
 849 965 849 965 915 885.5 c 128,-1,33
 981 806 981 806 981 655 c 2,34,-1
 981 201 l 2,35,36
 981 114 981 114 1004.5 91 c 128,-1,37
 1028 68 1028 68 1100 68 c 1,38,-1
 1100 0 l 1,0,-1
EndSplineSet
EndChar
StartChar: i
Encoding: 105 105 76
Width: 569
Flags: W
Fore
553 0 m 1,0,-1
 39 0 l 1,1,-1
 39 68 l 1,2,3
 127 68 127 68 147.5 88.5 c 128,-1,4
 168 109 168 109 168 201 c 2,5,-1
 168 702 l 2,6,7
 168 763 168 763 149.5 784 c 128,-1,8
 131 805 131 805 80 805 c 2,9,-1
 43 805 l 1,10,-1
 43 868 l 1,11,-1
 377 965 l 1,12,-1
 434 965 l 1,13,-1
 434 201 l 2,14,15
 434 115 434 115 458 91.5 c 128,-1,16
 482 68 482 68 553 68 c 1,17,-1
 553 0 l 1,0,-1
289 1421 m 0,18,19
 351 1421 351 1421 396.5 1375.5 c 128,-1,20
 442 1330 442 1330 442 1268 c 0,21,22
 442 1205 442 1205 397 1159.5 c 128,-1,23
 352 1114 352 1114 289 1114 c 0,24,25
 226 1114 226 1114 180.5 1159.5 c 128,-1,26
 135 1205 135 1205 135 1268 c 0,27,28
 135 1330 135 1330 180.5 1375.5 c 128,-1,29
 226 1421 226 1421 289 1421 c 0,18,19
EndSplineSet
EndChar
StartChar: j
Encoding: 106 106 77
Width: 682
Flags: W
Fore
483 96 m 2,0,1
 483 -140 483 -140 383 -288 c 128,-1,2
 283 -436 283 -436 98 -436 c 0,3,4
 -15 -436 -15 -436 -92.5 -379 c 128,-1,5
 -170 -322 -170 -322 -170 -246 c 0,6,7
 -170 -202 -170 -202 -146.5 -173.5 c 128,-1,8
 -123 -145 -123 -145 -82 -145 c 0,9,10
 -37 -145 -37 -145 -9.5 -169 c 128,-1,11
 18 -193 18 -193 35 -258 c 0,12,13
 58 -344 58 -344 106 -344 c 0,14,15
 217 -344 217 -344 217 20 c 2,16,-1
 217 702 l 2,17,18
 217 761 217 761 199 783 c 128,-1,19
 181 805 181 805 129 805 c 2,20,-1
 92 805 l 1,21,-1
 92 868 l 1,22,-1
 426 965 l 1,23,-1
 483 965 l 1,24,-1
 483 96 l 2,0,1
338 1421 m 0,25,26
 401 1421 401 1421 446.5 1375.5 c 128,-1,27
 492 1330 492 1330 492 1268 c 0,28,29
 492 1205 492 1205 446.5 1159.5 c 128,-1,30
 401 1114 401 1114 338 1114 c 0,31,32
 275 1114 275 1114 229.5 1159.5 c 128,-1,33
 184 1205 184 1205 184 1268 c 0,34,35
 184 1330 184 1330 229.5 1375.5 c 128,-1,36
 275 1421 275 1421 338 1421 c 0,25,26
EndSplineSet
EndChar
StartChar: k
Encoding: 107 107 78
Width: 1139
Flags: W
Fore
1159 0 m 1,0,-1
 651 0 l 1,1,-1
 651 68 l 1,2,3
 689 68 689 68 702 76.5 c 128,-1,4
 715 85 715 85 715 109 c 0,5,6
 715 124 715 124 683 173 c 2,7,-1
 500 461 l 1,8,-1
 436 414 l 1,9,-1
 436 201 l 2,10,11
 436 115 436 115 460 91.5 c 128,-1,12
 484 68 484 68 555 68 c 1,13,-1
 555 0 l 1,14,-1
 41 0 l 1,15,-1
 41 68 l 1,16,17
 129 68 129 68 149.5 88.5 c 128,-1,18
 170 109 170 109 170 201 c 2,19,-1
 170 1159 l 2,20,21
 170 1218 170 1218 152 1240 c 128,-1,22
 134 1262 134 1262 82 1262 c 2,23,-1
 25 1262 l 1,24,-1
 25 1325 l 1,25,-1
 379 1421 l 1,26,-1
 436 1421 l 1,27,-1
 436 535 l 1,28,29
 688 733 688 733 718 760.5 c 128,-1,30
 748 788 748 788 748 817 c 0,31,32
 748 868 748 868 641 868 c 1,33,-1
 641 936 l 1,34,-1
 1092 936 l 1,35,-1
 1092 868 l 1,36,37
 1053 868 1053 868 1014 854 c 128,-1,38
 975 840 975 840 933 805 c 2,39,-1
 698 618 l 1,40,-1
 1000 180 l 2,41,42
 1034 130 1034 130 1070.5 99 c 128,-1,43
 1107 68 1107 68 1159 68 c 1,44,-1
 1159 0 l 1,0,-1
EndSplineSet
EndChar
StartChar: l
Encoding: 108 108 79
Width: 569
Flags: W
Fore
549 0 m 1,0,-1
 23 0 l 1,1,-1
 23 68 l 1,2,3
 112 68 112 68 132 90 c 128,-1,4
 152 112 152 112 152 201 c 2,5,-1
 152 1169 l 2,6,7
 152 1223 152 1223 136.5 1242.5 c 128,-1,8
 121 1262 121 1262 63 1262 c 2,9,-1
 6 1262 l 1,10,-1
 6 1325 l 1,11,-1
 360 1421 l 1,12,-1
 418 1421 l 1,13,-1
 418 201 l 2,14,15
 418 128 418 128 437 98 c 128,-1,16
 456 68 456 68 549 68 c 1,17,-1
 549 0 l 1,0,-1
EndSplineSet
EndChar
StartChar: m
Encoding: 109 109 80
Width: 1706
Flags: W
Fore
1665 0 m 1,0,-1
 1192 0 l 1,1,-1
 1192 68 l 1,2,3
 1249 68 1249 68 1264.5 90 c 128,-1,4
 1280 112 1280 112 1280 201 c 2,5,-1
 1280 633 l 2,6,7
 1280 823 1280 823 1155 823 c 0,8,9
 1093 823 1093 823 989 737 c 1,10,11
 991 682 991 682 991 655 c 2,12,-1
 991 201 l 2,13,14
 991 114 991 114 1014.5 91 c 128,-1,15
 1038 68 1038 68 1110 68 c 1,16,-1
 1110 0 l 1,17,-1
 637 0 l 1,18,-1
 637 68 l 1,19,20
 694 68 694 68 709.5 90 c 128,-1,21
 725 112 725 112 725 201 c 2,22,-1
 725 633 l 2,23,24
 725 823 725 823 600 823 c 0,25,26
 538 823 538 823 436 739 c 1,27,-1
 436 201 l 2,28,29
 436 115 436 115 460 91.5 c 128,-1,30
 484 68 484 68 555 68 c 1,31,-1
 555 0 l 1,32,-1
 41 0 l 1,33,-1
 41 68 l 1,34,35
 129 68 129 68 149.5 88.5 c 128,-1,36
 170 109 170 109 170 201 c 2,37,-1
 170 702 l 2,38,39
 170 763 170 763 151.5 784 c 128,-1,40
 133 805 133 805 82 805 c 2,41,-1
 45 805 l 1,42,-1
 45 868 l 1,43,-1
 379 965 l 1,44,-1
 436 965 l 1,45,-1
 436 829 l 1,46,47
 580 965 580 965 725 965 c 0,48,49
 900 965 900 965 977 817 c 1,50,51
 1131 965 1131 965 1280 965 c 0,52,53
 1406 965 1406 965 1476 884 c 128,-1,54
 1546 803 1546 803 1546 655 c 2,55,-1
 1546 201 l 2,56,57
 1546 114 1546 114 1569.5 91 c 128,-1,58
 1593 68 1593 68 1665 68 c 1,59,-1
 1665 0 l 1,0,-1
EndSplineSet
EndChar
StartChar: n
Encoding: 110 110 81
Width: 1139
Flags: W
Fore
1100 0 m 1,0,-1
 627 0 l 1,1,-1
 627 68 l 1,2,3
 683 68 683 68 699 90 c 128,-1,4
 715 112 715 112 715 201 c 2,5,-1
 715 633 l 2,6,7
 715 823 715 823 600 823 c 0,8,9
 538 823 538 823 436 739 c 1,10,-1
 436 201 l 2,11,12
 436 115 436 115 460 91.5 c 128,-1,13
 484 68 484 68 555 68 c 1,14,-1
 555 0 l 1,15,-1
 41 0 l 1,16,-1
 41 68 l 1,17,18
 129 68 129 68 149.5 88.5 c 128,-1,19
 170 109 170 109 170 201 c 2,20,-1
 170 702 l 2,21,22
 170 761 170 761 152 783 c 128,-1,23
 134 805 134 805 82 805 c 2,24,-1
 45 805 l 1,25,-1
 45 868 l 1,26,-1
 379 965 l 1,27,-1
 436 965 l 1,28,-1
 436 829 l 1,29,30
 580 965 580 965 725 965 c 0,31,32
 849 965 849 965 915 885.5 c 128,-1,33
 981 806 981 806 981 655 c 2,34,-1
 981 201 l 2,35,36
 981 114 981 114 1004.5 91 c 128,-1,37
 1028 68 1028 68 1100 68 c 1,38,-1
 1100 0 l 1,0,-1
EndSplineSet
EndChar
StartChar: o
Encoding: 111 111 82
Width: 1024
Flags: W
Fore
514 965 m 0,0,1
 715 965 715 965 834.5 828.5 c 128,-1,2
 954 692 954 692 954 467 c 0,3,4
 954 244 954 244 832.5 107.5 c 128,-1,5
 711 -29 711 -29 498 -29 c 0,6,7
 304 -29 304 -29 187 107.5 c 128,-1,8
 70 244 70 244 70 467 c 0,9,10
 70 691 70 691 191 828 c 128,-1,11
 312 965 312 965 514 965 c 0,0,1
526 61 m 0,12,13
 666 61 666 61 666 440 c 0,14,15
 666 648 666 648 621.5 761 c 128,-1,16
 577 874 577 874 496 874 c 0,17,18
 358 874 358 874 358 489 c 0,19,20
 358 282 358 282 401.5 171.5 c 128,-1,21
 445 61 445 61 526 61 c 0,12,13
EndSplineSet
EndChar
StartChar: p
Encoding: 112 112 83
Width: 1139
Flags: W
Fore
418 856 m 1,0,1
 547 965 547 965 664 965 c 0,2,3
 840 965 840 965 948.5 834 c 128,-1,4
 1057 703 1057 703 1057 504 c 0,5,6
 1057 264 1057 264 911.5 117.5 c 128,-1,7
 766 -29 766 -29 532 -29 c 0,8,9
 468 -29 468 -29 418 -14 c 1,10,-1
 418 -238 l 2,11,12
 418 -329 418 -329 443 -350 c 128,-1,13
 468 -371 468 -371 578 -371 c 1,14,-1
 578 -438 l 1,15,-1
 23 -438 l 1,16,-1
 23 -371 l 1,17,18
 114 -371 114 -371 133 -351 c 128,-1,19
 152 -331 152 -331 152 -238 c 2,20,-1
 152 702 l 2,21,22
 152 763 152 763 133.5 784 c 128,-1,23
 115 805 115 805 63 805 c 2,24,-1
 27 805 l 1,25,-1
 27 868 l 1,26,-1
 360 965 l 1,27,-1
 418 965 l 1,28,-1
 418 856 l 1,0,1
418 98 m 1,29,30
 461 63 461 63 528 63 c 0,31,32
 646 63 646 63 709 169 c 128,-1,33
 772 275 772 275 772 467 c 0,34,35
 772 632 772 632 718.5 727.5 c 128,-1,36
 665 823 665 823 563 823 c 0,37,38
 490 823 490 823 418 758 c 1,39,-1
 418 98 l 1,29,30
EndSplineSet
EndChar
StartChar: q
Encoding: 113 113 84
Width: 1139
Flags: W
Fore
1116 -438 m 1,0,-1
 561 -438 l 1,1,-1
 561 -371 l 1,2,3
 671 -371 671 -371 696 -350 c 128,-1,4
 721 -329 721 -329 721 -238 c 2,5,-1
 721 80 l 1,6,7
 591 -29 591 -29 469 -29 c 0,8,9
 291 -29 291 -29 180.5 102.5 c 128,-1,10
 70 234 70 234 70 432 c 0,11,12
 70 671 70 671 218 818 c 128,-1,13
 366 965 366 965 600 965 c 0,14,15
 708 965 708 965 825 915 c 1,16,-1
 932 958 l 1,17,-1
 987 958 l 1,18,-1
 987 -238 l 2,19,20
 987 -331 987 -331 1006 -351 c 128,-1,21
 1025 -371 1025 -371 1116 -371 c 1,22,-1
 1116 -438 l 1,0,-1
721 178 m 1,23,-1
 721 838 l 1,24,25
 676 872 676 872 604 872 c 0,26,27
 485 872 485 872 419.5 766.5 c 128,-1,28
 354 661 354 661 354 469 c 0,29,30
 354 315 354 315 411.5 214 c 128,-1,31
 469 113 469 113 569 113 c 0,32,33
 647 113 647 113 721 178 c 1,23,-1
EndSplineSet
EndChar
StartChar: r
Encoding: 114 114 85
Width: 909
Flags: W
Fore
436 780 m 1,0,1
 581 965 581 965 705 965 c 0,2,3
 790 965 790 965 840.5 914.5 c 128,-1,4
 891 864 891 864 891 788 c 0,5,6
 891 732 891 732 857.5 695.5 c 128,-1,7
 824 659 824 659 770 659 c 0,8,9
 725 659 725 659 667 729 c 0,10,11
 615 793 615 793 578 793 c 0,12,13
 525 793 525 793 436 680 c 1,14,-1
 436 201 l 2,15,16
 436 110 436 110 471.5 89 c 128,-1,17
 507 68 507 68 637 68 c 1,18,-1
 637 0 l 1,19,-1
 41 0 l 1,20,-1
 41 68 l 1,21,22
 129 68 129 68 149.5 88.5 c 128,-1,23
 170 109 170 109 170 201 c 2,24,-1
 170 702 l 2,25,26
 170 761 170 761 152 783 c 128,-1,27
 134 805 134 805 82 805 c 2,28,-1
 45 805 l 1,29,-1
 45 868 l 1,30,-1
 379 965 l 1,31,-1
 436 965 l 1,32,-1
 436 780 l 1,0,1
EndSplineSet
KernsSLIFO: 183 37 0 0 84 -37 0 0 82 -37 0 0 72 -37 0 0 70 -37 0 0 17 -188 0 0 16 -76 0 0 15 -188 0 0 3 -37 0 0
EndChar
StartChar: s
Encoding: 115 115 86
Width: 797
Flags: W
Fore
399 -29 m 0,0,1
 339 -29 339 -29 223 1 c 0,2,3
 177 12 177 12 168 12 c 0,4,5
 156 12 156 12 147.5 0 c 128,-1,6
 139 -12 139 -12 139 -27 c 1,7,-1
 72 -27 l 1,8,-1
 72 279 l 1,9,-1
 139 279 l 1,10,11
 160 169 160 169 222.5 111 c 128,-1,12
 285 53 285 53 379 53 c 0,13,14
 440 53 440 53 475 85 c 128,-1,15
 510 117 510 117 510 172 c 0,16,17
 510 220 510 220 480 263 c 128,-1,18
 450 306 450 306 328 373 c 0,19,20
 247 417 247 417 197 454 c 128,-1,21
 147 491 147 491 111.5 552.5 c 128,-1,22
 76 614 76 614 76 705 c 0,23,24
 76 822 76 822 163.5 893.5 c 128,-1,25
 251 965 251 965 393 965 c 0,26,27
 449 965 449 965 552 944 c 0,28,29
 590 936 590 936 598 936 c 0,30,31
 627 936 627 936 627 965 c 1,32,-1
 694 965 l 1,33,-1
 694 686 l 1,34,-1
 627 686 l 1,35,36
 605 780 605 780 548 831.5 c 128,-1,37
 491 883 491 883 418 883 c 0,38,39
 363 883 363 883 330 850 c 128,-1,40
 297 817 297 817 297 758 c 0,41,42
 297 717 297 717 325.5 680 c 128,-1,43
 354 643 354 643 472 582 c 0,44,45
 555 539 555 539 607.5 502 c 128,-1,46
 660 465 660 465 697.5 403.5 c 128,-1,47
 735 342 735 342 735 252 c 0,48,49
 735 119 735 119 645 45 c 128,-1,50
 555 -29 555 -29 399 -29 c 0,0,1
EndSplineSet
EndChar
StartChar: t
Encoding: 116 116 87
Width: 682
Flags: W
Fore
387 -29 m 0,0,1
 267 -29 267 -29 207 30.5 c 128,-1,2
 147 90 147 90 147 209 c 2,3,-1
 147 846 l 1,4,-1
 20 846 l 1,5,-1
 20 926 l 1,6,7
 140 943 140 943 222.5 1025 c 128,-1,8
 305 1107 305 1107 326 1227 c 1,9,-1
 416 1227 l 1,10,-1
 416 936 l 1,11,-1
 623 936 l 1,12,-1
 623 846 l 1,13,-1
 416 846 l 1,14,-1
 416 240 l 2,15,16
 416 179 416 179 439.5 146 c 128,-1,17
 463 113 463 113 502 113 c 0,18,19
 565 113 565 113 637 170 c 1,20,-1
 674 111 l 1,21,22
 545 -29 545 -29 387 -29 c 0,0,1
EndSplineSet
EndChar
StartChar: u
Encoding: 117 117 88
Width: 1139
Flags: W
Fore
709 106 m 1,0,1
 564 -29 564 -29 420 -29 c 0,2,3
 296 -29 296 -29 230 50.5 c 128,-1,4
 164 130 164 130 164 281 c 2,5,-1
 164 735 l 2,6,7
 164 822 164 822 140.5 845 c 128,-1,8
 117 868 117 868 45 868 c 1,9,-1
 45 936 l 1,10,-1
 430 936 l 1,11,-1
 430 303 l 2,12,13
 430 113 430 113 545 113 c 0,14,15
 606 113 606 113 709 197 c 1,16,-1
 709 735 l 2,17,18
 709 821 709 821 685 844.5 c 128,-1,19
 661 868 661 868 590 868 c 1,20,-1
 590 936 l 1,21,-1
 975 936 l 1,22,-1
 975 233 l 2,23,24
 975 174 975 174 993 152.5 c 128,-1,25
 1011 131 1011 131 1063 131 c 2,26,-1
 1120 131 l 1,27,-1
 1120 68 l 1,28,-1
 766 -29 l 1,29,-1
 709 -29 l 1,30,-1
 709 106 l 1,0,1
EndSplineSet
EndChar
StartChar: v
Encoding: 118 118 89
Width: 1024
Flags: W
Fore
467 -29 m 1,0,-1
 135 713 l 2,1,2
 93 806 93 806 67.5 837 c 128,-1,3
 42 868 42 868 0 868 c 1,4,-1
 0 936 l 1,5,-1
 451 936 l 1,6,-1
 451 868 l 1,7,8
 415 868 415 868 392 857 c 128,-1,9
 369 846 369 846 369 829 c 0,10,11
 369 790 369 790 378 768 c 2,12,-1
 584 301 l 1,13,14
 740 689 740 689 757 740.5 c 128,-1,15
 774 792 774 792 774 809 c 0,16,17
 774 868 774 868 680 868 c 1,18,-1
 680 936 l 1,19,-1
 993 936 l 1,20,-1
 993 868 l 1,21,22
 944 868 944 868 918.5 836.5 c 128,-1,23
 893 805 893 805 860 725 c 2,24,-1
 555 -29 l 1,25,-1
 467 -29 l 1,0,-1
EndSplineSet
KernsSLIFO: 17 -113 0 0 15 -113 0 0
EndChar
StartChar: w
Encoding: 119 119 90
Width: 1479
Flags: W
Fore
1458 868 m 1,0,1
 1418 868 1418 868 1387.5 842.5 c 128,-1,2
 1357 817 1357 817 1325 725 c 2,3,-1
 1061 -29 l 1,4,-1
 973 -29 l 1,5,-1
 731 588 l 1,6,-1
 514 -29 l 1,7,-1
 426 -29 l 1,8,-1
 135 713 l 2,9,10
 102 798 102 798 73.5 833 c 128,-1,11
 45 868 45 868 0 868 c 1,12,-1
 0 936 l 1,13,-1
 451 936 l 1,14,-1
 451 868 l 1,15,16
 415 868 415 868 392 857 c 128,-1,17
 369 846 369 846 369 829 c 0,18,19
 369 801 369 801 381 768 c 2,20,-1
 539 332 l 1,21,-1
 674 729 l 1,22,23
 642 800 642 800 616.5 834 c 128,-1,24
 591 868 591 868 547 868 c 1,25,-1
 547 936 l 1,26,-1
 997 936 l 1,27,-1
 997 868 l 1,28,29
 962 868 962 868 938.5 857 c 128,-1,30
 915 846 915 846 915 829 c 0,31,32
 915 798 915 798 929 763 c 2,33,-1
 1085 332 l 1,34,35
 1207 686 1207 686 1223 734.5 c 128,-1,36
 1239 783 1239 783 1239 809 c 0,37,38
 1239 868 1239 868 1145 868 c 1,39,-1
 1145 936 l 1,40,-1
 1458 936 l 1,41,-1
 1458 868 l 1,0,1
EndSplineSet
KernsSLIFO: 17 -113 0 0 15 -113 0 0
EndChar
StartChar: x
Encoding: 120 120 91
Width: 1024
Flags: W
Fore
1010 0 m 1,0,-1
 518 0 l 1,1,-1
 518 68 l 1,2,3
 552 68 552 68 576 83.5 c 128,-1,4
 600 99 600 99 600 117 c 0,5,6
 600 143 600 143 570 190 c 2,7,-1
 461 356 l 1,8,9
 289 151 289 151 289 119 c 0,10,11
 289 68 289 68 373 68 c 1,12,-1
 373 0 l 1,13,-1
 20 0 l 1,14,-1
 20 68 l 1,15,16
 58 68 58 68 104 97 c 128,-1,17
 150 126 150 126 202 189 c 2,18,-1
 409 438 l 1,19,-1
 207 750 l 2,20,21
 128 868 128 868 47 868 c 1,22,-1
 47 936 l 1,23,-1
 539 936 l 1,24,-1
 539 868 l 1,25,26
 465 868 465 868 465 829 c 0,27,28
 465 801 465 801 571 635 c 1,29,30
 663 745 663 745 676.5 773.5 c 128,-1,31
 690 802 690 802 690 819 c 0,32,33
 690 848 690 848 671 858 c 128,-1,34
 652 868 652 868 608 868 c 1,35,-1
 608 936 l 1,36,-1
 963 936 l 1,37,-1
 963 868 l 1,38,39
 933 868 933 868 870.5 824.5 c 128,-1,40
 808 781 808 781 625 553 c 1,41,42
 838 216 838 216 865.5 174 c 128,-1,43
 893 132 893 132 931.5 100 c 128,-1,44
 970 68 970 68 1010 68 c 1,45,-1
 1010 0 l 1,0,-1
EndSplineSet
EndChar
StartChar: y
Encoding: 121 121 92
Width: 1024
Flags: W
Fore
479 -18 m 1,0,-1
 152 713 l 2,1,2
 109 806 109 806 83.5 837 c 128,-1,3
 58 868 58 868 16 868 c 1,4,-1
 16 936 l 1,5,-1
 467 936 l 1,6,-1
 467 868 l 1,7,8
 431 868 431 868 408 857 c 128,-1,9
 385 846 385 846 385 829 c 0,10,11
 385 808 385 808 390.5 787 c 128,-1,12
 396 766 396 766 457 625 c 2,13,-1
 600 295 l 1,14,15
 750 675 750 675 770.5 729.5 c 128,-1,16
 791 784 791 784 791 809 c 0,17,18
 791 868 791 868 696 868 c 1,19,-1
 696 936 l 1,20,-1
 1010 936 l 1,21,-1
 1010 868 l 1,22,23
 972 868 972 868 943.5 845.5 c 128,-1,24
 915 823 915 823 877 725 c 2,25,-1
 514 -186 l 2,26,27
 462 -317 462 -317 389 -378.5 c 128,-1,28
 316 -440 316 -440 203 -440 c 0,29,30
 126 -440 126 -440 72 -398 c 128,-1,31
 18 -356 18 -356 18 -299 c 0,32,33
 18 -253 18 -253 47.5 -224 c 128,-1,34
 77 -195 77 -195 117 -195 c 0,35,36
 160 -195 160 -195 205 -231 c 0,37,38
 251 -268 251 -268 289 -268 c 0,39,40
 333 -268 333 -268 374.5 -225.5 c 128,-1,41
 416 -183 416 -183 479 -18 c 1,0,-1
EndSplineSet
KernsSLIFO: 17 -113 0 0 15 -113 0 0
EndChar
StartChar: z
Encoding: 122 122 93
Width: 909
Flags: W
Fore
854 0 m 1,0,-1
 47 0 l 1,1,-1
 47 37 l 1,2,-1
 510 854 l 1,3,-1
 371 854 l 2,4,5
 219 854 219 854 189.5 816.5 c 128,-1,6
 160 779 160 779 160 670 c 1,7,-1
 102 670 l 1,8,-1
 102 936 l 1,9,-1
 813 936 l 1,10,-1
 813 899 l 1,11,-1
 350 82 l 1,12,-1
 549 82 l 2,13,14
 656 82 656 82 703.5 92 c 128,-1,15
 751 102 751 102 774 143.5 c 128,-1,16
 797 185 797 185 797 281 c 1,17,-1
 854 281 l 1,18,-1
 854 0 l 1,0,-1
EndSplineSet
EndChar
StartChar: braceleft
Encoding: 123 123 94
Width: 807
Flags: W
Fore
770 -442 m 1,0,1
 550 -442 550 -442 418.5 -331 c 128,-1,2
 287 -220 287 -220 287 -59 c 0,3,4
 287 -8 287 -8 311 98 c 0,5,6
 330 190 330 190 330 252 c 0,7,8
 330 338 330 338 269.5 394.5 c 128,-1,9
 209 451 209 451 104 465 c 1,10,-1
 104 514 l 1,11,12
 209 528 209 528 269.5 584.5 c 128,-1,13
 330 641 330 641 330 727 c 0,14,15
 330 801 330 801 308.5 893.5 c 128,-1,16
 287 986 287 986 287 1038 c 0,17,18
 287 1199 287 1199 418.5 1310 c 128,-1,19
 550 1421 550 1421 770 1421 c 1,20,-1
 770 1354 l 1,21,22
 667 1343 667 1343 611 1285.5 c 128,-1,23
 555 1228 555 1228 555 1135 c 0,24,25
 555 1075 555 1075 575 977 c 0,26,27
 598 883 598 883 598 829 c 0,28,29
 598 713 598 713 520 624.5 c 128,-1,30
 442 536 442 536 297 489 c 1,31,32
 440 443 440 443 519 353.5 c 128,-1,33
 598 264 598 264 598 150 c 0,34,35
 598 112 598 112 575 4 c 0,36,37
 555 -81 555 -81 555 -156 c 0,38,39
 555 -249 555 -249 611 -306.5 c 128,-1,40
 667 -364 667 -364 770 -375 c 1,41,-1
 770 -442 l 1,0,1
EndSplineSet
EndChar
StartChar: bar
Encoding: 124 124 95
Width: 451
Flags: W
Fore
291 -442 m 1,0,-1
 160 -442 l 1,1,-1
 160 1421 l 1,2,-1
 291 1421 l 1,3,-1
 291 -442 l 1,0,-1
EndSplineSet
EndChar
StartChar: braceright
Encoding: 125 125 96
Width: 807
Flags: W
Fore
702 465 m 1,0,1
 598 451 598 451 537.5 394.5 c 128,-1,2
 477 338 477 338 477 252 c 0,3,4
 477 190 477 190 496 98 c 0,5,6
 520 -8 520 -8 520 -59 c 0,7,8
 520 -220 520 -220 388.5 -331 c 128,-1,9
 257 -442 257 -442 37 -442 c 1,10,-1
 37 -375 l 1,11,12
 140 -364 140 -364 196 -306.5 c 128,-1,13
 252 -249 252 -249 252 -156 c 0,14,15
 252 -81 252 -81 231 4 c 0,16,17
 209 112 209 112 209 150 c 0,18,19
 209 264 209 264 288 353.5 c 128,-1,20
 367 443 367 443 510 489 c 1,21,22
 365 536 365 536 287 624.5 c 128,-1,23
 209 713 209 713 209 829 c 0,24,25
 209 883 209 883 231 977 c 0,26,27
 252 1075 252 1075 252 1135 c 0,28,29
 252 1228 252 1228 196 1285.5 c 128,-1,30
 140 1343 140 1343 37 1354 c 1,31,-1
 37 1421 l 1,32,33
 257 1421 257 1421 388.5 1310 c 128,-1,34
 520 1199 520 1199 520 1038 c 0,35,36
 520 987 520 987 496 881 c 0,37,38
 477 788 477 788 477 727 c 0,39,40
 477 641 477 641 537.5 584.5 c 128,-1,41
 598 528 598 528 702 514 c 1,42,-1
 702 465 l 1,0,1
EndSplineSet
EndChar
StartChar: asciitilde
Encoding: 126 126 97
Width: 1065
Flags: W
Fore
1026 852 m 1,0,1
 1026 710 1026 710 950 605 c 128,-1,2
 874 500 874 500 754 500 c 0,3,4
 668 500 668 500 496 571 c 0,5,6
 333 641 333 641 266 641 c 0,7,8
 133 641 133 641 102 500 c 1,9,-1
 39 500 l 1,10,11
 39 641 39 641 115 746.5 c 128,-1,12
 191 852 191 852 311 852 c 0,13,14
 396 852 396 852 569 780 c 0,15,16
 732 711 732 711 799 711 c 0,17,18
 932 711 932 711 963 852 c 1,19,-1
 1026 852 l 1,0,1
EndSplineSet
EndChar
StartChar: Aring
Encoding: 197 197 99
Width: 1479
Flags: W
Fore
829 496 m 1,0,-1
 641 950 l 1,1,-1
 444 496 l 1,2,-1
 829 496 l 1,0,-1
1458 0 m 1,3,-1
 811 0 l 1,4,-1
 811 68 l 1,5,6
 887 70 887 70 918.5 91 c 128,-1,7
 950 112 950 112 950 160 c 0,8,9
 950 208 950 208 874 391 c 1,10,-1
 399 391 l 1,11,12
 311 187 311 187 311 147 c 0,13,14
 311 111 311 111 343.5 92 c 128,-1,15
 376 73 376 73 467 68 c 1,16,-1
 467 0 l 1,17,-1
 20 0 l 1,18,-1
 20 68 l 1,19,20
 84 72 84 72 129 108.5 c 128,-1,21
 174 145 174 145 231 274 c 2,22,-1
 688 1315 l 1,23,24
 616 1335 616 1335 573 1392 c 128,-1,25
 530 1449 530 1449 530 1520 c 0,26,27
 530 1607 530 1607 592 1669 c 128,-1,28
 654 1731 654 1731 741 1731 c 0,29,30
 829 1731 829 1731 890.5 1669 c 128,-1,31
 952 1607 952 1607 952 1520 c 0,32,33
 952 1449 952 1449 909 1392 c 128,-1,34
 866 1335 866 1335 795 1315 c 1,35,-1
 1217 311 l 2,36,37
 1255 218 1255 218 1278.5 175.5 c 128,-1,38
 1302 133 1302 133 1345.5 101.5 c 128,-1,39
 1389 70 1389 70 1458 68 c 1,40,-1
 1458 0 l 1,3,-1
741 1386 m 0,41,42
 795 1386 795 1386 834.5 1426 c 128,-1,43
 874 1466 874 1466 874 1520 c 0,44,45
 874 1573 874 1573 834.5 1613 c 128,-1,46
 795 1653 795 1653 741 1653 c 0,47,48
 688 1653 688 1653 648 1613 c 128,-1,49
 608 1573 608 1573 608 1520 c 0,50,51
 608 1466 608 1466 648 1426 c 128,-1,52
 688 1386 688 1386 741 1386 c 0,41,42
EndSplineSet
EndChar
StartChar: Ccedilla
Encoding: 199 199 100
Width: 1479
Flags: W
Fore
702 -25 m 1,0,1
 414 11 414 11 253 201 c 128,-1,2
 92 391 92 391 92 678 c 0,3,4
 92 982 92 982 290.5 1184 c 128,-1,5
 489 1386 489 1386 813 1386 c 0,6,7
 938 1386 938 1386 1122 1345 c 0,8,9
 1181 1331 1181 1331 1194 1331 c 0,10,11
 1235 1331 1235 1331 1245 1386 c 1,12,-1
 1311 1386 l 1,13,-1
 1311 934 l 1,14,-1
 1249 934 l 1,15,16
 1209 1106 1209 1106 1096 1199 c 128,-1,17
 983 1292 983 1292 821 1292 c 0,18,19
 628 1292 628 1292 519 1118 c 128,-1,20
 410 944 410 944 410 678 c 0,21,22
 410 412 410 412 541 260.5 c 128,-1,23
 672 109 672 109 901 109 c 0,24,25
 1150 109 1150 109 1341 305 c 1,26,-1
 1384 244 l 1,27,28
 1154 -31 1154 -31 811 -31 c 2,29,-1
 784 -31 l 1,30,-1
 770 -96 l 1,31,32
 810 -86 810 -86 852 -86 c 0,33,34
 923 -86 923 -86 968.5 -125.5 c 128,-1,35
 1014 -165 1014 -165 1014 -229 c 0,36,37
 1014 -406 1014 -406 705 -406 c 0,38,39
 628 -406 628 -406 559 -389 c 1,40,-1
 567 -330 l 1,41,42
 608 -342 608 -342 680 -342 c 0,43,44
 732 -342 732 -342 762.5 -316.5 c 128,-1,45
 793 -291 793 -291 793 -246 c 0,46,47
 793 -168 793 -168 717 -168 c 0,48,49
 696 -168 696 -168 670 -174 c 1,50,-1
 702 -25 l 1,0,1
EndSplineSet
EndChar
StartChar: ccedilla
Encoding: 231 231 111
Width: 909
Flags: W
Fore
406 -23 m 1,0,1
 248 7 248 7 159 139 c 128,-1,2
 70 271 70 271 70 461 c 0,3,4
 70 693 70 693 179 829 c 128,-1,5
 288 965 288 965 489 965 c 0,6,7
 639 965 639 965 730 903 c 128,-1,8
 821 841 821 841 821 750 c 0,9,10
 821 701 821 701 794.5 670 c 128,-1,11
 768 639 768 639 723 639 c 0,12,13
 672 639 672 639 635.5 667.5 c 128,-1,14
 599 696 599 696 573 772 c 0,15,16
 541 872 541 872 487 872 c 0,17,18
 426 872 426 872 390 779.5 c 128,-1,19
 354 687 354 687 354 524 c 0,20,21
 354 342 354 342 410 241.5 c 128,-1,22
 466 141 466 141 561 141 c 0,23,24
 690 141 690 141 807 279 c 1,25,-1
 862 221 l 1,26,27
 792 91 792 91 702 31.5 c 128,-1,28
 612 -28 612 -28 487 -29 c 1,29,-1
 473 -96 l 1,30,31
 513 -86 513 -86 555 -86 c 0,32,33
 626 -86 626 -86 671.5 -125.5 c 128,-1,34
 717 -165 717 -165 717 -229 c 0,35,36
 717 -406 717 -406 408 -406 c 0,37,38
 331 -406 331 -406 262 -389 c 1,39,-1
 270 -330 l 1,40,41
 311 -342 311 -342 383 -342 c 0,42,43
 435 -342 435 -342 465.5 -316.5 c 128,-1,44
 496 -291 496 -291 496 -246 c 0,45,46
 496 -168 496 -168 420 -168 c 0,47,48
 399 -168 399 -168 373 -174 c 1,49,-1
 406 -23 l 1,0,1
EndSplineSet
EndChar
StartChar: dagger
Encoding: 8224 8224 130
Width: 1024
Flags: W
Fore
543 903 m 1,0,1
 594 903 594 903 681 959 c 0,2,3
 762 1012 762 1012 807 1012 c 0,4,5
 859 1012 859 1012 897.5 972.5 c 128,-1,6
 936 933 936 933 936 877 c 0,7,8
 936 820 936 820 897.5 780.5 c 128,-1,9
 859 741 859 741 807 741 c 0,10,11
 762 741 762 741 681 794 c 0,12,13
 594 850 594 850 543 850 c 1,14,15
 543 806 543 806 600 725 c 0,16,17
 653 650 653 650 653 608 c 0,18,19
 653 581 653 581 633 518 c 0,20,21
 577 346 577 346 560 143.5 c 128,-1,22
 543 -59 543 -59 543 -260 c 2,23,-1
 543 -403 l 1,24,-1
 481 -403 l 1,25,-1
 481 -260 l 2,26,27
 481 -59 481 -59 464 143.5 c 128,-1,28
 447 346 447 346 391 518 c 0,29,30
 371 581 371 581 371 608 c 0,31,32
 371 650 371 650 424 725 c 0,33,34
 481 806 481 806 481 850 c 1,35,36
 430 850 430 850 343 794 c 0,37,38
 262 741 262 741 217 741 c 0,39,40
 165 741 165 741 126.5 780.5 c 128,-1,41
 88 820 88 820 88 877 c 0,42,43
 88 933 88 933 126.5 972.5 c 128,-1,44
 165 1012 165 1012 217 1012 c 0,45,46
 262 1012 262 1012 343 959 c 0,47,48
 430 903 430 903 481 903 c 1,49,50
 481 990 481 990 423 1106 c 0,51,52
 377 1199 377 1199 377 1253 c 0,53,54
 377 1311 377 1311 416 1348.5 c 128,-1,55
 455 1386 455 1386 512 1386 c 0,56,57
 569 1386 569 1386 608 1348.5 c 128,-1,58
 647 1311 647 1311 647 1253 c 0,59,60
 647 1199 647 1199 601 1106 c 0,61,62
 543 990 543 990 543 903 c 1,0,1
EndSplineSet
EndChar
StartChar: degree
Encoding: 176 176 131
Width: 819
Flags: W
Fore
410 1386 m 0,0,1
 544 1386 544 1386 640.5 1289.5 c 128,-1,2
 737 1193 737 1193 737 1059 c 0,3,4
 737 924 737 924 640.5 827.5 c 128,-1,5
 544 731 544 731 410 731 c 0,6,7
 275 731 275 731 178.5 827.5 c 128,-1,8
 82 924 82 924 82 1059 c 0,9,10
 82 1194 82 1194 178 1290 c 128,-1,11
 274 1386 274 1386 410 1386 c 0,0,1
410 854 m 0,12,13
 494 854 494 854 554 914.5 c 128,-1,14
 614 975 614 975 614 1059 c 0,15,16
 614 1143 614 1143 554 1203.5 c 128,-1,17
 494 1264 494 1264 410 1264 c 0,18,19
 326 1264 326 1264 265.5 1203.5 c 128,-1,20
 205 1143 205 1143 205 1059 c 0,21,22
 205 974 205 974 265 914 c 128,-1,23
 325 854 325 854 410 854 c 0,12,13
EndSplineSet
EndChar
StartChar: cent
Encoding: 162 162 132
Width: 1024
Flags: W
Fore
920 221 m 1,0,1
 804 2 804 2 608 -25 c 1,2,-1
 608 -379 l 1,3,-1
 526 -379 l 1,4,-1
 526 -29 l 1,5,6
 341 -22 341 -22 234 114.5 c 128,-1,7
 127 251 127 251 127 461 c 0,8,9
 127 682 127 682 233 818.5 c 128,-1,10
 339 955 339 955 526 965 c 1,11,-1
 526 1325 l 1,12,-1
 608 1325 l 1,13,-1
 608 961 l 1,14,15
 729 944 729 944 804 883.5 c 128,-1,16
 879 823 879 823 879 750 c 0,17,18
 879 702 879 702 852.5 670.5 c 128,-1,19
 826 639 826 639 780 639 c 0,20,21
 737 639 737 639 701.5 663.5 c 128,-1,22
 666 688 666 688 631 772 c 0,23,24
 620 800 620 800 608 821 c 1,25,-1
 608 141 l 1,26,-1
 618 141 l 2,27,28
 747 141 747 141 864 279 c 1,29,-1
 920 221 l 1,0,1
526 172 m 1,30,-1
 526 872 l 1,31,32
 412 850 412 850 412 524 c 0,33,34
 412 260 412 260 526 172 c 1,30,-1
EndSplineSet
EndChar
StartChar: sterling
Encoding: 163 163 133
Width: 1024
Flags: W
Fore
985 285 m 1,0,1
 967 144 967 144 880 56.5 c 128,-1,2
 793 -31 793 -31 670 -31 c 0,3,4
 603 -31 603 -31 472 8 c 0,5,6
 359 41 359 41 309 41 c 0,7,8
 224 41 224 41 125 -31 c 1,9,-1
 78 23 l 1,10,11
 301 215 301 215 301 401 c 0,12,13
 301 476 301 476 236 635 c 1,14,-1
 45 635 l 1,15,-1
 45 737 l 1,16,-1
 197 737 l 1,17,18
 131 903 131 903 131 1018 c 0,19,20
 131 1166 131 1166 250.5 1276 c 128,-1,21
 370 1386 370 1386 569 1386 c 0,22,23
 649 1386 649 1386 737 1358 c 0,24,25
 782 1343 782 1343 803 1343 c 0,26,27
 844 1343 844 1343 844 1386 c 1,28,-1
 911 1386 l 1,29,-1
 911 997 l 1,30,-1
 844 997 l 1,31,32
 810 1292 810 1292 606 1292 c 0,33,34
 516 1292 516 1292 466 1225 c 128,-1,35
 416 1158 416 1158 416 1044 c 0,36,37
 416 932 416 932 492 737 c 1,38,-1
 696 737 l 1,39,-1
 696 635 l 1,40,-1
 522 635 l 1,41,42
 547 545 547 545 547 489 c 0,43,44
 547 338 547 338 336 188 c 1,45,46
 396 213 396 213 473 213 c 0,47,48
 520 213 520 213 632 195 c 0,49,50
 712 182 712 182 735 182 c 0,51,52
 831 182 831 182 874.5 215.5 c 128,-1,53
 918 249 918 249 934 309 c 1,54,-1
 985 285 l 1,0,1
EndSplineSet
EndChar
StartChar: section
Encoding: 167 167 134
Width: 1024
Flags: W
Fore
305 811 m 1,0,1
 152 946 152 946 152 1083 c 0,2,3
 152 1215 152 1215 253 1300.5 c 128,-1,4
 354 1386 354 1386 502 1386 c 0,5,6
 654 1386 654 1386 753 1325.5 c 128,-1,7
 852 1265 852 1265 852 1169 c 0,8,9
 852 1071 852 1071 764 1071 c 0,10,11
 675 1071 675 1071 643 1192 c 0,12,13
 630 1241 630 1241 591 1273 c 128,-1,14
 552 1305 552 1305 502 1305 c 0,15,16
 445 1305 445 1305 413 1272 c 128,-1,17
 381 1239 381 1239 381 1180 c 0,18,19
 381 1129 381 1129 420.5 1073.5 c 128,-1,20
 460 1018 460 1018 620 903 c 0,21,22
 826 755 826 755 883 664.5 c 128,-1,23
 940 574 940 574 940 485 c 0,24,25
 940 278 940 278 711 188 c 1,26,27
 872 51 872 51 872 -88 c 0,28,29
 872 -222 872 -222 772.5 -306.5 c 128,-1,30
 673 -391 673 -391 522 -391 c 0,31,32
 359 -391 359 -391 255.5 -330.5 c 128,-1,33
 152 -270 152 -270 152 -174 c 0,34,35
 152 -132 152 -132 177.5 -104 c 128,-1,36
 203 -76 203 -76 242 -76 c 0,37,38
 328 -76 328 -76 362 -195 c 0,39,40
 396 -309 396 -309 514 -309 c 0,41,42
 643 -309 643 -309 643 -184 c 0,43,44
 643 -131 643 -131 601.5 -72.5 c 128,-1,45
 560 -14 560 -14 396 106 c 0,46,47
 194 253 194 253 139 340 c 128,-1,48
 84 427 84 427 84 510 c 0,49,50
 84 700 84 700 305 811 c 1,0,1
645 240 m 1,51,52
 680 260 680 260 698.5 290.5 c 128,-1,53
 717 321 717 321 717 387 c 0,54,55
 717 527 717 527 369 764 c 1,56,57
 307 722 307 722 307 608 c 0,58,59
 307 523 307 523 371 450 c 128,-1,60
 435 377 435 377 645 240 c 1,51,52
EndSplineSet
EndChar
StartChar: bullet
Encoding: 8226 8226 135
Width: 717
Flags: W
Fore
358 944 m 0,0,1
 468 944 468 944 546.5 866 c 128,-1,2
 625 788 625 788 625 678 c 0,3,4
 625 568 625 568 546.5 490 c 128,-1,5
 468 412 468 412 358 412 c 0,6,7
 248 412 248 412 170 490 c 128,-1,8
 92 568 92 568 92 678 c 0,9,10
 92 788 92 788 170 866 c 128,-1,11
 248 944 248 944 358 944 c 0,0,1
EndSplineSet
EndChar
StartChar: paragraph
Encoding: 182 182 136
Width: 1106
Flags: W
Fore
1102 1278 m 1,0,-1
 936 1278 l 1,1,-1
 936 -360 l 1,2,-1
 836 -360 l 1,3,-1
 836 1278 l 1,4,-1
 657 1278 l 1,5,-1
 657 -360 l 1,6,-1
 557 -360 l 1,7,-1
 557 434 l 1,8,9
 315 434 315 434 170 557 c 128,-1,10
 25 680 25 680 25 901 c 0,11,12
 25 1120 25 1120 170 1238 c 128,-1,13
 315 1356 315 1356 545 1356 c 2,14,-1
 1102 1356 l 1,15,-1
 1102 1278 l 1,0,-1
EndSplineSet
EndChar
StartChar: germandbls
Encoding: 223 223 137
Width: 1139
Flags: W
Fore
737 813 m 1,0,1
 881 782 881 782 979 665 c 128,-1,2
 1077 548 1077 548 1077 410 c 0,3,4
 1077 213 1077 213 975.5 99.5 c 128,-1,5
 874 -14 874 -14 719 -14 c 0,6,7
 618 -14 618 -14 555 30 c 128,-1,8
 492 74 492 74 492 133 c 0,9,10
 492 174 492 174 519 201.5 c 128,-1,11
 546 229 546 229 584 229 c 0,12,13
 666 229 666 229 693 145 c 0,14,15
 704 110 704 110 714.5 95 c 128,-1,16
 725 80 725 80 748 80 c 0,17,18
 788 80 788 80 799.5 161.5 c 128,-1,19
 811 243 811 243 811 385 c 0,20,21
 811 574 811 574 740.5 674 c 128,-1,22
 670 774 670 774 532 774 c 1,23,-1
 532 842 l 1,24,25
 642 842 642 842 695 902.5 c 128,-1,26
 748 963 748 963 748 1098 c 0,27,28
 748 1204 748 1204 708 1266.5 c 128,-1,29
 668 1329 668 1329 598 1329 c 0,30,31
 520 1329 520 1329 478 1247 c 128,-1,32
 436 1165 436 1165 436 1010 c 2,33,-1
 436 0 l 1,34,-1
 41 0 l 1,35,-1
 41 68 l 1,36,37
 129 68 129 68 149.5 88.5 c 128,-1,38
 170 109 170 109 170 201 c 2,39,-1
 170 967 l 2,40,41
 170 1188 170 1188 290.5 1304.5 c 128,-1,42
 411 1421 411 1421 600 1421 c 0,43,44
 778 1421 778 1421 896 1336.5 c 128,-1,45
 1014 1252 1014 1252 1014 1108 c 0,46,47
 1014 998 1014 998 942 921.5 c 128,-1,48
 870 845 870 845 737 813 c 1,0,1
EndSplineSet
EndChar
StartChar: registered
Encoding: 174 174 138
Width: 1530
Flags: W
Fore
766 1386 m 0,0,1
 1058 1386 1058 1386 1266.5 1178 c 128,-1,2
 1475 970 1475 970 1475 678 c 0,3,4
 1475 386 1475 386 1266.5 177.5 c 128,-1,5
 1058 -31 1058 -31 766 -31 c 0,6,7
 474 -31 474 -31 265.5 177.5 c 128,-1,8
 57 386 57 386 57 678 c 0,9,10
 57 970 57 970 265.5 1178 c 128,-1,11
 474 1386 474 1386 766 1386 c 0,0,1
766 57 m 0,12,13
 1021 57 1021 57 1203.5 240 c 128,-1,14
 1386 423 1386 423 1386 678 c 0,15,16
 1386 933 1386 933 1203.5 1115.5 c 128,-1,17
 1021 1298 1021 1298 766 1298 c 0,18,19
 511 1298 511 1298 328 1115.5 c 128,-1,20
 145 933 145 933 145 678 c 0,21,22
 145 423 145 423 328 240 c 128,-1,23
 511 57 511 57 766 57 c 0,12,13
1206 283 m 1,24,25
 1165 266 1165 266 1065 266 c 0,26,27
 978 266 978 266 904.5 322.5 c 128,-1,28
 831 379 831 379 723 627 c 1,29,-1
 672 627 l 1,30,-1
 672 444 l 2,31,32
 672 365 672 365 691.5 347.5 c 128,-1,33
 711 330 711 330 788 330 c 1,34,-1
 788 279 l 1,35,-1
 365 279 l 1,36,-1
 365 330 l 1,37,38
 435 330 435 330 451 348.5 c 128,-1,39
 467 367 467 367 467 444 c 2,40,-1
 467 926 l 2,41,42
 467 1004 467 1004 451.5 1022 c 128,-1,43
 436 1040 436 1040 365 1040 c 1,44,-1
 365 1092 l 1,45,-1
 750 1092 l 2,46,47
 911 1092 911 1092 1002.5 1032.5 c 128,-1,48
 1094 973 1094 973 1094 866 c 0,49,50
 1094 780 1094 780 1056 728.5 c 128,-1,51
 1018 677 1018 677 928 649 c 1,52,53
 1089 328 1089 328 1165 328 c 0,54,55
 1186 328 1186 328 1206 334 c 1,56,-1
 1206 283 l 1,24,25
672 686 m 1,57,-1
 709 686 l 2,58,59
 808 686 808 686 849.5 726.5 c 128,-1,60
 891 767 891 767 891 866 c 0,61,62
 891 945 891 945 846 985.5 c 128,-1,63
 801 1026 801 1026 731 1026 c 0,64,65
 698 1026 698 1026 672 1016 c 1,66,-1
 672 686 l 1,57,-1
EndSplineSet
EndChar
StartChar: copyright
Encoding: 169 169 139
Width: 1530
Flags: W
Fore
766 1386 m 0,0,1
 1058 1386 1058 1386 1266.5 1178 c 128,-1,2
 1475 970 1475 970 1475 678 c 0,3,4
 1475 386 1475 386 1266.5 177.5 c 128,-1,5
 1058 -31 1058 -31 766 -31 c 0,6,7
 474 -31 474 -31 265.5 177.5 c 128,-1,8
 57 386 57 386 57 678 c 0,9,10
 57 970 57 970 265.5 1178 c 128,-1,11
 474 1386 474 1386 766 1386 c 0,0,1
766 57 m 0,12,13
 1021 57 1021 57 1203.5 240 c 128,-1,14
 1386 423 1386 423 1386 678 c 0,15,16
 1386 933 1386 933 1203.5 1115.5 c 128,-1,17
 1021 1298 1021 1298 766 1298 c 0,18,19
 511 1298 511 1298 328 1115.5 c 128,-1,20
 145 933 145 933 145 678 c 0,21,22
 145 423 145 423 328 240 c 128,-1,23
 511 57 511 57 766 57 c 0,12,13
1126 432 m 1,24,25
 979 266 979 266 766 266 c 0,26,27
 584 266 584 266 462 388 c 128,-1,28
 340 510 340 510 340 692 c 0,29,30
 340 874 340 874 467 996 c 128,-1,31
 594 1118 594 1118 788 1118 c 0,32,33
 863 1118 863 1118 966 1091 c 0,34,35
 995 1083 995 1083 1001 1083 c 0,36,37
 1029 1083 1029 1083 1032 1118 c 1,38,-1
 1083 1118 l 1,39,-1
 1083 870 l 1,40,-1
 1032 870 l 1,41,42
 995 1040 995 1040 793 1040 c 0,43,44
 696 1040 696 1040 629.5 951 c 128,-1,45
 563 862 563 862 563 694 c 0,46,47
 563 534 563 534 634 446 c 128,-1,48
 705 358 705 358 813 358 c 0,49,50
 959 358 959 358 1094 483 c 1,51,-1
 1126 432 l 1,24,25
EndSplineSet
EndChar
StartChar: trademark
Encoding: 8482 8482 140
Width: 2048
Flags: W
Fore
2073 543 m 1,0,-1
 1634 543 l 1,1,-1
 1634 594 l 1,2,3
 1719 594 1719 594 1735 611.5 c 128,-1,4
 1751 629 1751 629 1751 709 c 2,5,-1
 1751 1206 l 1,6,-1
 1399 543 l 1,7,-1
 1348 543 l 1,8,-1
 1067 1188 l 1,9,-1
 1067 709 l 2,10,11
 1067 629 1067 629 1083 611.5 c 128,-1,12
 1099 594 1099 594 1184 594 c 1,13,-1
 1184 543 l 1,14,-1
 877 543 l 1,15,-1
 877 594 l 1,16,17
 961 594 961 594 977 611.5 c 128,-1,18
 993 629 993 629 993 709 c 2,19,-1
 993 1192 l 2,20,21
 993 1267 993 1267 973.5 1287 c 128,-1,22
 954 1307 954 1307 877 1307 c 1,23,-1
 877 1356 l 1,24,-1
 1217 1356 l 1,25,-1
 1454 805 l 1,26,-1
 1747 1356 l 1,27,-1
 2073 1356 l 1,28,-1
 2073 1307 l 1,29,30
 1988 1307 1988 1307 1972 1289 c 128,-1,31
 1956 1271 1956 1271 1956 1190 c 2,32,-1
 1956 709 l 2,33,34
 1956 629 1956 629 1972 611.5 c 128,-1,35
 1988 594 1988 594 2073 594 c 1,36,-1
 2073 543 l 1,0,-1
791 1120 m 1,37,-1
 739 1120 l 1,38,39
 739 1282 739 1282 618 1282 c 2,40,-1
 502 1282 l 1,41,-1
 502 709 l 2,42,43
 502 630 502 630 519.5 612 c 128,-1,44
 537 594 537 594 618 594 c 1,45,-1
 618 543 l 1,46,-1
 180 543 l 1,47,-1
 180 594 l 1,48,49
 262 594 262 594 279.5 612 c 128,-1,50
 297 630 297 630 297 709 c 2,51,-1
 297 1282 l 1,52,-1
 180 1282 l 2,53,54
 59 1282 59 1282 59 1120 c 1,55,-1
 8 1120 l 1,56,-1
 8 1356 l 1,57,-1
 791 1356 l 1,58,-1
 791 1120 l 1,37,-1
EndSplineSet
Ligature: 0 3 'liga' T M
EndChar
StartChar: acute
Encoding: 180 180 141
Width: 682
Flags: W
Fore
594 1348 m 1,0,-1
 301 1051 l 1,1,-1
 205 1051 l 1,2,-1
 309 1348 l 1,3,-1
 594 1348 l 1,0,-1
EndSplineSet
EndChar
StartChar: dieresis
Encoding: 168 168 142
Width: 682
Flags: W
Fore
528 1341 m 0,0,1
 583 1341 583 1341 622.5 1302 c 128,-1,2
 662 1263 662 1263 662 1208 c 0,3,4
 662 1153 662 1153 623 1114 c 128,-1,5
 584 1075 584 1075 528 1075 c 0,6,7
 473 1075 473 1075 434 1114 c 128,-1,8
 395 1153 395 1153 395 1208 c 0,9,10
 395 1264 395 1264 434 1302.5 c 128,-1,11
 473 1341 473 1341 528 1341 c 0,0,1
154 1341 m 0,12,13
 209 1341 209 1341 248 1302 c 128,-1,14
 287 1263 287 1263 287 1208 c 0,15,16
 287 1153 287 1153 248 1114 c 128,-1,17
 209 1075 209 1075 154 1075 c 0,18,19
 99 1075 99 1075 59.5 1114 c 128,-1,20
 20 1153 20 1153 20 1208 c 0,21,22
 20 1263 20 1263 59.5 1302 c 128,-1,23
 99 1341 99 1341 154 1341 c 0,12,13
EndSplineSet
EndChar
StartChar: notequal
Encoding: 8800 8800 143
Width: 1124
Flags: W
Fore
1087 289 m 1,0,-1
 485 289 l 1,1,-1
 322 0 l 1,2,-1
 211 0 l 1,3,-1
 377 289 l 1,4,-1
 37 289 l 1,5,-1
 37 385 l 1,6,-1
 430 385 l 1,7,-1
 588 664 l 1,8,-1
 37 664 l 1,9,-1
 37 760 l 1,10,-1
 641 760 l 1,11,-1
 805 1051 l 1,12,-1
 913 1051 l 1,13,-1
 750 760 l 1,14,-1
 1087 760 l 1,15,-1
 1087 664 l 1,16,-1
 696 664 l 1,17,-1
 541 385 l 1,18,-1
 1087 385 l 1,19,-1
 1087 289 l 1,0,-1
EndSplineSet
EndChar
StartChar: AE
Encoding: 198 198 144
Width: 2048
Flags: W
Fore
1944 0 m 1,0,-1
 729 0 l 1,1,-1
 729 68 l 1,2,3
 839 68 839 68 874.5 81 c 128,-1,4
 910 94 910 94 923 126 c 128,-1,5
 936 158 936 158 936 260 c 2,6,-1
 936 424 l 1,7,-1
 438 424 l 1,8,9
 329 245 329 245 313 205 c 128,-1,10
 297 165 297 165 297 147 c 0,11,12
 297 110 297 110 327 91.5 c 128,-1,13
 357 73 357 73 444 68 c 1,14,-1
 444 0 l 1,15,-1
 -20 0 l 1,16,-1
 -20 68 l 1,17,18
 32 71 32 71 86.5 106.5 c 128,-1,19
 141 142 141 142 221 274 c 2,20,-1
 725 1106 l 2,21,22
 770 1178 770 1178 770 1229 c 0,23,24
 770 1264 770 1264 730 1276 c 128,-1,25
 690 1288 690 1288 602 1288 c 1,26,-1
 602 1356 l 1,27,-1
 1890 1356 l 1,28,-1
 1890 1020 l 1,29,-1
 1821 1020 l 1,30,31
 1821 1154 1821 1154 1778 1202.5 c 128,-1,32
 1735 1251 1735 1251 1563 1251 c 2,33,-1
 1223 1251 l 1,34,-1
 1223 762 l 1,35,-1
 1466 762 l 2,36,37
 1559 762 1559 762 1594.5 771 c 128,-1,38
 1630 780 1630 780 1644.5 817 c 128,-1,39
 1659 854 1659 854 1659 946 c 1,40,-1
 1726 946 l 1,41,-1
 1726 471 l 1,42,-1
 1659 471 l 1,43,44
 1659 564 1659 564 1645.5 601 c 128,-1,45
 1632 638 1632 638 1595.5 647.5 c 128,-1,46
 1559 657 1559 657 1466 657 c 2,47,-1
 1223 657 l 1,48,-1
 1223 207 l 2,49,50
 1223 147 1223 147 1244 125.5 c 128,-1,51
 1265 104 1265 104 1333 104 c 2,52,-1
 1606 104 l 2,53,54
 1876 104 1876 104 1876 391 c 1,55,-1
 1944 391 l 1,56,-1
 1944 0 l 1,0,-1
936 528 m 1,57,-1
 936 1251 l 1,58,-1
 500 528 l 1,59,-1
 936 528 l 1,57,-1
EndSplineSet
EndChar
StartChar: Oslash
Encoding: 216 216 145
Width: 1593
Flags: W
Fore
1303 1194 m 1,0,1
 1501 996 1501 996 1501 678 c 0,2,3
 1501 365 1501 365 1310 167 c 128,-1,4
 1119 -31 1119 -31 797 -31 c 0,5,6
 540 -31 540 -31 352 106 c 1,7,-1
 197 -72 l 1,8,-1
 135 -16 l 1,9,-1
 289 162 l 1,10,11
 92 361 92 361 92 678 c 0,12,13
 92 990 92 990 284 1188 c 128,-1,14
 476 1386 476 1386 797 1386 c 0,15,16
 1054 1386 1054 1386 1241 1249 c 1,17,-1
 1397 1427 l 1,18,-1
 1458 1372 l 1,19,-1
 1303 1194 l 1,0,1
1104 1092 m 1,20,21
 1004 1290 1004 1290 797 1290 c 0,22,23
 609 1290 609 1290 509.5 1126 c 128,-1,24
 410 962 410 962 410 678 c 0,25,26
 410 486 410 486 455 350 c 1,27,-1
 1104 1092 l 1,20,21
489 264 m 1,28,29
 590 66 590 66 797 66 c 0,30,31
 984 66 984 66 1084 230 c 128,-1,32
 1184 394 1184 394 1184 678 c 0,33,34
 1184 870 1184 870 1139 1006 c 1,35,-1
 489 264 l 1,28,29
EndSplineSet
EndChar
StartChar: infinity
Encoding: 8734 8734 146
Width: 1460
Flags: W
Fore
1407 526 m 0,0,1
 1407 340 1407 340 1292 219 c 0,2,3
 1242 166 1242 166 1180.5 136 c 128,-1,4
 1119 106 1119 106 1057 106 c 0,5,6
 997 106 997 106 945 131 c 128,-1,7
 893 156 893 156 843.5 211 c 128,-1,8
 794 266 794 266 745 350 c 2,9,-1
 721 393 l 1,10,11
 677 310 677 310 630.5 258.5 c 128,-1,12
 584 207 584 207 527.5 183.5 c 128,-1,13
 471 160 471 160 397 160 c 0,14,15
 297 160 297 160 219.5 207 c 128,-1,16
 142 254 142 254 97.5 339 c 128,-1,17
 53 424 53 424 53 528 c 0,18,19
 53 630 53 630 93.5 714.5 c 128,-1,20
 134 799 134 799 204 847 c 128,-1,21
 274 895 274 895 360 895 c 0,22,23
 472 895 472 895 543 827 c 0,24,25
 597 773 597 773 653 668 c 1,26,27
 701 776 701 776 748 834 c 0,28,29
 843 944 843 944 1024 944 c 0,30,31
 1096 944 1096 944 1152 924.5 c 128,-1,32
 1208 905 1208 905 1262 860 c 0,33,34
 1407 736 1407 736 1407 526 c 0,0,1
1350 526 m 0,35,36
 1350 616 1350 616 1312 695.5 c 128,-1,37
 1274 775 1274 775 1208 820.5 c 128,-1,38
 1142 866 1142 866 1067 866 c 0,39,40
 963 866 963 866 895 782 c 0,41,42
 866 746 866 746 840.5 690 c 128,-1,43
 815 634 815 634 762 494 c 2,44,-1
 750 465 l 1,45,46
 799 364 799 364 843 308.5 c 128,-1,47
 887 253 887 253 940.5 227 c 128,-1,48
 994 201 994 201 1061 201 c 0,49,50
 1144 201 1144 201 1210 242.5 c 128,-1,51
 1276 284 1276 284 1313 358 c 128,-1,52
 1350 432 1350 432 1350 526 c 0,35,36
625 590 m 1,53,54
 587 670 587 670 550 715 c 128,-1,55
 513 760 513 760 465.5 782.5 c 128,-1,56
 418 805 418 805 358 805 c 0,57,58
 284 805 284 805 228 770 c 128,-1,59
 172 735 172 735 140.5 673 c 128,-1,60
 109 611 109 611 109 530 c 0,61,62
 109 451 109 451 139.5 383 c 128,-1,63
 170 315 170 315 222.5 276.5 c 128,-1,64
 275 238 275 238 338 238 c 0,65,66
 398 238 398 238 453 274.5 c 128,-1,67
 508 311 508 311 537 367 c 0,68,69
 576 444 576 444 614 557 c 2,70,-1
 625 590 l 1,53,54
EndSplineSet
EndChar
StartChar: plusminus
Encoding: 177 177 147
Width: 1124
Flags: W
Fore
1109 131 m 1,0,-1
 16 131 l 1,1,-1
 16 262 l 1,2,-1
 497 262 l 1,3,-1
 497 612 l 1,4,-1
 16 612 l 1,5,-1
 16 743 l 1,6,-1
 497 743 l 1,7,-1
 497 1225 l 1,8,-1
 628 1225 l 1,9,-1
 628 743 l 1,10,-1
 1109 743 l 1,11,-1
 1109 612 l 1,12,-1
 628 612 l 1,13,-1
 628 262 l 1,14,-1
 1109 262 l 1,15,-1
 1109 131 l 1,0,-1
EndSplineSet
EndChar
StartChar: lessequal
Encoding: 8804 8804 148
Width: 1124
Flags: W
Fore
1065 221 m 1,0,-1
 59 719 l 1,1,-1
 59 770 l 1,2,-1
 1065 1272 l 1,3,-1
 1065 1161 l 1,4,-1
 223 745 l 1,5,-1
 1065 328 l 1,6,-1
 1065 221 l 1,0,-1
1065 0 m 1,7,-1
 59 0 l 1,8,-1
 59 96 l 1,9,-1
 1065 96 l 1,10,-1
 1065 0 l 1,7,-1
EndSplineSet
EndChar
StartChar: greaterequal
Encoding: 8805 8805 149
Width: 1124
Flags: W
Fore
1065 723 m 1,0,-1
 59 221 l 1,1,-1
 59 332 l 1,2,-1
 901 748 l 1,3,-1
 59 1165 l 1,4,-1
 59 1272 l 1,5,-1
 1065 774 l 1,6,-1
 1065 723 l 1,0,-1
1065 0 m 1,7,-1
 59 0 l 1,8,-1
 59 96 l 1,9,-1
 1065 96 l 1,10,-1
 1065 0 l 1,7,-1
EndSplineSet
EndChar
StartChar: yen
Encoding: 165 165 150
Width: 1024
Flags: W
Fore
1024 1288 m 1,0,1
 970 1287 970 1287 922 1168 c 2,2,-1
 721 670 l 1,3,-1
 979 670 l 1,4,-1
 979 578 l 1,5,-1
 684 578 l 1,6,-1
 657 510 l 1,7,-1
 657 414 l 1,8,-1
 979 414 l 1,9,-1
 979 322 l 1,10,-1
 657 322 l 1,11,-1
 657 260 l 2,12,13
 657 167 657 167 669.5 130 c 128,-1,14
 682 93 682 93 722.5 80.5 c 128,-1,15
 763 68 763 68 864 68 c 1,16,-1
 864 0 l 1,17,-1
 164 0 l 1,18,-1
 164 68 l 1,19,20
 274 68 274 68 309.5 81 c 128,-1,21
 345 94 345 94 358 126 c 128,-1,22
 371 158 371 158 371 260 c 2,23,-1
 371 322 l 1,24,-1
 49 322 l 1,25,-1
 49 414 l 1,26,-1
 371 414 l 1,27,-1
 371 494 l 1,28,-1
 338 578 l 1,29,-1
 49 578 l 1,30,-1
 49 670 l 1,31,-1
 303 670 l 1,32,-1
 130 1126 l 2,33,34
 100 1207 100 1207 69.5 1247.5 c 128,-1,35
 39 1288 39 1288 0 1288 c 1,36,-1
 0 1356 l 1,37,-1
 518 1356 l 1,38,-1
 518 1288 l 1,39,40
 414 1282 414 1282 414 1227 c 0,41,42
 414 1185 414 1185 446 1100 c 2,43,-1
 606 670 l 1,44,-1
 779 1104 l 2,45,46
 793 1138 793 1138 800 1163.5 c 128,-1,47
 807 1189 807 1189 807 1214 c 0,48,49
 807 1253 807 1253 787.5 1268.5 c 128,-1,50
 768 1284 768 1284 711 1288 c 1,51,-1
 711 1356 l 1,52,-1
 1024 1356 l 1,53,-1
 1024 1288 l 1,0,1
EndSplineSet
EndChar
StartChar: uni00B5
Encoding: 181 181 151
Width: 1180
Flags: W
Fore
1140 68 m 1,0,-1
 786 -29 l 1,1,-1
 729 -29 l 1,2,-1
 729 106 l 1,3,4
 584 -29 584 -29 440 -29 c 0,5,6
 342 -29 342 -29 280 20 c 1,7,8
 280 -47 280 -47 319 -188 c 0,9,10
 344 -280 344 -280 344 -311 c 0,11,12
 344 -367 344 -367 309.5 -404.5 c 128,-1,13
 275 -442 275 -442 221 -442 c 0,14,15
 168 -442 168 -442 138 -410 c 128,-1,16
 108 -378 108 -378 108 -322 c 0,17,18
 108 -287 108 -287 136 -180 c 0,19,20
 184 6 184 6 184 111 c 2,21,-1
 184 735 l 2,22,23
 184 822 184 822 160.5 845 c 128,-1,24
 137 868 137 868 65 868 c 1,25,-1
 65 936 l 1,26,-1
 450 936 l 1,27,-1
 450 303 l 2,28,29
 450 113 450 113 565 113 c 0,30,31
 626 113 626 113 729 197 c 1,32,-1
 729 735 l 2,33,34
 729 821 729 821 705 844.5 c 128,-1,35
 681 868 681 868 610 868 c 1,36,-1
 610 936 l 1,37,-1
 995 936 l 1,38,-1
 995 233 l 2,39,40
 995 174 995 174 1013 152.5 c 128,-1,41
 1031 131 1031 131 1083 131 c 2,42,-1
 1140 131 l 1,43,-1
 1140 68 l 1,0,-1
EndSplineSet
EndChar
StartChar: partialdiff
Encoding: 8706 8706 152
Width: 1012
Flags: W
Fore
995 920 m 0,0,1
 995 780 995 780 967 639 c 128,-1,2
 939 498 939 498 885.5 375.5 c 128,-1,3
 832 253 832 253 758 156 c 0,4,5
 615 -31 615 -31 403 -31 c 0,6,7
 249 -31 249 -31 157.5 60.5 c 128,-1,8
 66 152 66 152 66 305 c 0,9,10
 66 462 66 462 142.5 601.5 c 128,-1,11
 219 741 219 741 346 824 c 128,-1,12
 473 907 473 907 616 907 c 0,13,14
 722 907 722 907 805 856 c 0,15,16
 849 829 849 829 877 798 c 128,-1,17
 905 767 905 767 928 717 c 1,18,-1
 932 717 l 1,19,20
 942 864 942 864 942 903 c 0,21,22
 942 1020 942 1020 900.5 1105 c 128,-1,23
 859 1190 859 1190 780.5 1235 c 128,-1,24
 702 1280 702 1280 596 1280 c 0,25,26
 496 1280 496 1280 424.5 1242.5 c 128,-1,27
 353 1205 353 1205 295 1120 c 1,28,-1
 250 1120 l 1,29,30
 285 1194 285 1194 311.5 1236 c 128,-1,31
 338 1278 338 1278 375 1315 c 0,32,33
 424 1366 424 1366 492 1394.5 c 128,-1,34
 560 1423 560 1423 629 1423 c 0,35,36
 676 1423 676 1423 723 1409.5 c 128,-1,37
 770 1396 770 1396 811 1370 c 128,-1,38
 852 1344 852 1344 881 1311 c 0,39,40
 995 1181 995 1181 995 920 c 0,0,1
911 629 m 1,41,42
 875 734 875 734 800 794 c 128,-1,43
 725 854 725 854 627 854 c 0,44,45
 546 854 546 854 469.5 805 c 128,-1,46
 393 756 393 756 348 678 c 0,47,48
 315 621 315 621 288 546 c 128,-1,49
 261 471 261 471 247 399.5 c 128,-1,50
 233 328 233 328 233 264 c 0,51,52
 233 156 233 156 286.5 91.5 c 128,-1,53
 340 27 340 27 430 27 c 0,54,55
 502 27 502 27 582 76.5 c 128,-1,56
 662 126 662 126 729 213 c 0,57,58
 799 306 799 306 841 401.5 c 128,-1,59
 883 497 883 497 911 629 c 1,41,42
EndSplineSet
EndChar
StartChar: summation
Encoding: 8721 8721 153
Width: 1460
Flags: W
Fore
1419 212 m 1,0,-1
 1356 -204 l 1,1,-1
 43 -204 l 1,2,-1
 43 -167 l 1,3,-1
 713 664 l 1,4,-1
 43 1478 l 1,5,-1
 43 1517 l 1,6,-1
 1321 1517 l 1,7,-1
 1348 1179 l 1,8,-1
 1309 1179 l 1,9,10
 1293 1312 1293 1312 1233 1373.5 c 128,-1,11
 1173 1435 1173 1435 1059 1435 c 2,12,-1
 319 1435 l 1,13,-1
 881 750 l 1,14,-1
 252 -28 l 1,15,-1
 1071 -28 l 2,16,17
 1125 -28 1125 -28 1185.5 -11 c 128,-1,18
 1246 6 1246 6 1276 28 c 0,19,20
 1312 53 1312 53 1336.5 99 c 128,-1,21
 1361 145 1361 145 1380 220 c 1,22,-1
 1419 212 l 1,0,-1
EndSplineSet
EndChar
StartChar: product
Encoding: 8719 8719 154
Width: 1686
Flags: W
Fore
1640 -204 m 1,0,-1
 1042 -204 l 1,1,-1
 1042 -167 l 1,2,-1
 1077 -167 l 2,3,4
 1164 -167 1164 -167 1202.5 -129.5 c 128,-1,5
 1241 -92 1241 -92 1241 -11 c 2,6,-1
 1241 1439 l 1,7,-1
 444 1439 l 1,8,-1
 444 -11 l 2,9,10
 444 -90 444 -90 483.5 -128.5 c 128,-1,11
 523 -167 523 -167 606 -167 c 2,12,-1
 643 -167 l 1,13,-1
 643 -204 l 1,14,-1
 45 -204 l 1,15,-1
 45 -167 l 1,16,-1
 80 -167 l 2,17,18
 167 -167 167 -167 205.5 -129.5 c 128,-1,19
 244 -92 244 -92 244 -11 c 2,20,-1
 244 1324 l 2,21,22
 244 1407 244 1407 205.5 1443.5 c 128,-1,23
 167 1480 167 1480 80 1480 c 2,24,-1
 45 1480 l 1,25,-1
 45 1517 l 1,26,-1
 1640 1517 l 1,27,-1
 1640 1480 l 1,28,-1
 1606 1480 l 2,29,30
 1521 1480 1521 1480 1481.5 1443.5 c 128,-1,31
 1442 1407 1442 1407 1442 1324 c 2,32,-1
 1442 -11 l 2,33,34
 1442 -92 1442 -92 1481.5 -129.5 c 128,-1,35
 1521 -167 1521 -167 1606 -167 c 2,36,-1
 1640 -167 l 1,37,-1
 1640 -204 l 1,0,-1
EndSplineSet
EndChar
StartChar: glyph155
Encoding: 65539 -1 155
Width: 1124
Flags: W
Fore
1049 258 m 1,0,1
 1042 197 1042 197 1030.5 153.5 c 128,-1,2
 1019 110 1019 110 999 74 c 0,3,4
 975 26 975 26 932.5 -2.5 c 128,-1,5
 890 -31 890 -31 842 -31 c 0,6,7
 807 -31 807 -31 772.5 -14.5 c 128,-1,8
 738 2 738 2 719 29 c 0,9,10
 687 73 687 73 673 136.5 c 128,-1,11
 659 200 659 200 659 305 c 0,12,13
 659 367 659 367 666 463 c 0,14,15
 669 490 669 490 671 515.5 c 128,-1,16
 673 541 673 541 680 614 c 0,17,18
 682 632 682 632 685.5 662 c 128,-1,19
 689 692 689 692 692 717 c 2,20,-1
 698 770 l 1,21,-1
 438 770 l 1,22,-1
 434 709 l 2,23,24
 417 415 417 415 394.5 259 c 128,-1,25
 372 103 372 103 336 36 c 128,-1,26
 300 -31 300 -31 242 -31 c 0,27,28
 208 -31 208 -31 183 -6 c 128,-1,29
 158 19 158 19 158 53 c 0,30,31
 158 80 158 80 170 105 c 128,-1,32
 182 130 182 130 213 172 c 0,33,34
 259 231 259 231 281.5 285 c 128,-1,35
 304 339 304 339 319 428 c 0,36,37
 334 513 334 513 341.5 588.5 c 128,-1,38
 349 664 349 664 354 770 c 1,39,-1
 309 770 l 2,40,41
 259 770 259 770 235 763.5 c 128,-1,42
 211 757 211 757 184 737 c 0,43,44
 138 701 138 701 94 627 c 1,45,-1
 55 627 l 1,46,47
 107 787 107 787 171.5 851 c 128,-1,48
 236 915 236 915 346 915 c 2,49,-1
 1049 915 l 1,50,-1
 1049 770 l 1,51,-1
 807 770 l 1,52,53
 790 661 790 661 781 547.5 c 128,-1,54
 772 434 772 434 772 332 c 0,55,56
 772 239 772 239 805 190 c 128,-1,57
 838 141 838 141 897 141 c 0,58,59
 994 141 994 141 1014 258 c 1,60,-1
 1049 258 l 1,0,1
EndSplineSet
EndChar
StartChar: integral
Encoding: 8747 8747 156
Width: 561
Flags: W
Fore
561 1755 m 0,0,1
 561 1726 561 1726 548.5 1702 c 128,-1,2
 536 1678 536 1678 514.5 1665.5 c 128,-1,3
 493 1653 493 1653 467 1653 c 0,4,5
 431 1653 431 1653 391 1688 c 0,6,7
 371 1708 371 1708 352 1708 c 0,8,9
 311 1708 311 1708 311 1645 c 0,10,11
 311 1599 311 1599 322 1499 c 0,12,13
 340 1295 340 1295 349 1128 c 128,-1,14
 358 961 358 961 358 834 c 2,15,-1
 356 713 l 1,16,-1
 342 242 l 2,17,18
 336 52 336 52 293 -78 c 0,19,20
 271 -145 271 -145 225 -182 c 128,-1,21
 179 -219 179 -219 119 -219 c 0,22,23
 65 -219 65 -219 32.5 -185.5 c 128,-1,24
 0 -152 0 -152 0 -98 c 0,25,26
 0 -54 0 -54 25 -27 c 128,-1,27
 50 0 50 0 90 0 c 0,28,29
 132 0 132 0 160 -33 c 0,30,31
 173 -47 173 -47 184 -55 c 128,-1,32
 195 -63 195 -63 209 -63 c 0,33,34
 248 -63 248 -63 248 -2 c 0,35,36
 248 35 248 35 238 117 c 0,37,38
 218 287 218 287 209 512 c 0,39,40
 206 616 206 616 203 741 c 0,41,42
 201 811 201 811 201 895 c 2,43,-1
 217 1448 l 2,44,45
 223 1639 223 1639 283 1765 c 0,46,47
 302 1805 302 1805 346.5 1834.5 c 128,-1,48
 391 1864 391 1864 434 1864 c 0,49,50
 465 1864 465 1864 495.5 1849 c 128,-1,51
 526 1834 526 1834 543.5 1808 c 128,-1,52
 561 1782 561 1782 561 1755 c 0,0,1
EndSplineSet
EndChar
StartChar: ordfeminine
Encoding: 170 170 157
Width: 614
Flags: W
Fore
625 870 m 1,0,1
 565 786 565 786 451 786 c 0,2,3
 408 786 408 786 374 812.5 c 128,-1,4
 340 839 340 839 332 877 c 1,5,6
 281 786 281 786 162 786 c 0,7,8
 91 786 91 786 47.5 828.5 c 128,-1,9
 4 871 4 871 4 938 c 0,10,11
 4 1016 4 1016 80 1068.5 c 128,-1,12
 156 1121 156 1121 330 1163 c 1,13,14
 330 1325 330 1325 250 1325 c 0,15,16
 223 1325 223 1325 204.5 1312.5 c 128,-1,17
 186 1300 186 1300 174 1255 c 0,18,19
 158 1186 158 1186 86 1186 c 0,20,21
 58 1186 58 1186 39 1207 c 128,-1,22
 20 1228 20 1228 20 1255 c 0,23,24
 20 1305 20 1305 86.5 1344.5 c 128,-1,25
 153 1384 153 1384 272 1384 c 0,26,27
 398 1384 398 1384 462 1336.5 c 128,-1,28
 526 1289 526 1289 526 1208 c 2,29,-1
 526 936 l 2,30,31
 526 881 526 881 553 881 c 0,32,33
 578 881 578 881 602 901 c 1,34,-1
 625 870 l 1,0,1
330 940 m 1,35,-1
 330 1096 l 1,36,37
 205 1063 205 1063 205 956 c 0,38,39
 205 924 205 924 221.5 908.5 c 128,-1,40
 238 893 238 893 258 893 c 0,41,42
 296 893 296 893 330 940 c 1,35,-1
EndSplineSet
EndChar
StartChar: ordmasculine
Encoding: 186 186 158
Width: 676
Flags: W
Fore
338 1384 m 0,0,1
 468 1384 468 1384 550.5 1298.5 c 128,-1,2
 633 1213 633 1213 633 1092 c 0,3,4
 633 954 633 954 550.5 870 c 128,-1,5
 468 786 468 786 328 786 c 0,6,7
 207 786 207 786 125 872 c 128,-1,8
 43 958 43 958 43 1079 c 0,9,10
 43 1214 43 1214 122.5 1299 c 128,-1,11
 202 1384 202 1384 338 1384 c 0,0,1
356 848 m 0,12,13
 424 848 424 848 424 1053 c 0,14,15
 424 1175 424 1175 397 1249 c 128,-1,16
 370 1323 370 1323 319 1323 c 0,17,18
 252 1323 252 1323 252 1114 c 0,19,20
 252 994 252 994 278.5 921 c 128,-1,21
 305 848 305 848 356 848 c 0,12,13
EndSplineSet
EndChar
StartChar: uni2126
Encoding: 8486 8486 159
Width: 1573
Flags: W
Fore
1518 0 m 1,0,-1
 950 0 l 1,1,-1
 973 279 l 1,2,3
 1070 318 1070 318 1131 381 c 128,-1,4
 1192 444 1192 444 1220.5 535.5 c 128,-1,5
 1249 627 1249 627 1249 754 c 0,6,7
 1249 1013 1249 1013 1126 1159 c 0,8,9
 1062 1235 1062 1235 974 1276 c 128,-1,10
 886 1317 886 1317 782 1317 c 0,11,12
 680 1317 680 1317 595 1277.5 c 128,-1,13
 510 1238 510 1238 448 1165 c 128,-1,14
 386 1092 386 1092 352.5 990 c 128,-1,15
 319 888 319 888 319 768 c 0,16,17
 319 635 319 635 357 525.5 c 128,-1,18
 395 416 395 416 463 354 c 0,19,20
 494 326 494 326 520 311.5 c 128,-1,21
 546 297 546 297 596 279 c 1,22,-1
 618 0 l 1,23,-1
 55 0 l 1,24,-1
 55 279 l 1,25,-1
 90 279 l 1,26,27
 93 218 93 218 121 197 c 0,28,29
 147 177 147 177 176.5 169.5 c 128,-1,30
 206 162 206 162 260 162 c 2,31,-1
 530 162 l 1,32,-1
 530 231 l 1,33,34
 393 271 393 271 293.5 349.5 c 128,-1,35
 194 428 194 428 143 539.5 c 128,-1,36
 92 651 92 651 92 788 c 0,37,38
 92 918 92 918 142.5 1029 c 128,-1,39
 193 1140 193 1140 285 1220 c 128,-1,40
 377 1300 377 1300 503.5 1343 c 128,-1,41
 630 1386 630 1386 782 1386 c 0,42,43
 936 1386 936 1386 1065.5 1342.5 c 128,-1,44
 1195 1299 1195 1299 1286.5 1221 c 128,-1,45
 1378 1143 1378 1143 1429.5 1031.5 c 128,-1,46
 1481 920 1481 920 1481 788 c 0,47,48
 1481 651 1481 651 1426.5 535 c 128,-1,49
 1372 419 1372 419 1272 339.5 c 128,-1,50
 1172 260 1172 260 1042 231 c 1,51,-1
 1034 162 l 1,52,-1
 1309 162 l 2,53,54
 1397 162 1397 162 1434 186.5 c 128,-1,55
 1471 211 1471 211 1479 279 c 1,56,-1
 1518 279 l 1,57,-1
 1518 0 l 1,0,-1
EndSplineSet
EndChar
StartChar: ae
Encoding: 230 230 160
Width: 1479
Flags: W
Fore
1432 221 m 1,0,1
 1303 -29 1303 -29 1038 -29 c 0,2,3
 817 -29 817 -29 692 172 c 1,4,5
 608 63 608 63 516 17 c 128,-1,6
 424 -29 424 -29 301 -29 c 0,7,8
 196 -29 196 -29 133 39.5 c 128,-1,9
 70 108 70 108 70 219 c 0,10,11
 70 359 70 359 187 439 c 128,-1,12
 304 519 304 519 618 582 c 1,13,14
 618 733 618 733 577 802.5 c 128,-1,15
 536 872 536 872 446 872 c 0,16,17
 355 872 355 872 322 743 c 0,18,19
 292 637 292 637 197 637 c 0,20,21
 90 637 90 637 90 745 c 0,22,23
 90 834 90 834 198 899.5 c 128,-1,24
 306 965 306 965 485 965 c 0,25,26
 687 965 687 965 786 868 c 1,27,28
 894 965 894 965 1030 965 c 0,29,30
 1204 965 1204 965 1310.5 833.5 c 128,-1,31
 1417 702 1417 702 1417 481 c 1,32,-1
 885 481 l 1,33,34
 885 327 885 327 948.5 234 c 128,-1,35
 1012 141 1012 141 1118 141 c 0,36,37
 1264 141 1264 141 1376 279 c 1,38,-1
 1432 221 l 1,0,1
1141 573 m 1,39,40
 1141 701 1141 701 1106.5 786.5 c 128,-1,41
 1072 872 1072 872 1016 872 c 0,42,43
 964 872 964 872 927 790 c 128,-1,44
 890 708 890 708 887 573 c 1,45,-1
 1141 573 l 1,39,40
647 272 m 1,46,47
 618 359 618 359 618 461 c 2,48,-1
 618 492 l 1,49,50
 338 433 338 433 338 274 c 0,51,52
 338 211 338 211 368.5 177 c 128,-1,53
 399 143 399 143 444 143 c 0,54,55
 488 143 488 143 550 179.5 c 128,-1,56
 612 216 612 216 647 272 c 1,46,47
EndSplineSet
EndChar
StartChar: oslash
Encoding: 248 248 161
Width: 1024
Flags: W
Fore
989 950 m 1,0,-1
 858 801 l 1,1,2
 954 665 954 665 954 467 c 0,3,4
 954 244 954 244 832.5 107.5 c 128,-1,5
 711 -29 711 -29 498 -29 c 0,6,7
 330 -29 330 -29 217 74 c 1,8,-1
 96 -63 l 1,9,-1
 35 -14 l 1,10,-1
 166 133 l 1,11,12
 70 264 70 264 70 467 c 0,13,14
 70 691 70 691 191 828 c 128,-1,15
 312 965 312 965 514 965 c 0,16,17
 686 965 686 965 805 860 c 1,18,-1
 928 999 l 1,19,-1
 989 950 l 1,0,-1
645 678 m 1,20,21
 605 874 605 874 496 874 c 0,22,23
 358 874 358 874 358 489 c 0,24,25
 358 438 358 438 362 358 c 1,26,-1
 645 678 l 1,20,21
377 256 m 1,27,28
 416 61 416 61 526 61 c 0,29,30
 666 61 666 61 666 440 c 0,31,32
 666 514 666 514 659 575 c 1,33,-1
 377 256 l 1,27,28
EndSplineSet
EndChar
StartChar: questiondown
Encoding: 191 191 162
Width: 1024
Flags: W
Fore
627 973 m 0,0,1
 695 973 695 973 744 924.5 c 128,-1,2
 793 876 793 876 793 807 c 0,3,4
 793 738 793 738 744.5 689.5 c 128,-1,5
 696 641 696 641 627 641 c 0,6,7
 558 641 558 641 509.5 689.5 c 128,-1,8
 461 738 461 738 461 807 c 0,9,10
 461 876 461 876 509.5 924.5 c 128,-1,11
 558 973 558 973 627 973 c 0,0,1
674 227 m 1,12,13
 488 179 488 179 410 117.5 c 128,-1,14
 332 56 332 56 332 -41 c 0,15,16
 332 -150 332 -150 395 -217.5 c 128,-1,17
 458 -285 458 -285 569 -285 c 0,18,19
 630 -285 630 -285 704 -221 c 0,20,21
 771 -164 771 -164 819 -164 c 0,22,23
 865 -164 865 -164 896.5 -196.5 c 128,-1,24
 928 -229 928 -229 928 -281 c 0,25,26
 928 -351 928 -351 856.5 -396.5 c 128,-1,27
 785 -442 785 -442 666 -442 c 0,28,29
 546 -442 546 -442 409 -362 c 128,-1,30
 272 -282 272 -282 184 -159 c 128,-1,31
 96 -36 96 -36 96 78 c 0,32,33
 96 205 96 205 217 301.5 c 128,-1,34
 338 398 338 398 604 473 c 1,35,-1
 604 563 l 1,36,-1
 674 563 l 1,37,-1
 674 227 l 1,12,13
EndSplineSet
EndChar
StartChar: exclamdown
Encoding: 161 161 163
Width: 682
Flags: W
Fore
340 973 m 0,0,1
 409 973 409 973 457.5 924.5 c 128,-1,2
 506 876 506 876 506 807 c 0,3,4
 506 738 506 738 457.5 689.5 c 128,-1,5
 409 641 409 641 340 641 c 0,6,7
 271 641 271 641 222.5 689.5 c 128,-1,8
 174 738 174 738 174 807 c 0,9,10
 174 876 174 876 222.5 924.5 c 128,-1,11
 271 973 271 973 340 973 c 0,0,1
373 504 m 1,12,13
 373 422 373 422 387.5 317 c 128,-1,14
 402 212 402 212 455 7 c 0,15,16
 508 -199 508 -199 508 -272 c 0,17,18
 508 -347 508 -347 461 -394.5 c 128,-1,19
 414 -442 414 -442 340 -442 c 0,20,21
 266 -442 266 -442 219 -394.5 c 128,-1,22
 172 -347 172 -347 172 -272 c 0,23,24
 172 -198 172 -198 226 15 c 0,25,26
 307 335 307 335 307 504 c 1,27,-1
 373 504 l 1,12,13
EndSplineSet
EndChar
StartChar: logicalnot
Encoding: 172 172 164
Width: 1167
Flags: W
Fore
1130 453 m 1,0,-1
 999 453 l 1,1,-1
 999 776 l 1,2,-1
 37 776 l 1,3,-1
 37 907 l 1,4,-1
 1130 907 l 1,5,-1
 1130 453 l 1,0,-1
EndSplineSet
EndChar
StartChar: radical
Encoding: 8730 8730 165
Width: 1124
Flags: W
Fore
1124 1870 m 1,0,-1
 813 -78 l 1,1,-1
 317 944 l 1,2,-1
 119 852 l 1,3,-1
 84 915 l 1,4,-1
 385 1067 l 1,5,-1
 788 244 l 1,6,-1
 793 244 l 1,7,-1
 1051 1870 l 1,8,-1
 1124 1870 l 1,0,-1
EndSplineSet
EndChar
StartChar: florin
Encoding: 402 402 166
Width: 1024
Flags: W
Fore
451 936 m 1,0,1
 488 1089 488 1089 505.5 1135 c 128,-1,2
 523 1181 523 1181 564 1236 c 128,-1,3
 605 1291 605 1291 661 1333 c 128,-1,4
 717 1375 717 1375 787 1398 c 128,-1,5
 857 1421 857 1421 936 1421 c 0,6,7
 1054 1421 1054 1421 1142.5 1364 c 128,-1,8
 1231 1307 1231 1307 1231 1225 c 0,9,10
 1231 1172 1231 1172 1202 1141 c 128,-1,11
 1173 1110 1173 1110 1124 1110 c 0,12,13
 1021 1110 1021 1110 993 1239 c 0,14,15
 973 1329 973 1329 909 1329 c 0,16,17
 866 1329 866 1329 828 1282 c 128,-1,18
 790 1235 790 1235 723 936 c 1,19,-1
 909 936 l 1,20,-1
 887 842 l 1,21,-1
 700 842 l 1,22,-1
 548 202 l 2,23,24
 499 -4 499 -4 418.5 -142.5 c 128,-1,25
 338 -281 338 -281 238 -351.5 c 128,-1,26
 138 -422 138 -422 31 -422 c 0,27,28
 -96 -422 -96 -422 -176 -368 c 128,-1,29
 -256 -314 -256 -314 -256 -240 c 0,30,31
 -256 -191 -256 -191 -226.5 -160 c 128,-1,32
 -197 -129 -197 -129 -154 -129 c 0,33,34
 -58 -129 -58 -129 -16 -244 c 0,35,36
 17 -330 17 -330 70 -330 c 0,37,38
 116 -330 116 -330 145 -276 c 128,-1,39
 174 -222 174 -222 219 -33 c 2,40,-1
 428 842 l 1,41,-1
 262 842 l 1,42,-1
 285 936 l 1,43,-1
 451 936 l 1,0,1
EndSplineSet
EndChar
StartChar: approxequal
Encoding: 8776 8776 167
Width: 1124
Flags: W
Fore
1073 874 m 1,0,1
 1053 722 1053 722 979.5 637.5 c 128,-1,2
 906 553 906 553 791 553 c 0,3,4
 735 553 735 553 667.5 579.5 c 128,-1,5
 600 606 600 606 487 670 c 0,6,7
 347 748 347 748 276 748 c 0,8,9
 204 748 204 748 157.5 698.5 c 128,-1,10
 111 649 111 649 98 561 c 1,11,-1
 51 561 l 1,12,13
 71 712 71 712 144 797.5 c 128,-1,14
 217 883 217 883 326 883 c 0,15,16
 374 883 374 883 449 858 c 0,17,18
 505 837 505 837 657 756 c 0,19,20
 775 694 775 694 850 694 c 0,21,22
 891 694 891 694 918.5 707.5 c 128,-1,23
 946 721 946 721 973 754 c 0,24,25
 1012 801 1012 801 1022 874 c 1,26,-1
 1073 874 l 1,0,1
1073 487 m 1,27,28
 1053 335 1053 335 979.5 250.5 c 128,-1,29
 906 166 906 166 791 166 c 0,30,31
 735 166 735 166 670 191 c 128,-1,32
 605 216 605 216 487 281 c 0,33,34
 416 323 416 323 366 341.5 c 128,-1,35
 316 360 316 360 276 360 c 0,36,37
 204 360 204 360 157.5 311 c 128,-1,38
 111 262 111 262 98 174 c 1,39,-1
 51 174 l 1,40,41
 63 272 63 272 100 344.5 c 128,-1,42
 137 417 137 417 195 455.5 c 128,-1,43
 253 494 253 494 326 494 c 0,44,45
 374 494 374 494 449 469 c 0,46,47
 501 453 501 453 657 369 c 0,48,49
 775 307 775 307 850 307 c 0,50,51
 891 307 891 307 918.5 320.5 c 128,-1,52
 946 334 946 334 973 367 c 0,53,54
 1012 414 1012 414 1022 487 c 1,55,-1
 1073 487 l 1,27,28
EndSplineSet
EndChar
StartChar: uni2206
Encoding: 8710 8710 168
Width: 1253
Flags: W
Fore
1227 0 m 1,0,-1
 27 0 l 1,1,-1
 655 1386 l 1,2,-1
 1227 0 l 1,0,-1
991 82 m 1,3,-1
 592 1049 l 1,4,-1
 152 82 l 1,5,-1
 991 82 l 1,3,-1
EndSplineSet
EndChar
StartChar: guillemotleft
Encoding: 171 171 169
Width: 1024
Flags: W
Fore
987 0 m 1,0,-1
 893 0 l 1,1,-1
 485 469 l 1,2,-1
 893 938 l 1,3,-1
 987 938 l 1,4,-1
 739 469 l 1,5,-1
 987 0 l 1,0,-1
543 0 m 1,6,-1
 449 0 l 1,7,-1
 41 469 l 1,8,-1
 449 938 l 1,9,-1
 543 938 l 1,10,-1
 295 469 l 1,11,-1
 543 0 l 1,6,-1
EndSplineSet
EndChar
StartChar: guillemotright
Encoding: 187 187 170
Width: 1024
Flags: W
Fore
983 469 m 1,0,-1
 575 0 l 1,1,-1
 481 0 l 1,2,-1
 729 469 l 1,3,-1
 481 938 l 1,4,-1
 575 938 l 1,5,-1
 983 469 l 1,0,-1
539 469 m 1,6,-1
 131 0 l 1,7,-1
 37 0 l 1,8,-1
 285 469 l 1,9,-1
 37 938 l 1,10,-1
 131 938 l 1,11,-1
 539 469 l 1,6,-1
EndSplineSet
EndChar
StartChar: ellipsis
Encoding: 8230 8230 171
Width: 2048
Flags: W
Fore
1706 301 m 0,0,1
 1775 301 1775 301 1823.5 252.5 c 128,-1,2
 1872 204 1872 204 1872 135 c 0,3,4
 1872 66 1872 66 1823.5 17.5 c 128,-1,5
 1775 -31 1775 -31 1706 -31 c 0,6,7
 1637 -31 1637 -31 1588.5 17.5 c 128,-1,8
 1540 66 1540 66 1540 135 c 0,9,10
 1540 204 1540 204 1588.5 252.5 c 128,-1,11
 1637 301 1637 301 1706 301 c 0,0,1
1024 301 m 0,12,13
 1093 301 1093 301 1141.5 252.5 c 128,-1,14
 1190 204 1190 204 1190 135 c 0,15,16
 1190 66 1190 66 1141.5 17.5 c 128,-1,17
 1093 -31 1093 -31 1024 -31 c 0,18,19
 955 -31 955 -31 906.5 17.5 c 128,-1,20
 858 66 858 66 858 135 c 0,21,22
 858 204 858 204 906.5 252.5 c 128,-1,23
 955 301 955 301 1024 301 c 0,12,13
342 301 m 0,24,25
 411 301 411 301 459.5 252.5 c 128,-1,26
 508 204 508 204 508 135 c 0,27,28
 508 66 508 66 459.5 17.5 c 128,-1,29
 411 -31 411 -31 342 -31 c 0,30,31
 273 -31 273 -31 224.5 17.5 c 128,-1,32
 176 66 176 66 176 135 c 0,33,34
 176 204 176 204 224.5 252.5 c 128,-1,35
 273 301 273 301 342 301 c 0,24,25
EndSplineSet
Ligature: 0 3 'liga' period period period
EndChar
StartChar: OE
Encoding: 338 338 176
Width: 2048
Flags: W
Fore
1944 0 m 1,0,-1
 1141 0 l 2,1,2
 1104 0 1104 0 997 -13 c 0,3,4
 858 -31 858 -31 797 -31 c 0,5,6
 480 -31 480 -31 286 166.5 c 128,-1,7
 92 364 92 364 92 678 c 0,8,9
 92 992 92 992 286 1189 c 128,-1,10
 480 1386 480 1386 797 1386 c 0,11,12
 858 1386 858 1386 997 1369 c 0,13,14
 1104 1356 1104 1356 1141 1356 c 2,15,-1
 1890 1356 l 1,16,-1
 1890 1020 l 1,17,-1
 1821 1020 l 1,18,19
 1821 1154 1821 1154 1778 1202.5 c 128,-1,20
 1735 1251 1735 1251 1563 1251 c 2,21,-1
 1264 1251 l 1,22,-1
 1264 762 l 1,23,-1
 1466 762 l 2,24,25
 1559 762 1559 762 1594.5 771 c 128,-1,26
 1630 780 1630 780 1644.5 817 c 128,-1,27
 1659 854 1659 854 1659 946 c 1,28,-1
 1726 946 l 1,29,-1
 1726 471 l 1,30,-1
 1659 471 l 1,31,32
 1659 564 1659 564 1645.5 601 c 128,-1,33
 1632 638 1632 638 1595.5 647.5 c 128,-1,34
 1559 657 1559 657 1466 657 c 2,35,-1
 1264 657 l 1,36,-1
 1264 207 l 2,37,38
 1264 147 1264 147 1285 125.5 c 128,-1,39
 1306 104 1306 104 1374 104 c 2,40,-1
 1606 104 l 2,41,42
 1876 104 1876 104 1876 391 c 1,43,-1
 1944 391 l 1,44,-1
 1944 0 l 1,0,-1
977 260 m 2,45,-1
 977 1096 l 2,46,47
 977 1191 977 1191 938 1240.5 c 128,-1,48
 899 1290 899 1290 797 1290 c 0,49,50
 609 1290 609 1290 509.5 1126 c 128,-1,51
 410 962 410 962 410 678 c 0,52,53
 410 394 410 394 509.5 230 c 128,-1,54
 609 66 609 66 797 66 c 0,55,56
 899 66 899 66 938 115.5 c 128,-1,57
 977 165 977 165 977 260 c 2,45,-1
EndSplineSet
EndChar
StartChar: oe
Encoding: 339 339 177
Width: 1479
Flags: W
Fore
1432 221 m 1,0,1
 1305 -29 1305 -29 1049 -29 c 0,2,3
 891 -29 891 -29 791 84 c 1,4,5
 683 -29 683 -29 494 -29 c 0,6,7
 300 -29 300 -29 185 107 c 128,-1,8
 70 243 70 243 70 467 c 0,9,10
 70 692 70 692 189.5 828.5 c 128,-1,11
 309 965 309 965 510 965 c 0,12,13
 687 965 687 965 795 854 c 1,14,15
 887 965 887 965 1040 965 c 0,16,17
 1213 965 1213 965 1315 834.5 c 128,-1,18
 1417 704 1417 704 1417 481 c 1,19,-1
 920 481 l 1,20,21
 920 334 920 334 979.5 237.5 c 128,-1,22
 1039 141 1039 141 1124 141 c 0,23,24
 1265 141 1265 141 1376 279 c 1,25,-1
 1432 221 l 1,0,1
524 61 m 0,26,27
 662 61 662 61 662 440 c 0,28,29
 662 642 662 642 619.5 758 c 128,-1,30
 577 874 577 874 494 874 c 0,31,32
 358 874 358 874 358 489 c 0,33,34
 358 61 358 61 524 61 c 0,26,27
1141 573 m 1,35,36
 1141 706 1141 706 1108 789 c 128,-1,37
 1075 872 1075 872 1022 872 c 0,38,39
 978 872 978 872 951 793 c 128,-1,40
 924 714 924 714 922 573 c 1,41,-1
 1141 573 l 1,35,36
EndSplineSet
EndChar
StartChar: endash
Encoding: 8211 8211 178
Width: 1024
Flags: W
Fore
1040 412 m 1,0,-1
 -16 412 l 1,1,-1
 -16 535 l 1,2,-1
 1040 535 l 1,3,-1
 1040 412 l 1,0,-1
EndSplineSet
EndChar
StartChar: emdash
Encoding: 8212 8212 179
Width: 2048
Flags: W
Fore
2064 412 m 1,0,-1
 -16 412 l 1,1,-1
 -16 535 l 1,2,-1
 2064 535 l 1,3,-1
 2064 412 l 1,0,-1
EndSplineSet
EndChar
StartChar: quotedblleft
Encoding: 8220 8220 180
Width: 1024
Flags: W
Fore
895 1319 m 1,0,1
 814 1294 814 1294 762.5 1233.5 c 128,-1,2
 711 1173 711 1173 711 1112 c 0,3,4
 711 1042 711 1042 807 1024 c 0,5,6
 860 1013 860 1013 898 972 c 128,-1,7
 936 931 936 931 936 874 c 0,8,9
 936 811 936 811 889.5 767 c 128,-1,10
 843 723 843 723 776 723 c 0,11,12
 680 723 680 723 623.5 805.5 c 128,-1,13
 567 888 567 888 567 1006 c 0,14,15
 567 1133 567 1133 653.5 1238 c 128,-1,16
 740 1343 740 1343 895 1386 c 1,17,-1
 895 1319 l 1,0,1
418 1319 m 1,18,19
 336 1294 336 1294 284.5 1233.5 c 128,-1,20
 233 1173 233 1173 233 1112 c 0,21,22
 233 1042 233 1042 330 1024 c 0,23,24
 383 1013 383 1013 421 972 c 128,-1,25
 459 931 459 931 459 874 c 0,26,27
 459 811 459 811 412.5 767 c 128,-1,28
 366 723 366 723 299 723 c 0,29,30
 203 723 203 723 146.5 805.5 c 128,-1,31
 90 888 90 888 90 1006 c 0,32,33
 90 1133 90 1133 176.5 1238 c 128,-1,34
 263 1343 263 1343 418 1386 c 1,35,-1
 418 1319 l 1,18,19
EndSplineSet
EndChar
StartChar: quotedblright
Encoding: 8221 8221 181
Width: 1024
Flags: W
Fore
606 791 m 1,0,1
 688 816 688 816 739.5 876 c 128,-1,2
 791 936 791 936 791 997 c 0,3,4
 791 1068 791 1068 694 1085 c 0,5,6
 641 1096 641 1096 603 1137.5 c 128,-1,7
 565 1179 565 1179 565 1235 c 0,8,9
 565 1298 565 1298 611.5 1342 c 128,-1,10
 658 1386 658 1386 725 1386 c 0,11,12
 821 1386 821 1386 877.5 1303.5 c 128,-1,13
 934 1221 934 1221 934 1104 c 0,14,15
 934 977 934 977 847.5 872 c 128,-1,16
 761 767 761 767 606 723 c 1,17,-1
 606 791 l 1,0,1
129 791 m 1,18,19
 210 816 210 816 261.5 876 c 128,-1,20
 313 936 313 936 313 997 c 0,21,22
 313 1068 313 1068 217 1085 c 0,23,24
 164 1096 164 1096 126 1137.5 c 128,-1,25
 88 1179 88 1179 88 1235 c 0,26,27
 88 1298 88 1298 134.5 1342 c 128,-1,28
 181 1386 181 1386 248 1386 c 0,29,30
 344 1386 344 1386 400.5 1303.5 c 128,-1,31
 457 1221 457 1221 457 1104 c 0,32,33
 457 977 457 977 370.5 872 c 128,-1,34
 284 767 284 767 129 723 c 1,35,-1
 129 791 l 1,18,19
EndSplineSet
EndChar
StartChar: quoteleft
Encoding: 8216 8216 182
Width: 682
Flags: W
Fore
485 1319 m 1,0,1
 404 1294 404 1294 352.5 1233.5 c 128,-1,2
 301 1173 301 1173 301 1112 c 0,3,4
 301 1042 301 1042 397 1024 c 0,5,6
 451 1013 451 1013 488.5 972 c 128,-1,7
 526 931 526 931 526 874 c 0,8,9
 526 812 526 812 480 767.5 c 128,-1,10
 434 723 434 723 367 723 c 0,11,12
 270 723 270 723 214 805.5 c 128,-1,13
 158 888 158 888 158 1006 c 0,14,15
 158 1133 158 1133 244.5 1238 c 128,-1,16
 331 1343 331 1343 485 1386 c 1,17,-1
 485 1319 l 1,0,1
EndSplineSet
KernsSLIFO: 182 -152 0 0
EndChar
StartChar: quoteright
Encoding: 8217 8217 183
Width: 682
Flags: W
Fore
197 791 m 1,0,1
 278 816 278 816 329.5 876 c 128,-1,2
 381 936 381 936 381 997 c 0,3,4
 381 1068 381 1068 285 1085 c 0,5,6
 231 1096 231 1096 193.5 1137.5 c 128,-1,7
 156 1179 156 1179 156 1235 c 0,8,9
 156 1298 156 1298 202 1342 c 128,-1,10
 248 1386 248 1386 315 1386 c 0,11,12
 412 1386 412 1386 468 1303.5 c 128,-1,13
 524 1221 524 1221 524 1104 c 0,14,15
 524 977 524 977 437.5 872 c 128,-1,16
 351 767 351 767 197 723 c 1,17,-1
 197 791 l 1,0,1
EndSplineSet
KernsSLIFO: 183 -152 0 0 86 -76 0 0 3 -152 0 0
EndChar
StartChar: divide
Encoding: 247 247 184
Width: 1124
Flags: W
Fore
563 1110 m 0,0,1
 605 1110 605 1110 635 1080 c 128,-1,2
 665 1050 665 1050 665 1008 c 0,3,4
 665 965 665 965 635 935 c 128,-1,5
 605 905 605 905 563 905 c 0,6,7
 520 905 520 905 490 935 c 128,-1,8
 460 965 460 965 460 1008 c 0,9,10
 460 1051 460 1051 490 1080.5 c 128,-1,11
 520 1110 520 1110 563 1110 c 0,0,1
1109 612 m 1,12,-1
 16 612 l 1,13,-1
 16 743 l 1,14,-1
 1109 743 l 1,15,-1
 1109 612 l 1,12,-1
563 451 m 0,16,17
 605 451 605 451 635 421 c 128,-1,18
 665 391 665 391 665 348 c 0,19,20
 665 305 665 305 635 275.5 c 128,-1,21
 605 246 605 246 563 246 c 0,22,23
 520 246 520 246 490 275.5 c 128,-1,24
 460 305 460 305 460 348 c 0,25,26
 460 391 460 391 490 421 c 128,-1,27
 520 451 520 451 563 451 c 0,16,17
EndSplineSet
EndChar
StartChar: lozenge
Encoding: 9674 9674 185
Width: 1012
Flags: W
Fore
967 709 m 1,0,-1
 549 0 l 1,1,-1
 438 0 l 1,2,-1
 47 709 l 1,3,-1
 438 1423 l 1,4,-1
 549 1423 l 1,5,-1
 967 709 l 1,0,-1
854 709 m 1,6,-1
 496 1325 l 1,7,-1
 156 709 l 1,8,-1
 496 94 l 1,9,-1
 854 709 l 1,6,-1
EndSplineSet
EndChar
StartChar: fraction
Encoding: 8725 8725 188
Width: 342
Flags: W
Fore
702 1386 m 1,0,-1
 -231 -31 l 1,1,-1
 -362 -31 l 1,2,-1
 571 1386 l 1,3,-1
 702 1386 l 1,0,-1
EndSplineSet
EndChar
StartChar: Euro
Encoding: 8364 8364 189
Width: 1024
Flags: W
Fore
406 737 m 1,0,1
 403 717 403 717 403 670 c 2,2,-1
 403 653 l 1,3,-1
 827 653 l 1,4,-1
 805 575 l 1,5,-1
 406 575 l 1,6,7
 412 313 412 313 470.5 189.5 c 128,-1,8
 529 66 529 66 649 66 c 0,9,10
 741 66 741 66 810.5 123 c 128,-1,11
 880 180 880 180 944 299 c 1,12,-1
 991 264 l 1,13,14
 912 115 912 115 820 43 c 128,-1,15
 728 -29 728 -29 590 -29 c 0,16,17
 384 -29 384 -29 254 127.5 c 128,-1,18
 124 284 124 284 102 575 c 1,19,-1
 4 575 l 1,20,-1
 27 653 l 1,21,-1
 100 653 l 1,22,-1
 100 670 l 2,23,24
 100 716 100 716 102 737 c 1,25,-1
 4 737 l 1,26,-1
 27 815 l 1,27,-1
 111 815 l 1,28,29
 150 1080 150 1080 306 1232 c 128,-1,30
 462 1384 462 1384 666 1384 c 0,31,32
 750 1384 750 1384 813 1364.5 c 128,-1,33
 876 1345 876 1345 965 1296 c 1,34,-1
 965 997 l 1,35,-1
 897 997 l 1,36,37
 872 1303 872 1303 686 1303 c 0,38,39
 571 1303 571 1303 498.5 1178 c 128,-1,40
 426 1053 426 1053 408 815 c 1,41,-1
 872 815 l 1,42,-1
 850 737 l 1,43,-1
 406 737 l 1,0,1
EndSplineSet
EndChar
StartChar: guilsinglleft
Encoding: 8249 8249 190
Width: 682
Flags: W
Fore
594 0 m 1,0,-1
 500 0 l 1,1,-1
 92 469 l 1,2,-1
 500 938 l 1,3,-1
 594 938 l 1,4,-1
 346 469 l 1,5,-1
 594 0 l 1,0,-1
EndSplineSet
EndChar
StartChar: guilsinglright
Encoding: 8250 8250 191
Width: 682
Flags: W
Fore
592 469 m 1,0,-1
 184 0 l 1,1,-1
 90 0 l 1,2,-1
 338 469 l 1,3,-1
 90 938 l 1,4,-1
 184 938 l 1,5,-1
 592 469 l 1,0,-1
EndSplineSet
EndChar
StartChar: fi
Encoding: 64257 64257 192
Width: 1139
Flags: W
Fore
565 0 m 1,0,-1
 39 0 l 1,1,-1
 39 68 l 1,2,3
 128 68 128 68 148 90 c 128,-1,4
 168 112 168 112 168 201 c 2,5,-1
 168 842 l 1,6,-1
 -10 842 l 1,7,-1
 -10 936 l 1,8,-1
 168 936 l 1,9,-1
 168 1008 l 2,10,11
 168 1204 168 1204 286 1312.5 c 128,-1,12
 404 1421 404 1421 610 1421 c 0,13,14
 750 1421 750 1421 851 1361 c 128,-1,15
 952 1301 952 1301 952 1217 c 0,16,17
 952 1170 952 1170 925.5 1143 c 128,-1,18
 899 1116 899 1116 852 1116 c 0,19,20
 811 1116 811 1116 777 1137 c 128,-1,21
 743 1158 743 1158 707 1239 c 0,22,23
 690 1278 690 1278 657 1303.5 c 128,-1,24
 624 1329 624 1329 588 1329 c 0,25,26
 518 1329 518 1329 476 1258.5 c 128,-1,27
 434 1188 434 1188 434 1081 c 2,28,-1
 434 936 l 1,29,-1
 1004 936 l 1,30,-1
 1004 201 l 2,31,32
 1004 115 1004 115 1027.5 91.5 c 128,-1,33
 1051 68 1051 68 1122 68 c 1,34,-1
 1122 0 l 1,35,-1
 608 0 l 1,36,-1
 608 68 l 1,37,38
 696 68 696 68 716.5 88.5 c 128,-1,39
 737 109 737 109 737 201 c 2,40,-1
 737 739 l 2,41,42
 737 800 737 800 718.5 821 c 128,-1,43
 700 842 700 842 649 842 c 2,44,-1
 434 842 l 1,45,-1
 434 201 l 2,46,47
 434 116 434 116 460.5 92 c 128,-1,48
 487 68 487 68 565 68 c 1,49,-1
 565 0 l 1,0,-1
EndSplineSet
Ligature: 0 0 'liga' f i
EndChar
StartChar: fl
Encoding: 64258 64258 193
Width: 1139
Flags: W
Fore
565 0 m 1,0,-1
 39 0 l 1,1,-1
 39 68 l 1,2,3
 128 68 128 68 148 90 c 128,-1,4
 168 112 168 112 168 201 c 2,5,-1
 168 842 l 1,6,-1
 -10 842 l 1,7,-1
 -10 936 l 1,8,-1
 168 936 l 1,9,-1
 168 1008 l 2,10,11
 168 1207 168 1207 277.5 1314 c 128,-1,12
 387 1421 387 1421 590 1421 c 0,13,14
 716 1421 716 1421 801 1380 c 1,15,-1
 946 1421 l 1,16,-1
 1004 1421 l 1,17,-1
 1004 201 l 2,18,19
 1004 116 1004 116 1030 92 c 128,-1,20
 1056 68 1056 68 1135 68 c 1,21,-1
 1135 0 l 1,22,-1
 608 0 l 1,23,-1
 608 68 l 1,24,25
 698 68 698 68 717.5 90 c 128,-1,26
 737 112 737 112 737 201 c 2,27,-1
 737 1149 l 1,28,29
 686 1196 686 1196 666 1239 c 0,30,31
 626 1329 626 1329 567 1329 c 0,32,33
 434 1329 434 1329 434 1081 c 2,34,-1
 434 936 l 1,35,-1
 670 936 l 1,36,-1
 670 842 l 1,37,-1
 434 842 l 1,38,-1
 434 201 l 2,39,40
 434 116 434 116 460.5 92 c 128,-1,41
 487 68 487 68 565 68 c 1,42,-1
 565 0 l 1,0,-1
EndSplineSet
Ligature: 0 0 'liga' f l
EndChar
StartChar: daggerdbl
Encoding: 8225 8225 194
Width: 1024
Flags: W
Fore
543 53 m 1,0,1
 594 53 594 53 681 109 c 0,2,3
 762 162 762 162 807 162 c 0,4,5
 859 162 859 162 897.5 122.5 c 128,-1,6
 936 83 936 83 936 27 c 0,7,8
 936 -31 936 -31 897.5 -70 c 128,-1,9
 859 -109 859 -109 807 -109 c 0,10,11
 762 -109 762 -109 681 -56 c 0,12,13
 594 0 594 0 543 0 c 1,14,15
 543 -75 543 -75 599 -170 c 0,16,17
 647 -253 647 -253 647 -309 c 0,18,19
 647 -367 647 -367 608 -404.5 c 128,-1,20
 569 -442 569 -442 512 -442 c 0,21,22
 455 -442 455 -442 416 -404.5 c 128,-1,23
 377 -367 377 -367 377 -309 c 0,24,25
 377 -253 377 -253 425 -170 c 0,26,27
 481 -75 481 -75 481 0 c 1,28,29
 430 0 430 0 343 -56 c 0,30,31
 262 -109 262 -109 217 -109 c 0,32,33
 165 -109 165 -109 126.5 -69.5 c 128,-1,34
 88 -30 88 -30 88 27 c 0,35,36
 88 84 88 84 126.5 123 c 128,-1,37
 165 162 165 162 217 162 c 0,38,39
 262 162 262 162 343 109 c 0,40,41
 430 53 430 53 481 53 c 1,42,43
 481 100 481 100 435 161 c 0,44,45
 391 217 391 217 391 258 c 0,46,47
 391 299 391 299 435 355 c 0,48,49
 481 416 481 416 481 463 c 2,50,-1
 481 481 l 2,51,52
 481 528 481 528 435 589 c 0,53,54
 391 645 391 645 391 686 c 0,55,56
 391 727 391 727 435 783 c 0,57,58
 481 844 481 844 481 891 c 1,59,60
 430 891 430 891 343 835 c 0,61,62
 262 782 262 782 217 782 c 0,63,64
 165 782 165 782 126.5 821.5 c 128,-1,65
 88 861 88 861 88 918 c 0,66,67
 88 974 88 974 126.5 1013.5 c 128,-1,68
 165 1053 165 1053 217 1053 c 0,69,70
 262 1053 262 1053 343 1000 c 0,71,72
 430 944 430 944 481 944 c 1,73,74
 481 1019 481 1019 425 1114 c 0,75,76
 377 1197 377 1197 377 1253 c 0,77,78
 377 1311 377 1311 416 1348.5 c 128,-1,79
 455 1386 455 1386 512 1386 c 0,80,81
 569 1386 569 1386 608 1348.5 c 128,-1,82
 647 1311 647 1311 647 1253 c 0,83,84
 647 1197 647 1197 599 1114 c 0,85,86
 543 1019 543 1019 543 944 c 1,87,88
 594 944 594 944 681 1000 c 0,89,90
 762 1053 762 1053 807 1053 c 0,91,92
 859 1053 859 1053 897.5 1013.5 c 128,-1,93
 936 974 936 974 936 918 c 0,94,95
 936 861 936 861 897.5 821.5 c 128,-1,96
 859 782 859 782 807 782 c 0,97,98
 762 782 762 782 681 835 c 0,99,100
 594 891 594 891 543 891 c 1,101,102
 543 844 543 844 589 783 c 0,103,104
 633 727 633 727 633 686 c 0,105,106
 633 645 633 645 589 589 c 0,107,108
 543 528 543 528 543 481 c 2,109,-1
 543 463 l 2,110,111
 543 416 543 416 589 355 c 0,112,113
 633 299 633 299 633 258 c 0,114,115
 633 217 633 217 589 161 c 0,116,117
 543 100 543 100 543 53 c 1,0,1
EndSplineSet
EndChar
StartChar: periodcentered
Encoding: 8729 8729 195
Width: 512
Flags: W
Fore
256 842 m 0,0,1
 325 842 325 842 373.5 793.5 c 128,-1,2
 422 745 422 745 422 676 c 0,3,4
 422 607 422 607 373.5 558.5 c 128,-1,5
 325 510 325 510 256 510 c 0,6,7
 187 510 187 510 138.5 558.5 c 128,-1,8
 90 607 90 607 90 676 c 0,9,10
 90 745 90 745 138.5 793.5 c 128,-1,11
 187 842 187 842 256 842 c 0,0,1
EndSplineSet
EndChar
StartChar: quotesinglbase
Encoding: 8218 8218 196
Width: 682
Flags: W
Fore
197 -295 m 1,0,1
 278 -270 278 -270 329.5 -209.5 c 128,-1,2
 381 -149 381 -149 381 -88 c 0,3,4
 381 -18 381 -18 285 0 c 0,5,6
 231 11 231 11 193.5 52 c 128,-1,7
 156 93 156 93 156 150 c 0,8,9
 156 212 156 212 202 256.5 c 128,-1,10
 248 301 248 301 315 301 c 0,11,12
 412 301 412 301 468 218.5 c 128,-1,13
 524 136 524 136 524 18 c 0,14,15
 524 -109 524 -109 437.5 -214 c 128,-1,16
 351 -319 351 -319 197 -362 c 1,17,-1
 197 -295 l 1,0,1
EndSplineSet
KernsSLIFO: 338 -205 0 0 335 -385 0 0 330 -205 0 0 308 -205 0 0 299 -205 0 0
EndChar
StartChar: quotedblbase
Encoding: 8222 8222 197
Width: 1024
Flags: W
Fore
606 -295 m 1,0,1
 688 -270 688 -270 739.5 -209.5 c 128,-1,2
 791 -149 791 -149 791 -88 c 0,3,4
 791 -18 791 -18 694 0 c 0,5,6
 641 11 641 11 603 52 c 128,-1,7
 565 93 565 93 565 150 c 0,8,9
 565 212 565 212 611.5 256.5 c 128,-1,10
 658 301 658 301 725 301 c 0,11,12
 821 301 821 301 877.5 218.5 c 128,-1,13
 934 136 934 136 934 18 c 0,14,15
 934 -109 934 -109 847.5 -214 c 128,-1,16
 761 -319 761 -319 606 -362 c 1,17,-1
 606 -295 l 1,0,1
129 -295 m 1,18,19
 210 -270 210 -270 261.5 -209.5 c 128,-1,20
 313 -149 313 -149 313 -88 c 0,21,22
 313 -18 313 -18 217 0 c 0,23,24
 164 11 164 11 126 52 c 128,-1,25
 88 93 88 93 88 150 c 0,26,27
 88 212 88 212 134.5 256.5 c 128,-1,28
 181 301 181 301 248 301 c 0,29,30
 344 301 344 301 400.5 218.5 c 128,-1,31
 457 136 457 136 457 18 c 0,32,33
 457 -109 457 -109 370.5 -214 c 128,-1,34
 284 -319 284 -319 129 -362 c 1,35,-1
 129 -295 l 1,18,19
EndSplineSet
KernsSLIFO: 338 -205 0 0 335 -385 0 0 330 -205 0 0 308 -205 0 0 299 -205 0 0
EndChar
StartChar: perthousand
Encoding: 8240 8240 198
Width: 2048
Flags: W
Fore
1225 1386 m 1,0,-1
 283 -31 l 1,1,-1
 147 -31 l 1,2,-1
 1090 1386 l 1,3,-1
 1225 1386 l 1,0,-1
360 1384 m 0,4,5
 503 1384 503 1384 587.5 1280 c 128,-1,6
 672 1176 672 1176 672 1018 c 0,7,8
 672 860 672 860 587.5 755.5 c 128,-1,9
 503 651 503 651 360 651 c 0,10,11
 218 651 218 651 133.5 755.5 c 128,-1,12
 49 860 49 860 49 1018 c 0,13,14
 49 1176 49 1176 133.5 1280 c 128,-1,15
 218 1384 218 1384 360 1384 c 0,4,5
360 709 m 0,16,17
 394 709 394 709 412 775.5 c 128,-1,18
 430 842 430 842 430 1018 c 0,19,20
 430 1193 430 1193 412 1260 c 128,-1,21
 394 1327 394 1327 360 1327 c 0,22,23
 327 1327 327 1327 309 1260 c 128,-1,24
 291 1193 291 1193 291 1018 c 0,25,26
 291 842 291 842 309 775.5 c 128,-1,27
 327 709 327 709 360 709 c 0,16,17
1688 705 m 0,28,29
 1830 705 1830 705 1914.5 600.5 c 128,-1,30
 1999 496 1999 496 1999 338 c 0,31,32
 1999 180 1999 180 1914.5 75.5 c 128,-1,33
 1830 -29 1830 -29 1688 -29 c 0,34,35
 1545 -29 1545 -29 1460.5 75.5 c 128,-1,36
 1376 180 1376 180 1376 338 c 0,37,38
 1376 496 1376 496 1460.5 600.5 c 128,-1,39
 1545 705 1545 705 1688 705 c 0,28,29
1688 29 m 0,40,41
 1721 29 1721 29 1739 95.5 c 128,-1,42
 1757 162 1757 162 1757 338 c 0,43,44
 1757 514 1757 514 1739 580.5 c 128,-1,45
 1721 647 1721 647 1688 647 c 0,46,47
 1654 647 1654 647 1636 580.5 c 128,-1,48
 1618 514 1618 514 1618 338 c 0,49,50
 1618 162 1618 162 1636 95.5 c 128,-1,51
 1654 29 1654 29 1688 29 c 0,40,41
1012 705 m 0,52,53
 1154 705 1154 705 1238.5 600.5 c 128,-1,54
 1323 496 1323 496 1323 338 c 0,55,56
 1323 180 1323 180 1238.5 75.5 c 128,-1,57
 1154 -29 1154 -29 1012 -29 c 0,58,59
 870 -29 870 -29 785 75.5 c 128,-1,60
 700 180 700 180 700 338 c 0,61,62
 700 496 700 496 785 600.5 c 128,-1,63
 870 705 870 705 1012 705 c 0,52,53
1012 29 m 0,64,65
 1046 29 1046 29 1063.5 95.5 c 128,-1,66
 1081 162 1081 162 1081 338 c 0,67,68
 1081 514 1081 514 1063.5 580.5 c 128,-1,69
 1046 647 1046 647 1012 647 c 0,70,71
 978 647 978 647 960 580.5 c 128,-1,72
 942 514 942 514 942 338 c 0,73,74
 942 162 942 162 960 95.5 c 128,-1,75
 978 29 978 29 1012 29 c 0,64,65
EndSplineSet
EndChar
StartChar: glyph210
Encoding: 65540 -1 210
Width: 717
Flags: W
Fore
358 944 m 0,0,1
 468 944 468 944 546.5 866 c 128,-1,2
 625 788 625 788 625 678 c 0,3,4
 625 568 625 568 546.5 490 c 128,-1,5
 468 412 468 412 358 412 c 0,6,7
 248 412 248 412 170 490 c 128,-1,8
 92 568 92 568 92 678 c 0,9,10
 92 788 92 788 170 866 c 128,-1,11
 248 944 248 944 358 944 c 0,0,1
EndSplineSet
EndChar
StartChar: dotlessi
Encoding: 305 305 215
Width: 569
Flags: W
Fore
553 0 m 1,0,-1
 39 0 l 1,1,-1
 39 68 l 1,2,3
 127 68 127 68 147.5 88.5 c 128,-1,4
 168 109 168 109 168 201 c 2,5,-1
 168 702 l 2,6,7
 168 763 168 763 149.5 784 c 128,-1,8
 131 805 131 805 80 805 c 2,9,-1
 43 805 l 1,10,-1
 43 868 l 1,11,-1
 377 965 l 1,12,-1
 434 965 l 1,13,-1
 434 201 l 2,14,15
 434 115 434 115 458 91.5 c 128,-1,16
 482 68 482 68 553 68 c 1,17,-1
 553 0 l 1,0,-1
EndSplineSet
EndChar
StartChar: circumflex
Encoding: 710 710 216
Width: 682
Flags: W
Fore
643 1051 m 1,0,-1
 569 1051 l 1,1,-1
 340 1202 l 1,2,-1
 111 1051 l 1,3,-1
 37 1051 l 1,4,-1
 227 1348 l 1,5,-1
 453 1348 l 1,6,-1
 643 1051 l 1,0,-1
EndSplineSet
EndChar
StartChar: tilde
Encoding: 732 732 217
Width: 682
Flags: W
Fore
662 1339 m 1,0,1
 662 1216 662 1216 612 1138.5 c 128,-1,2
 562 1061 562 1061 471 1061 c 0,3,4
 394 1061 394 1061 305 1110 c 0,5,6
 217 1159 217 1159 164 1159 c 0,7,8
 85 1159 85 1159 78 1061 c 1,9,-1
 23 1061 l 1,10,11
 23 1184 23 1184 72.5 1261.5 c 128,-1,12
 122 1339 122 1339 213 1339 c 0,13,14
 290 1339 290 1339 379 1290 c 0,15,16
 467 1241 467 1241 520 1241 c 0,17,18
 599 1241 599 1241 606 1339 c 1,19,-1
 662 1339 l 1,0,1
EndSplineSet
EndChar
StartChar: macron
Encoding: 713 713 218
Width: 682
Flags: W
Fore
659 1120 m 1,0,-1
 23 1120 l 1,1,-1
 23 1300 l 1,2,-1
 659 1300 l 1,3,-1
 659 1120 l 1,0,-1
EndSplineSet
EndChar
StartChar: breve
Encoding: 728 728 219
Width: 682
Flags: W
Fore
647 1368 m 1,0,1
 642 1235 642 1235 549.5 1151 c 128,-1,2
 457 1067 457 1067 340 1067 c 0,3,4
 223 1067 223 1067 130.5 1151 c 128,-1,5
 38 1235 38 1235 33 1368 c 1,6,-1
 88 1368 l 1,7,8
 112 1315 112 1315 181 1285 c 128,-1,9
 250 1255 250 1255 340 1255 c 0,10,11
 430 1255 430 1255 499 1285 c 128,-1,12
 568 1315 568 1315 592 1368 c 1,13,-1
 647 1368 l 1,0,1
EndSplineSet
EndChar
StartChar: dotaccent
Encoding: 729 729 220
Width: 682
Flags: W
Fore
340 1362 m 0,0,1
 400 1362 400 1362 441.5 1320 c 128,-1,2
 483 1278 483 1278 483 1219 c 0,3,4
 483 1159 483 1159 441.5 1117 c 128,-1,5
 400 1075 400 1075 340 1075 c 0,6,7
 280 1075 280 1075 238.5 1117 c 128,-1,8
 197 1159 197 1159 197 1219 c 0,9,10
 197 1278 197 1278 238.5 1320 c 128,-1,11
 280 1362 280 1362 340 1362 c 0,0,1
EndSplineSet
EndChar
StartChar: ring
Encoding: 730 730 221
Width: 682
Flags: W
Fore
342 1456 m 0,0,1
 429 1456 429 1456 491 1394 c 128,-1,2
 553 1332 553 1332 553 1245 c 0,3,4
 553 1158 553 1158 491 1096 c 128,-1,5
 429 1034 429 1034 342 1034 c 0,6,7
 255 1034 255 1034 193 1096 c 128,-1,8
 131 1158 131 1158 131 1245 c 0,9,10
 131 1333 131 1333 192.5 1394.5 c 128,-1,11
 254 1456 254 1456 342 1456 c 0,0,1
342 1112 m 0,12,13
 395 1112 395 1112 435 1152 c 128,-1,14
 475 1192 475 1192 475 1245 c 0,15,16
 475 1299 475 1299 435.5 1338.5 c 128,-1,17
 396 1378 396 1378 342 1378 c 0,18,19
 289 1378 289 1378 249 1338.5 c 128,-1,20
 209 1299 209 1299 209 1245 c 0,21,22
 209 1191 209 1191 248.5 1151.5 c 128,-1,23
 288 1112 288 1112 342 1112 c 0,12,13
EndSplineSet
EndChar
StartChar: cedilla
Encoding: 184 184 222
Width: 682
Flags: W
Fore
324 -96 m 1,0,1
 363 -86 363 -86 406 -86 c 0,2,3
 476 -86 476 -86 521.5 -125.5 c 128,-1,4
 567 -165 567 -165 567 -229 c 0,5,6
 567 -406 567 -406 258 -406 c 0,7,8
 181 -406 181 -406 113 -389 c 1,9,-1
 121 -330 l 1,10,11
 162 -342 162 -342 233 -342 c 0,12,13
 285 -342 285 -342 315.5 -316.5 c 128,-1,14
 346 -291 346 -291 346 -246 c 0,15,16
 346 -168 346 -168 270 -168 c 0,17,18
 249 -168 249 -168 223 -174 c 1,19,-1
 262 0 l 1,20,-1
 344 0 l 1,21,-1
 324 -96 l 1,0,1
EndSplineSet
EndChar
StartChar: hungarumlaut
Encoding: 733 733 223
Width: 682
Flags: W
Fore
692 1348 m 1,0,-1
 471 1051 l 1,1,-1
 376 1051 l 1,2,-1
 442 1348 l 1,3,-1
 692 1348 l 1,0,-1
379 1348 m 1,4,-1
 158 1051 l 1,5,-1
 63 1051 l 1,6,-1
 129 1348 l 1,7,-1
 379 1348 l 1,4,-1
EndSplineSet
EndChar
StartChar: ogonek
Encoding: 731 731 224
Width: 682
Flags: W
Fore
631 -279 m 1,0,1
 581 -334 581 -334 500.5 -370 c 128,-1,2
 420 -406 420 -406 344 -406 c 0,3,4
 233 -406 233 -406 165.5 -357.5 c 128,-1,5
 98 -309 98 -309 98 -225 c 0,6,7
 98 -183 98 -183 128.5 -137 c 128,-1,8
 159 -91 159 -91 234.5 -37.5 c 128,-1,9
 310 16 310 16 326 16 c 2,10,-1
 428 16 l 1,11,12
 305 -94 305 -94 305 -190 c 0,13,14
 305 -239 305 -239 337 -269 c 128,-1,15
 369 -299 369 -299 418 -299 c 0,16,17
 513 -299 513 -299 594 -231 c 1,18,-1
 631 -279 l 1,0,1
EndSplineSet
EndChar
StartChar: caron
Encoding: 711 711 225
Width: 682
Flags: W
Fore
643 1395 m 1,0,-1
 453 1098 l 1,1,-1
 227 1098 l 1,2,-1
 37 1395 l 1,3,-1
 111 1395 l 1,4,-1
 340 1243 l 1,5,-1
 569 1395 l 1,6,-1
 643 1395 l 1,0,-1
EndSplineSet
EndChar
StartChar: Lslash
Encoding: 321 321 226
Width: 1366
Flags: W
Fore
1262 0 m 1,0,-1
 47 0 l 1,1,-1
 47 68 l 1,2,3
 157 68 157 68 192.5 81 c 128,-1,4
 228 94 228 94 241 126 c 128,-1,5
 254 158 254 158 254 260 c 2,6,-1
 254 537 l 1,7,-1
 98 449 l 1,8,-1
 59 512 l 1,9,-1
 254 623 l 1,10,-1
 254 1096 l 2,11,12
 254 1189 254 1189 242 1226 c 128,-1,13
 230 1263 230 1263 189 1275.5 c 128,-1,14
 148 1288 148 1288 47 1288 c 1,15,-1
 47 1356 l 1,16,-1
 768 1356 l 1,17,-1
 768 1288 l 1,18,19
 642 1288 642 1288 603.5 1273 c 128,-1,20
 565 1258 565 1258 553 1224 c 128,-1,21
 541 1190 541 1190 541 1096 c 2,22,-1
 541 784 l 1,23,-1
 797 928 l 1,24,-1
 836 864 l 1,25,-1
 541 698 l 1,26,-1
 541 195 l 2,27,28
 541 134 541 134 562 113 c 128,-1,29
 583 92 583 92 651 92 c 2,30,-1
 924 92 l 2,31,32
 1063 92 1063 92 1128.5 169.5 c 128,-1,33
 1194 247 1194 247 1194 412 c 1,34,-1
 1262 412 l 1,35,-1
 1262 0 l 1,0,-1
EndSplineSet
EndChar
StartChar: lslash
Encoding: 322 322 227
Width: 569
Flags: W
Fore
578 862 m 1,0,-1
 418 748 l 1,1,-1
 418 201 l 2,2,3
 418 128 418 128 437 98 c 128,-1,4
 456 68 456 68 549 68 c 1,5,-1
 549 0 l 1,6,-1
 23 0 l 1,7,-1
 23 68 l 1,8,9
 112 68 112 68 132 90 c 128,-1,10
 152 112 152 112 152 201 c 2,11,-1
 152 555 l 1,12,-1
 37 471 l 1,13,-1
 -8 530 l 1,14,-1
 152 645 l 1,15,-1
 152 1169 l 2,16,17
 152 1223 152 1223 136.5 1242.5 c 128,-1,18
 121 1262 121 1262 63 1262 c 2,19,-1
 6 1262 l 1,20,-1
 6 1325 l 1,21,-1
 360 1421 l 1,22,-1
 418 1421 l 1,23,-1
 418 838 l 1,24,-1
 532 922 l 1,25,-1
 578 862 l 1,0,-1
EndSplineSet
EndChar
StartChar: brokenbar
Encoding: 166 166 232
Width: 451
Flags: W
Fore
291 739 m 1,0,-1
 160 739 l 1,1,-1
 160 1421 l 1,2,-1
 291 1421 l 1,3,-1
 291 739 l 1,0,-1
291 -442 m 1,4,-1
 160 -442 l 1,5,-1
 160 240 l 1,6,-1
 291 240 l 1,7,-1
 291 -442 l 1,4,-1
EndSplineSet
EndChar
StartChar: Eth
Encoding: 208 208 233
Width: 1479
Flags: W
Fore
47 1356 m 1,0,-1
 698 1356 l 2,1,2
 1027 1356 1027 1356 1206.5 1176.5 c 128,-1,3
 1386 997 1386 997 1386 684 c 0,4,5
 1386 379 1386 379 1197.5 189.5 c 128,-1,6
 1009 0 1009 0 678 0 c 2,7,-1
 47 0 l 1,8,-1
 47 68 l 1,9,10
 157 68 157 68 192.5 81 c 128,-1,11
 228 94 228 94 241 126 c 128,-1,12
 254 158 254 158 254 260 c 2,13,-1
 254 655 l 1,14,-1
 37 655 l 1,15,-1
 37 748 l 1,16,-1
 254 748 l 1,17,-1
 254 1096 l 2,18,19
 254 1189 254 1189 242 1226 c 128,-1,20
 230 1263 230 1263 189 1275.5 c 128,-1,21
 148 1288 148 1288 47 1288 c 1,22,-1
 47 1356 l 1,0,-1
541 111 m 1,23,24
 596 92 596 92 653 92 c 0,25,26
 855 92 855 92 962 245.5 c 128,-1,27
 1069 399 1069 399 1069 678 c 0,28,29
 1069 964 1069 964 962.5 1117 c 128,-1,30
 856 1270 856 1270 651 1270 c 0,31,32
 605 1270 605 1270 541 1257 c 1,33,-1
 541 748 l 1,34,-1
 817 748 l 1,35,-1
 817 655 l 1,36,-1
 541 655 l 1,37,-1
 541 111 l 1,23,24
EndSplineSet
EndChar
StartChar: eth
Encoding: 240 240 234
Width: 1024
Flags: W
Fore
567 1231 m 1,0,1
 750 1065 750 1065 852 864 c 128,-1,2
 954 663 954 663 954 467 c 0,3,4
 954 244 954 244 832.5 107.5 c 128,-1,5
 711 -29 711 -29 498 -29 c 0,6,7
 304 -29 304 -29 187 107.5 c 128,-1,8
 70 244 70 244 70 467 c 0,9,10
 70 691 70 691 191 828 c 128,-1,11
 312 965 312 965 514 965 c 0,12,13
 534 965 534 965 553 961 c 1,14,15
 525 1041 525 1041 438 1159 c 1,16,-1
 190 1022 l 1,17,-1
 150 1085 l 1,18,-1
 389 1219 l 1,19,20
 309 1309 309 1309 236 1360 c 1,21,-1
 276 1421 l 1,22,23
 384 1378 384 1378 506 1282 c 1,24,-1
 758 1421 l 1,25,-1
 799 1358 l 1,26,-1
 567 1231 l 1,0,1
526 61 m 0,27,28
 666 61 666 61 666 440 c 0,29,30
 666 648 666 648 621.5 761 c 128,-1,31
 577 874 577 874 496 874 c 0,32,33
 358 874 358 874 358 489 c 0,34,35
 358 282 358 282 401.5 171.5 c 128,-1,36
 445 61 445 61 526 61 c 0,27,28
EndSplineSet
EndChar
StartChar: Thorn
Encoding: 222 222 237
Width: 1251
Flags: W
Fore
541 1108 m 1,0,-1
 651 1108 l 2,1,2
 905 1108 905 1108 1045.5 1004 c 128,-1,3
 1186 900 1186 900 1186 725 c 0,4,5
 1186 536 1186 536 1041 431 c 128,-1,6
 896 326 896 326 621 326 c 2,7,-1
 541 326 l 1,8,-1
 541 260 l 2,9,10
 541 167 541 167 553 130 c 128,-1,11
 565 93 565 93 605.5 80.5 c 128,-1,12
 646 68 646 68 748 68 c 1,13,-1
 748 0 l 1,14,-1
 47 0 l 1,15,-1
 47 68 l 1,16,17
 157 68 157 68 192.5 81 c 128,-1,18
 228 94 228 94 241 126 c 128,-1,19
 254 158 254 158 254 260 c 2,20,-1
 254 1096 l 2,21,22
 254 1189 254 1189 242 1226 c 128,-1,23
 230 1263 230 1263 189 1275.5 c 128,-1,24
 148 1288 148 1288 47 1288 c 1,25,-1
 47 1356 l 1,26,-1
 748 1356 l 1,27,-1
 748 1288 l 1,28,29
 607 1288 607 1288 574 1258.5 c 128,-1,30
 541 1229 541 1229 541 1108 c 1,0,-1
541 424 m 1,31,-1
 610 424 l 2,32,33
 735 424 735 424 812 501.5 c 128,-1,34
 889 579 889 579 889 719 c 0,35,36
 889 871 889 871 810 945.5 c 128,-1,37
 731 1020 731 1020 608 1020 c 0,38,39
 574 1020 574 1020 541 1010 c 1,40,-1
 541 424 l 1,31,-1
EndSplineSet
EndChar
StartChar: thorn
Encoding: 254 254 238
Width: 1139
Flags: W
Fore
418 856 m 1,0,1
 547 965 547 965 664 965 c 0,2,3
 840 965 840 965 948.5 834 c 128,-1,4
 1057 703 1057 703 1057 504 c 0,5,6
 1057 264 1057 264 911.5 117.5 c 128,-1,7
 766 -29 766 -29 532 -29 c 0,8,9
 468 -29 468 -29 418 -14 c 1,10,-1
 418 -238 l 2,11,12
 418 -329 418 -329 443 -350 c 128,-1,13
 468 -371 468 -371 578 -371 c 1,14,-1
 578 -438 l 1,15,-1
 23 -438 l 1,16,-1
 23 -371 l 1,17,18
 114 -371 114 -371 133 -351 c 128,-1,19
 152 -331 152 -331 152 -238 c 2,20,-1
 152 1159 l 2,21,22
 152 1220 152 1220 133.5 1241 c 128,-1,23
 115 1262 115 1262 63 1262 c 2,24,-1
 6 1262 l 1,25,-1
 6 1325 l 1,26,-1
 360 1421 l 1,27,-1
 418 1421 l 1,28,-1
 418 856 l 1,0,1
418 98 m 1,29,30
 461 63 461 63 528 63 c 0,31,32
 646 63 646 63 709 169 c 128,-1,33
 772 275 772 275 772 467 c 0,34,35
 772 632 772 632 718.5 727.5 c 128,-1,36
 665 823 665 823 563 823 c 0,37,38
 490 823 490 823 418 758 c 1,39,-1
 418 98 l 1,29,30
EndSplineSet
EndChar
StartChar: minus
Encoding: 8722 8722 239
Width: 1167
Flags: W
Fore
1130 612 m 1,0,-1
 37 612 l 1,1,-1
 37 743 l 1,2,-1
 1130 743 l 1,3,-1
 1130 612 l 1,0,-1
EndSplineSet
EndChar
StartChar: multiply
Encoding: 215 215 240
Width: 1167
Flags: W
Fore
1024 330 m 1,0,-1
 932 238 l 1,1,-1
 584 586 l 1,2,-1
 236 238 l 1,3,-1
 143 330 l 1,4,-1
 492 678 l 1,5,-1
 143 1026 l 1,6,-1
 236 1118 l 1,7,-1
 584 770 l 1,8,-1
 932 1118 l 1,9,-1
 1024 1026 l 1,10,-1
 676 678 l 1,11,-1
 1024 330 l 1,0,-1
EndSplineSet
EndChar
StartChar: onesuperior
Encoding: 185 185 241
Width: 614
Flags: W
Fore
526 664 m 1,0,-1
 88 664 l 1,1,-1
 88 715 l 1,2,3
 172 715 172 715 192.5 729.5 c 128,-1,4
 213 744 213 744 213 795 c 2,5,-1
 213 1223 l 2,6,7
 213 1254 213 1254 199.5 1264 c 128,-1,8
 186 1274 186 1274 145 1274 c 2,9,-1
 90 1274 l 1,10,-1
 90 1325 l 1,11,12
 128 1325 128 1325 173 1331.5 c 128,-1,13
 218 1338 218 1338 254 1355 c 2,14,-1
 322 1386 l 1,15,-1
 418 1386 l 1,16,-1
 418 795 l 2,17,18
 418 744 418 744 436.5 729.5 c 128,-1,19
 455 715 455 715 526 715 c 1,20,-1
 526 664 l 1,0,-1
EndSplineSet
EndChar
StartChar: twosuperior
Encoding: 178 178 242
Width: 614
Flags: W
Fore
567 664 m 1,0,-1
 23 664 l 1,1,-1
 23 721 l 1,2,3
 188 863 188 863 271 970 c 128,-1,4
 354 1077 354 1077 354 1167 c 0,5,6
 354 1208 354 1208 328.5 1234 c 128,-1,7
 303 1260 303 1260 262 1260 c 0,8,9
 154 1260 154 1260 82 1147 c 1,10,-1
 35 1169 l 1,11,12
 72 1266 72 1266 151.5 1326 c 128,-1,13
 231 1386 231 1386 326 1386 c 0,14,15
 430 1386 430 1386 497.5 1329 c 128,-1,16
 565 1272 565 1272 565 1184 c 0,17,18
 565 1109 565 1109 508.5 1039.5 c 128,-1,19
 452 970 452 970 211 807 c 1,20,-1
 418 807 l 2,21,22
 478 807 478 807 497 827 c 128,-1,23
 516 847 516 847 516 905 c 1,24,-1
 567 905 l 1,25,-1
 567 664 l 1,0,-1
EndSplineSet
EndChar
StartChar: threesuperior
Encoding: 179 179 243
Width: 614
Flags: W
Fore
393 1081 m 1,0,1
 472 1068 472 1068 519.5 1018 c 128,-1,2
 567 968 567 968 567 899 c 0,3,4
 567 781 567 781 469.5 715 c 128,-1,5
 372 649 372 649 229 649 c 0,6,7
 113 649 113 649 29 694 c 1,8,-1
 51 741 l 1,9,10
 127 711 127 711 193 711 c 0,11,12
 271 711 271 711 313.5 756 c 128,-1,13
 356 801 356 801 356 885 c 0,14,15
 356 947 356 947 324.5 987.5 c 128,-1,16
 293 1028 293 1028 240 1028 c 0,17,18
 223 1028 223 1028 184 1022 c 1,19,-1
 184 1077 l 1,20,21
 346 1107 346 1107 346 1204 c 0,22,23
 346 1242 346 1242 317.5 1265 c 128,-1,24
 289 1288 289 1288 246 1288 c 0,25,26
 161 1288 161 1288 106 1221 c 1,27,-1
 63 1249 l 1,28,29
 153 1386 153 1386 313 1386 c 0,30,31
 401 1386 401 1386 461.5 1343 c 128,-1,32
 522 1300 522 1300 522 1241 c 0,33,34
 522 1131 522 1131 393 1083 c 1,35,-1
 393 1081 l 1,0,1
EndSplineSet
EndChar
StartChar: uni00AF
Encoding: 175 175 248
Width: 1024
Flags: W
Fore
1040 1507 m 1,0,-1
 -16 1507 l 1,1,-1
 -16 1610 l 1,2,-1
 1040 1610 l 1,3,-1
 1040 1507 l 1,0,-1
EndSplineSet
EndChar
StartChar: foursuperior
Encoding: 8308 8308 249
Width: 614
Flags: W
Fore
631 842 m 1,0,-1
 508 842 l 1,1,-1
 508 795 l 2,2,3
 508 744 508 744 528 729.5 c 128,-1,4
 548 715 548 715 623 715 c 1,5,-1
 623 664 l 1,6,-1
 160 664 l 1,7,-1
 160 715 l 1,8,9
 257 715 257 715 280 729.5 c 128,-1,10
 303 744 303 744 303 795 c 2,11,-1
 303 842 l 1,12,-1
 -8 842 l 1,13,-1
 -8 956 l 1,14,-1
 342 1386 l 1,15,-1
 508 1386 l 1,16,-1
 508 965 l 1,17,-1
 631 965 l 1,18,-1
 631 842 l 1,0,-1
303 965 m 1,19,-1
 303 1223 l 1,20,-1
 90 965 l 1,21,-1
 303 965 l 1,19,-1
EndSplineSet
EndChar
StartChar: Aogonek
Encoding: 260 260 252
Width: 1479
Flags: W
Fore
829 496 m 1,0,-1
 641 950 l 1,1,-1
 444 496 l 1,2,-1
 829 496 l 1,0,-1
1083 0 m 1,3,-1
 811 0 l 1,4,-1
 811 68 l 1,5,6
 887 70 887 70 918.5 91 c 128,-1,7
 950 112 950 112 950 160 c 0,8,9
 950 208 950 208 874 391 c 1,10,-1
 399 391 l 1,11,12
 311 187 311 187 311 147 c 0,13,14
 311 111 311 111 343.5 92 c 128,-1,15
 376 73 376 73 467 68 c 1,16,-1
 467 0 l 1,17,-1
 20 0 l 1,18,-1
 20 68 l 1,19,20
 85 72 85 72 130 109 c 128,-1,21
 175 146 175 146 231 274 c 2,22,-1
 719 1386 l 1,23,-1
 764 1386 l 1,24,-1
 1217 311 l 2,25,26
 1255 218 1255 218 1278.5 175.5 c 128,-1,27
 1302 133 1302 133 1345.5 101.5 c 128,-1,28
 1389 70 1389 70 1458 68 c 1,29,-1
 1458 0 l 1,30,-1
 1200 0 l 1,31,32
 1096 -101 1096 -101 1096 -190 c 0,33,34
 1096 -239 1096 -239 1128 -269 c 128,-1,35
 1160 -299 1160 -299 1208 -299 c 0,36,37
 1303 -299 1303 -299 1384 -231 c 1,38,-1
 1421 -279 l 1,39,40
 1371 -334 1371 -334 1291 -370 c 128,-1,41
 1211 -406 1211 -406 1135 -406 c 0,42,43
 1023 -406 1023 -406 956 -357.5 c 128,-1,44
 889 -309 889 -309 889 -225 c 0,45,46
 889 -110 889 -110 1083 0 c 1,3,-1
EndSplineSet
EndChar
StartChar: aogonek
Encoding: 261 261 253
Width: 1024
Flags: W
Fore
598 256 m 1,0,-1
 598 492 l 1,1,2
 338 437 338 437 338 274 c 0,3,4
 338 211 338 211 368.5 177 c 128,-1,5
 399 143 399 143 444 143 c 0,6,7
 479 143 479 143 522 173.5 c 128,-1,8
 565 204 565 204 598 256 c 1,0,-1
569 -225 m 0,9,10
 569 -127 569 -127 723 -25 c 1,11,12
 660 -13 660 -13 629 27.5 c 128,-1,13
 598 68 598 68 598 139 c 1,14,15
 480 -29 480 -29 301 -29 c 0,16,17
 196 -29 196 -29 133 39.5 c 128,-1,18
 70 108 70 108 70 219 c 0,19,20
 70 364 70 364 183.5 443 c 128,-1,21
 297 522 297 522 598 582 c 1,22,23
 598 745 598 745 564 808.5 c 128,-1,24
 530 872 530 872 446 872 c 0,25,26
 355 872 355 872 322 743 c 0,27,28
 292 637 292 637 197 637 c 0,29,30
 90 637 90 637 90 745 c 0,31,32
 90 834 90 834 198 899.5 c 128,-1,33
 306 965 306 965 485 965 c 0,34,35
 667 965 667 965 765.5 895 c 128,-1,36
 864 825 864 825 864 643 c 2,37,-1
 864 240 l 2,38,39
 864 113 864 113 924 113 c 0,40,41
 956 113 956 113 987 135 c 1,42,-1
 1010 82 l 1,43,44
 968 37 968 37 879 -20 c 0,45,46
 776 -88 776 -88 776 -190 c 0,47,48
 776 -239 776 -239 808.5 -269 c 128,-1,49
 841 -299 841 -299 889 -299 c 0,50,51
 984 -299 984 -299 1065 -231 c 1,52,-1
 1102 -279 l 1,53,54
 1052 -334 1052 -334 971.5 -370 c 128,-1,55
 891 -406 891 -406 815 -406 c 0,56,57
 704 -406 704 -406 636.5 -357.5 c 128,-1,58
 569 -309 569 -309 569 -225 c 0,9,10
EndSplineSet
EndChar
StartChar: dcroat
Encoding: 273 273 261
Width: 1139
Flags: W
Fore
735 178 m 1,0,-1
 735 838 l 1,1,2
 690 872 690 872 618 872 c 0,3,4
 500 872 500 872 434.5 765.5 c 128,-1,5
 369 659 369 659 369 469 c 0,6,7
 369 308 369 308 425 210.5 c 128,-1,8
 481 113 481 113 584 113 c 0,9,10
 662 113 662 113 735 178 c 1,0,-1
1147 70 m 1,11,-1
 791 -27 l 1,12,-1
 735 -27 l 1,13,-1
 735 80 l 1,14,15
 605 -29 605 -29 483 -29 c 0,16,17
 306 -29 306 -29 195 102.5 c 128,-1,18
 84 234 84 234 84 432 c 0,19,20
 84 673 84 673 232.5 819 c 128,-1,21
 381 965 381 965 614 965 c 0,22,23
 681 965 681 965 735 950 c 1,24,-1
 735 1067 l 1,25,-1
 500 1067 l 1,26,-1
 500 1159 l 1,27,-1
 735 1159 l 1,28,29
 735 1218 735 1218 717 1240 c 128,-1,30
 699 1262 699 1262 647 1262 c 2,31,-1
 590 1262 l 1,32,-1
 590 1325 l 1,33,-1
 944 1421 l 1,34,-1
 1001 1421 l 1,35,-1
 1001 1159 l 1,36,-1
 1180 1159 l 1,37,-1
 1180 1067 l 1,38,-1
 1001 1067 l 1,39,-1
 1001 215 l 2,40,41
 1001 166 1001 166 1017.5 149.5 c 128,-1,42
 1034 133 1034 133 1090 133 c 2,43,-1
 1147 133 l 1,44,-1
 1147 70 l 1,11,-1
EndSplineSet
EndChar
StartChar: Eogonek
Encoding: 280 280 262
Width: 1366
Flags: W
Fore
897 0 m 1,0,-1
 47 0 l 1,1,-1
 47 68 l 1,2,3
 157 68 157 68 192.5 81 c 128,-1,4
 228 94 228 94 241 126 c 128,-1,5
 254 158 254 158 254 260 c 2,6,-1
 254 1096 l 2,7,8
 254 1189 254 1189 242 1226 c 128,-1,9
 230 1263 230 1263 189 1275.5 c 128,-1,10
 148 1288 148 1288 47 1288 c 1,11,-1
 47 1356 l 1,12,-1
 1208 1356 l 1,13,-1
 1208 1020 l 1,14,-1
 1139 1020 l 1,15,16
 1139 1165 1139 1165 1088 1208 c 128,-1,17
 1037 1251 1037 1251 881 1251 c 2,18,-1
 541 1251 l 1,19,-1
 541 762 l 1,20,-1
 784 762 l 2,21,22
 877 762 877 762 912.5 771 c 128,-1,23
 948 780 948 780 962.5 817 c 128,-1,24
 977 854 977 854 977 946 c 1,25,-1
 1044 946 l 1,26,-1
 1044 471 l 1,27,-1
 977 471 l 1,28,29
 977 564 977 564 963.5 601 c 128,-1,30
 950 638 950 638 913.5 647.5 c 128,-1,31
 877 657 877 657 784 657 c 2,32,-1
 541 657 l 1,33,-1
 541 207 l 2,34,35
 541 147 541 147 562 125.5 c 128,-1,36
 583 104 583 104 651 104 c 2,37,-1
 924 104 l 2,38,39
 1194 104 1194 104 1194 391 c 1,40,-1
 1262 391 l 1,41,-1
 1262 0 l 1,42,-1
 1012 0 l 1,43,44
 907 -101 907 -101 907 -190 c 0,45,46
 907 -239 907 -239 939.5 -269 c 128,-1,47
 972 -299 972 -299 1020 -299 c 0,48,49
 1115 -299 1115 -299 1196 -231 c 1,50,-1
 1233 -279 l 1,51,52
 1183 -334 1183 -334 1102.5 -370 c 128,-1,53
 1022 -406 1022 -406 946 -406 c 0,54,55
 835 -406 835 -406 767.5 -357.5 c 128,-1,56
 700 -309 700 -309 700 -225 c 0,57,58
 700 -109 700 -109 897 0 c 1,0,-1
EndSplineSet
EndChar
StartChar: eogonek
Encoding: 281 281 263
Width: 909
Flags: W
Fore
571 573 m 1,0,1
 571 709 571 709 540 790.5 c 128,-1,2
 509 872 509 872 457 872 c 0,3,4
 413 872 413 872 385 792.5 c 128,-1,5
 357 713 357 713 354 573 c 1,6,-1
 571 573 l 1,0,1
479 -29 m 0,7,8
 298 -29 298 -29 184 106 c 128,-1,9
 70 241 70 241 70 461 c 0,10,11
 70 692 70 692 177.5 828.5 c 128,-1,12
 285 965 285 965 471 965 c 0,13,14
 652 965 652 965 750 839 c 128,-1,15
 848 713 848 713 848 481 c 1,16,-1
 352 481 l 1,17,18
 352 335 352 335 413 238 c 128,-1,19
 474 141 474 141 559 141 c 0,20,21
 696 141 696 141 807 279 c 1,22,-1
 862 221 l 1,23,24
 807 111 807 111 705 16 c 0,25,26
 582 -97 582 -97 582 -190 c 0,27,28
 582 -239 582 -239 614 -269 c 128,-1,29
 646 -299 646 -299 694 -299 c 0,30,31
 789 -299 789 -299 870 -231 c 1,32,-1
 907 -279 l 1,33,34
 857 -334 857 -334 777 -370 c 128,-1,35
 697 -406 697 -406 621 -406 c 0,36,37
 509 -406 509 -406 442 -357.5 c 128,-1,38
 375 -309 375 -309 375 -225 c 0,39,40
 375 -125 375 -125 526 -27 c 1,41,42
 513 -29 513 -29 479 -29 c 0,7,8
EndSplineSet
EndChar
StartChar: glyph296
Encoding: 65541 -1 296
Width: 682
Flags: W
Fore
202 -379 m 1,0,1
 274 -379 274 -379 313.5 -360.5 c 128,-1,2
 353 -342 353 -342 353 -315 c 0,3,4
 353 -294 353 -294 298 -289 c 0,5,6
 202 -281 202 -281 202 -201 c 0,7,8
 202 -160 202 -160 237 -136.5 c 128,-1,9
 272 -113 272 -113 323 -113 c 0,10,11
 391 -113 391 -113 435.5 -155 c 128,-1,12
 480 -197 480 -197 480 -262 c 0,13,14
 480 -347 480 -347 408 -393.5 c 128,-1,15
 336 -440 336 -440 202 -440 c 1,16,-1
 202 -379 l 1,0,1
EndSplineSet
EndChar
StartChar: currency
Encoding: 164 164 297
Width: 1024
Flags: W
Fore
952 330 m 1,0,-1
 860 238 l 1,1,-1
 735 362 l 1,2,3
 636 291 636 291 512 291 c 0,4,5
 390 291 390 291 289 362 c 1,6,-1
 164 238 l 1,7,-1
 72 330 l 1,8,-1
 195 453 l 1,9,10
 123 558 123 558 123 680 c 0,11,12
 123 802 123 802 195 903 c 1,13,-1
 72 1026 l 1,14,-1
 164 1118 l 1,15,-1
 285 995 l 1,16,17
 388 1069 388 1069 512 1069 c 0,18,19
 640 1069 640 1069 737 995 c 1,20,-1
 860 1118 l 1,21,-1
 952 1026 l 1,22,-1
 829 903 l 1,23,24
 901 804 901 804 901 680 c 0,25,26
 901 553 901 553 827 453 c 1,27,-1
 952 330 l 1,0,-1
512 422 m 0,28,29
 619 422 619 422 694.5 497.5 c 128,-1,30
 770 573 770 573 770 680 c 0,31,32
 770 787 770 787 694.5 862.5 c 128,-1,33
 619 938 619 938 512 938 c 0,34,35
 405 938 405 938 329.5 862.5 c 128,-1,36
 254 787 254 787 254 680 c 0,37,38
 254 573 254 573 329.5 497.5 c 128,-1,39
 405 422 405 422 512 422 c 0,28,29
EndSplineSet
EndChar
StartChar: afii10051
Encoding: 1026 1026 299
Width: 1638
Flags: W
Fore
786 815 m 1,0,1
 984 965 984 965 1149 965 c 0,2,3
 1353 965 1353 965 1466 833 c 128,-1,4
 1579 701 1579 701 1579 463 c 0,5,6
 1579 -29 1579 -29 1151 -29 c 0,7,8
 1089 -29 1089 -29 1026 -6 c 1,9,-1
 1026 59 l 1,10,11
 1087 39 1087 39 1151 39 c 0,12,13
 1229 39 1229 39 1255.5 142.5 c 128,-1,14
 1282 246 1282 246 1282 424 c 0,15,16
 1282 838 1282 838 1077 838 c 0,17,18
 953 838 953 838 786 705 c 1,19,-1
 786 260 l 2,20,21
 786 135 786 135 813.5 101.5 c 128,-1,22
 841 68 841 68 932 68 c 1,23,-1
 932 0 l 1,24,-1
 293 0 l 1,25,-1
 293 68 l 1,26,27
 403 68 403 68 438.5 81 c 128,-1,28
 474 94 474 94 487 126 c 128,-1,29
 500 158 500 158 500 260 c 2,30,-1
 500 1247 l 1,31,-1
 338 1247 l 2,32,33
 249 1247 249 1247 202.5 1191.5 c 128,-1,34
 156 1136 156 1136 156 977 c 1,35,-1
 84 977 l 1,36,-1
 84 1356 l 1,37,-1
 1202 1356 l 1,38,-1
 1202 1059 l 1,39,-1
 1130 1059 l 1,40,41
 1130 1147 1130 1147 1084 1197 c 128,-1,42
 1038 1247 1038 1247 948 1247 c 2,43,-1
 786 1247 l 1,44,-1
 786 815 l 1,0,1
EndSplineSet
EndChar
StartChar: afii10053
Encoding: 1028 1028 301
Width: 1389
Flags: W
Fore
1335 244 m 1,0,1
 1119 -31 1119 -31 786 -31 c 0,2,3
 484 -31 484 -31 288 166.5 c 128,-1,4
 92 364 92 364 92 678 c 0,5,6
 92 979 92 979 290.5 1182.5 c 128,-1,7
 489 1386 489 1386 788 1386 c 0,8,9
 914 1386 914 1386 1079 1345 c 0,10,11
 1132 1331 1132 1331 1145 1331 c 0,12,13
 1186 1331 1186 1331 1196 1386 c 1,14,-1
 1262 1386 l 1,15,-1
 1262 934 l 1,16,-1
 1200 934 l 1,17,18
 1160 1107 1160 1107 1053.5 1199.5 c 128,-1,19
 947 1292 947 1292 797 1292 c 0,20,21
 641 1292 641 1292 537.5 1148.5 c 128,-1,22
 434 1005 434 1005 414 762 c 1,23,-1
 621 762 l 2,24,25
 713 762 713 762 748.5 771 c 128,-1,26
 784 780 784 780 798.5 817 c 128,-1,27
 813 854 813 854 813 946 c 1,28,-1
 881 946 l 1,29,-1
 881 471 l 1,30,-1
 813 471 l 1,31,32
 813 564 813 564 799.5 601 c 128,-1,33
 786 638 786 638 749.5 647.5 c 128,-1,34
 713 657 713 657 621 657 c 2,35,-1
 410 657 l 1,36,37
 416 397 416 397 543 253 c 128,-1,38
 670 109 670 109 877 109 c 0,39,40
 1112 109 1112 109 1292 305 c 1,41,-1
 1335 244 l 1,0,1
EndSplineSet
EndChar
StartChar: afii10058
Encoding: 1033 1033 306
Width: 2054
Flags: W
Fore
1241 758 m 1,0,-1
 1393 758 l 2,1,2
 1676 758 1676 758 1827 655 c 128,-1,3
 1978 552 1978 552 1978 371 c 0,4,5
 1978 203 1978 203 1832.5 101.5 c 128,-1,6
 1687 0 1687 0 1423 0 c 2,7,-1
 748 0 l 1,8,-1
 748 68 l 1,9,10
 858 68 858 68 893.5 81 c 128,-1,11
 929 94 929 94 941.5 126 c 128,-1,12
 954 158 954 158 954 260 c 2,13,-1
 954 1272 l 2,14,15
 954 1273 954 1273 716 868 c 2,16,-1
 400 331 l 2,17,18
 324 201 324 201 324 147 c 0,19,20
 324 111 324 111 356 92 c 128,-1,21
 388 73 388 73 479 68 c 1,22,-1
 479 0 l 1,23,-1
 20 0 l 1,24,-1
 20 68 l 1,25,26
 96 75 96 75 140 117.5 c 128,-1,27
 184 160 184 160 252 274 c 2,28,-1
 852 1288 l 1,29,-1
 625 1288 l 1,30,-1
 625 1356 l 1,31,-1
 1241 1356 l 1,32,-1
 1241 758 l 1,0,-1
1241 98 m 1,33,34
 1338 88 1338 88 1380 88 c 0,35,36
 1518 88 1518 88 1599.5 162.5 c 128,-1,37
 1681 237 1681 237 1681 377 c 0,38,39
 1681 512 1681 512 1598 585.5 c 128,-1,40
 1515 659 1515 659 1382 659 c 2,41,-1
 1241 659 l 1,42,-1
 1241 98 l 1,33,34
EndSplineSet
KernsSLIFO: 183 -102 1 0
EndChar
StartChar: afii10059
Encoding: 1034 1034 307
Width: 2052
Flags: W
Fore
1294 758 m 1,0,-1
 1413 758 l 2,1,2
 1691 758 1691 758 1834.5 657.5 c 128,-1,3
 1978 557 1978 557 1978 371 c 0,4,5
 1978 201 1978 201 1841.5 100.5 c 128,-1,6
 1705 0 1705 0 1444 0 c 2,7,-1
 854 0 l 1,8,-1
 854 68 l 1,9,10
 961 68 961 68 984.5 98.5 c 128,-1,11
 1008 129 1008 129 1008 260 c 2,12,-1
 1008 643 l 1,13,-1
 541 643 l 1,14,-1
 541 260 l 2,15,16
 541 129 541 129 564 98.5 c 128,-1,17
 587 68 587 68 694 68 c 1,18,-1
 694 0 l 1,19,-1
 47 0 l 1,20,-1
 47 68 l 1,21,22
 157 68 157 68 192.5 81 c 128,-1,23
 228 94 228 94 241 126 c 128,-1,24
 254 158 254 158 254 260 c 2,25,-1
 254 1096 l 2,26,27
 254 1189 254 1189 242 1226 c 128,-1,28
 230 1263 230 1263 189 1275.5 c 128,-1,29
 148 1288 148 1288 47 1288 c 1,30,-1
 47 1356 l 1,31,-1
 694 1356 l 1,32,-1
 694 1288 l 1,33,34
 587 1288 587 1288 564 1257.5 c 128,-1,35
 541 1227 541 1227 541 1096 c 2,36,-1
 541 758 l 1,37,-1
 1008 758 l 1,38,-1
 1008 1096 l 2,39,40
 1008 1227 1008 1227 984.5 1257.5 c 128,-1,41
 961 1288 961 1288 854 1288 c 1,42,-1
 854 1356 l 1,43,-1
 1501 1356 l 1,44,-1
 1501 1288 l 1,45,46
 1391 1288 1391 1288 1355.5 1274.5 c 128,-1,47
 1320 1261 1320 1261 1307 1229.5 c 128,-1,48
 1294 1198 1294 1198 1294 1096 c 2,49,-1
 1294 758 l 1,0,-1
1294 98 m 1,50,51
 1359 88 1359 88 1401 88 c 0,52,53
 1535 88 1535 88 1608 161.5 c 128,-1,54
 1681 235 1681 235 1681 377 c 0,55,56
 1681 522 1681 522 1602 590.5 c 128,-1,57
 1523 659 1523 659 1403 659 c 2,58,-1
 1294 659 l 1,59,-1
 1294 98 l 1,50,51
EndSplineSet
KernsSLIFO: 183 -102 1 0
EndChar
StartChar: afii10060
Encoding: 1035 1035 308
Width: 1638
Flags: W
Fore
1591 0 m 1,0,-1
 983 0 l 1,1,-1
 983 68 l 1,2,3
 1052 68 1052 68 1075 102 c 128,-1,4
 1098 136 1098 136 1098 260 c 2,5,-1
 1098 606 l 2,6,7
 1098 721 1098 721 1069.5 765 c 128,-1,8
 1041 809 1041 809 979 809 c 0,9,10
 886 809 886 809 745 696 c 1,11,-1
 745 260 l 2,12,13
 745 136 745 136 768 102 c 128,-1,14
 791 68 791 68 860 68 c 1,15,-1
 860 0 l 1,16,-1
 252 0 l 1,17,-1
 252 68 l 1,18,19
 362 68 362 68 397.5 81 c 128,-1,20
 433 94 433 94 446 126 c 128,-1,21
 459 158 459 158 459 260 c 2,22,-1
 459 1247 l 1,23,-1
 338 1247 l 2,24,25
 249 1247 249 1247 202.5 1191.5 c 128,-1,26
 156 1136 156 1136 156 977 c 1,27,-1
 84 977 l 1,28,-1
 84 1356 l 1,29,-1
 1120 1356 l 1,30,-1
 1120 1059 l 1,31,-1
 1049 1059 l 1,32,33
 1049 1117 1049 1117 1028 1160 c 128,-1,34
 1007 1203 1007 1203 966.5 1225 c 128,-1,35
 926 1247 926 1247 866 1247 c 2,36,-1
 745 1247 l 1,37,-1
 745 791 l 1,38,39
 962 944 962 944 1108 944 c 0,40,41
 1239 944 1239 944 1311.5 860.5 c 128,-1,42
 1384 777 1384 777 1384 635 c 2,43,-1
 1384 260 l 2,44,45
 1384 167 1384 167 1396.5 130 c 128,-1,46
 1409 93 1409 93 1449.5 80.5 c 128,-1,47
 1490 68 1490 68 1591 68 c 1,48,-1
 1591 0 l 1,0,-1
EndSplineSet
EndChar
StartChar: afii10062
Encoding: 1038 1038 310
Width: 1503
Flags: W
Fore
1468 1288 m 1,0,1
 1409 1288 1409 1288 1357 1253.5 c 128,-1,2
 1305 1219 1305 1219 1237 1087 c 2,3,-1
 807 250 l 2,4,5
 733 105 733 105 636 37 c 128,-1,6
 539 -31 539 -31 406 -31 c 0,7,8
 219 -31 219 -31 219 84 c 0,9,10
 219 125 219 125 249.5 152.5 c 128,-1,11
 280 180 280 180 326 180 c 0,12,13
 384 180 384 180 441 133 c 0,14,15
 474 106 474 106 494 106 c 0,16,17
 541 106 541 106 587.5 132 c 128,-1,18
 634 158 634 158 688 258 c 1,19,-1
 254 1102 l 2,20,21
 202 1200 202 1200 158 1240 c 128,-1,22
 114 1280 114 1280 27 1288 c 1,23,-1
 27 1356 l 1,24,-1
 692 1356 l 1,25,-1
 692 1288 l 1,26,27
 541 1288 541 1288 541 1210 c 0,28,29
 541 1174 541 1174 595 1065 c 2,30,-1
 848 561 l 1,31,32
 1091 1035 1091 1035 1118 1094 c 128,-1,33
 1145 1153 1145 1153 1145 1190 c 0,34,35
 1145 1244 1145 1244 1116 1266 c 128,-1,36
 1087 1288 1087 1288 1014 1288 c 1,37,-1
 1014 1356 l 1,38,-1
 1468 1356 l 1,39,-1
 1468 1288 l 1,0,1
1106 1804 m 0,40,41
 1138 1804 1138 1804 1162 1778.5 c 128,-1,42
 1186 1753 1186 1753 1186 1716 c 0,43,44
 1186 1621 1186 1621 1080.5 1560 c 128,-1,45
 975 1499 975 1499 791 1499 c 0,46,47
 606 1499 606 1499 500.5 1560 c 128,-1,48
 395 1621 395 1621 395 1716 c 0,49,50
 395 1753 395 1753 419 1778.5 c 128,-1,51
 443 1804 443 1804 475 1804 c 0,52,53
 513 1804 513 1804 543.5 1782 c 128,-1,54
 574 1760 574 1760 607 1688 c 0,55,56
 637 1622 637 1622 673 1588 c 128,-1,57
 709 1554 709 1554 791 1554 c 0,58,59
 912 1554 912 1554 981 1702 c 0,60,61
 1028 1804 1028 1804 1106 1804 c 0,40,41
EndSplineSet
EndChar
StartChar: afii10145
Encoding: 1039 1039 311
Width: 1593
Flags: W
Fore
1546 0 m 1,0,-1
 1063 0 l 2,1,2
 898 0 898 0 863.5 -80.5 c 128,-1,3
 829 -161 829 -161 829 -315 c 1,4,-1
 756 -315 l 1,5,6
 756 -161 756 -161 722 -80.5 c 128,-1,7
 688 0 688 0 522 0 c 2,8,-1
 47 0 l 1,9,-1
 47 68 l 1,10,11
 157 68 157 68 192.5 81 c 128,-1,12
 228 94 228 94 241 126 c 128,-1,13
 254 158 254 158 254 260 c 2,14,-1
 254 1096 l 2,15,16
 254 1189 254 1189 242 1226 c 128,-1,17
 230 1263 230 1263 189 1275.5 c 128,-1,18
 148 1288 148 1288 47 1288 c 1,19,-1
 47 1356 l 1,20,-1
 727 1356 l 1,21,-1
 727 1288 l 1,22,23
 627 1288 627 1288 595.5 1275.5 c 128,-1,24
 564 1263 564 1263 552.5 1233 c 128,-1,25
 541 1203 541 1203 541 1096 c 2,26,-1
 541 98 l 1,27,-1
 1053 98 l 1,28,-1
 1053 1096 l 2,29,30
 1053 1190 1053 1190 1043 1226.5 c 128,-1,31
 1033 1263 1033 1263 996.5 1275.5 c 128,-1,32
 960 1288 960 1288 866 1288 c 1,33,-1
 866 1356 l 1,34,-1
 1546 1356 l 1,35,-1
 1546 1288 l 1,36,37
 1436 1288 1436 1288 1400.5 1274.5 c 128,-1,38
 1365 1261 1365 1261 1352 1229.5 c 128,-1,39
 1339 1198 1339 1198 1339 1096 c 2,40,-1
 1339 260 l 2,41,42
 1339 167 1339 167 1351.5 130 c 128,-1,43
 1364 93 1364 93 1404.5 80.5 c 128,-1,44
 1445 68 1445 68 1546 68 c 1,45,-1
 1546 0 l 1,0,-1
EndSplineSet
EndChar
StartChar: afii10018
Encoding: 1041 1041 313
Width: 1354
Flags: W
Fore
541 758 m 1,0,-1
 694 758 l 2,1,2
 977 758 977 758 1128.5 655 c 128,-1,3
 1280 552 1280 552 1280 371 c 0,4,5
 1280 203 1280 203 1134 101.5 c 128,-1,6
 988 0 988 0 725 0 c 2,7,-1
 47 0 l 1,8,-1
 47 68 l 1,9,10
 157 68 157 68 192.5 81 c 128,-1,11
 228 94 228 94 241 126 c 128,-1,12
 254 158 254 158 254 260 c 2,13,-1
 254 1096 l 2,14,15
 254 1189 254 1189 242 1226 c 128,-1,16
 230 1263 230 1263 189 1275.5 c 128,-1,17
 148 1288 148 1288 47 1288 c 1,18,-1
 47 1356 l 1,19,-1
 1184 1356 l 1,20,-1
 1184 1020 l 1,21,-1
 1114 1020 l 1,22,23
 1114 1154 1114 1154 1071 1202.5 c 128,-1,24
 1028 1251 1028 1251 856 1251 c 2,25,-1
 541 1251 l 1,26,-1
 541 758 l 1,0,-1
541 98 m 1,27,28
 640 88 640 88 682 88 c 0,29,30
 820 88 820 88 901.5 162.5 c 128,-1,31
 983 237 983 237 983 377 c 0,32,33
 983 521 983 521 895.5 590 c 128,-1,34
 808 659 808 659 684 659 c 2,35,-1
 541 659 l 1,36,-1
 541 98 l 1,27,28
EndSplineSet
KernsSLIFO: 363 -51 1 0 355 -27 1 0 348 -51 1 0 343 -68 1 0 338 -78 1 0 335 -102 1 0 333 -51 1 0 332 -31 1 0 331 -72 1 0 330 -27 1 0 329 -14 1 0 326 -14 1 0 323 -51 1 0 318 -51 1 0 316 -78 1 0 312 -27 1 0
EndChar
StartChar: afii10020
Encoding: 1043 1043 315
Width: 1303
Flags: W
Fore
1245 942 m 1,0,-1
 1176 942 l 1,1,2
 1176 1157 1176 1157 1118.5 1204 c 128,-1,3
 1061 1251 1061 1251 895 1251 c 2,4,-1
 541 1251 l 1,5,-1
 541 260 l 2,6,7
 541 165 541 165 557 127.5 c 128,-1,8
 573 90 573 90 624.5 79 c 128,-1,9
 676 68 676 68 809 68 c 1,10,-1
 809 0 l 1,11,-1
 47 0 l 1,12,-1
 47 68 l 1,13,14
 157 68 157 68 192.5 81 c 128,-1,15
 228 94 228 94 241 126 c 128,-1,16
 254 158 254 158 254 260 c 2,17,-1
 254 1096 l 2,18,19
 254 1189 254 1189 242 1226 c 128,-1,20
 230 1263 230 1263 189 1275.5 c 128,-1,21
 148 1288 148 1288 47 1288 c 1,22,-1
 47 1356 l 1,23,-1
 1245 1356 l 1,24,-1
 1245 942 l 1,0,-1
EndSplineSet
KernsSLIFO: 375 -154 1 0 374 -102 1 0 372 -129 1 0 371 -129 1 0 363 -78 1 0 360 -129 1 0 358 -180 1 0 357 -78 1 0 356 -78 1 0 355 -231 1 0 352 -78 1 0 349 -156 1 0 348 -154 1 0 346 -78 1 0 344 -180 1 0 343 -154 1 0 329 -27 1 0 326 -51 1 0 324 -27 1 0 323 -309 1 0 319 51 1 0 316 -180 1 0 312 -223 1 0 179 -51 1 0 170 -51 1 0 169 -129 1 0 17 -231 1 0 15 -231 1 0
EndChar
StartChar: afii10021
Encoding: 1044 1044 316
Width: 1409
Flags: W
Fore
1368 -315 m 1,0,-1
 1300 -315 l 1,1,2
 1278 -139 1278 -139 1220 -69.5 c 128,-1,3
 1162 0 1162 0 1010 0 c 2,4,-1
 387 0 l 2,5,6
 235 0 235 0 177 -69.5 c 128,-1,7
 119 -139 119 -139 96 -315 c 1,8,-1
 29 -315 l 1,9,-1
 29 68 l 1,10,11
 82 68 82 68 121 94 c 128,-1,12
 160 120 160 120 188 193 c 2,13,-1
 657 1386 l 1,14,-1
 702 1386 l 1,15,-1
 1174 201 l 2,16,17
 1204 122 1204 122 1241 95 c 128,-1,18
 1278 68 1278 68 1368 68 c 1,19,-1
 1368 -315 l 1,0,-1
905 98 m 1,20,-1
 586 920 l 1,21,-1
 268 98 l 1,22,-1
 905 98 l 1,20,-1
EndSplineSet
KernsSLIFO: 351 51 1 0 349 25 1 0 341 51 1 0 332 -27 1 0 331 25 1 0 319 51 1 0
EndChar
StartChar: afii10024
Encoding: 1046 1046 318
Width: 2025
Flags: W
Fore
2030 0 m 1,0,1
 1908 -20 1908 -20 1784 -20 c 0,2,3
 1661 -20 1661 -20 1597.5 51.5 c 128,-1,4
 1534 123 1534 123 1466 338 c 0,5,6
 1414 501 1414 501 1354 572 c 128,-1,7
 1294 643 1294 643 1202 643 c 2,8,-1
 1155 643 l 1,9,-1
 1155 260 l 2,10,11
 1155 168 1155 168 1167.5 130.5 c 128,-1,12
 1180 93 1180 93 1221.5 80.5 c 128,-1,13
 1263 68 1263 68 1364 68 c 1,14,-1
 1364 0 l 1,15,-1
 659 0 l 1,16,-1
 659 68 l 1,17,18
 769 68 769 68 805 81 c 128,-1,19
 841 94 841 94 854.5 126 c 128,-1,20
 868 158 868 158 868 260 c 2,21,-1
 868 643 l 1,22,-1
 821 643 l 2,23,24
 730 643 730 643 669.5 572 c 128,-1,25
 609 501 609 501 557 338 c 0,26,27
 490 123 490 123 426.5 51.5 c 128,-1,28
 363 -20 363 -20 240 -20 c 0,29,30
 116 -20 116 -20 -6 0 c 1,31,-1
 -6 68 l 1,32,33
 26 63 26 63 47 63 c 0,34,35
 122 63 122 63 168.5 129.5 c 128,-1,36
 215 196 215 196 301 424 c 0,37,38
 355 569 355 569 438.5 639.5 c 128,-1,39
 522 710 522 710 643 725 c 1,40,41
 591 746 591 746 547.5 805 c 128,-1,42
 504 864 504 864 447 990 c 0,43,44
 375 1146 375 1146 349 1182.5 c 128,-1,45
 323 1219 323 1219 293 1219 c 0,46,47
 274 1219 274 1219 251 1192 c 0,48,49
 209 1145 209 1145 154 1145 c 0,50,51
 105 1145 105 1145 76 1171 c 128,-1,52
 47 1197 47 1197 47 1243 c 0,53,54
 47 1295 47 1295 96 1325.5 c 128,-1,55
 145 1356 145 1356 227 1356 c 0,56,57
 297 1356 297 1356 354.5 1318.5 c 128,-1,58
 412 1281 412 1281 449.5 1218 c 128,-1,59
 487 1155 487 1155 543 1027 c 0,60,61
 609 877 609 877 668 817.5 c 128,-1,62
 727 758 727 758 821 758 c 2,63,-1
 868 758 l 1,64,-1
 868 1090 l 2,65,66
 868 1185 868 1185 857 1222.5 c 128,-1,67
 846 1260 846 1260 805 1274 c 128,-1,68
 764 1288 764 1288 662 1288 c 1,69,-1
 662 1356 l 1,70,-1
 1362 1356 l 1,71,-1
 1362 1288 l 1,72,73
 1259 1288 1259 1288 1218 1274 c 128,-1,74
 1177 1260 1177 1260 1166 1222.5 c 128,-1,75
 1155 1185 1155 1185 1155 1090 c 2,76,-1
 1155 758 l 1,77,-1
 1202 758 l 2,78,79
 1296 758 1296 758 1355 817.5 c 128,-1,80
 1414 877 1414 877 1481 1027 c 0,81,82
 1544 1172 1544 1172 1583 1231 c 128,-1,83
 1622 1290 1622 1290 1676.5 1323 c 128,-1,84
 1731 1356 1731 1356 1796 1356 c 0,85,86
 1879 1356 1879 1356 1927.5 1325 c 128,-1,87
 1976 1294 1976 1294 1976 1243 c 0,88,89
 1976 1197 1976 1197 1947.5 1171 c 128,-1,90
 1919 1145 1919 1145 1870 1145 c 0,91,92
 1814 1145 1814 1145 1773 1192 c 0,93,94
 1749 1219 1749 1219 1731 1219 c 0,95,96
 1701 1219 1701 1219 1674 1181 c 128,-1,97
 1647 1143 1647 1143 1577 990 c 0,98,99
 1518 860 1518 860 1474 802.5 c 128,-1,100
 1430 745 1430 745 1380 725 c 1,101,102
 1501 710 1501 710 1584.5 639.5 c 128,-1,103
 1668 569 1668 569 1722 424 c 0,104,105
 1809 196 1809 196 1855 129.5 c 128,-1,106
 1901 63 1901 63 1976 63 c 0,107,108
 1997 63 1997 63 2030 68 c 1,109,-1
 2030 0 l 1,0,1
EndSplineSet
KernsSLIFO: 363 -156 1 0 358 -154 1 0 349 -104 1 0 345 -102 1 0 344 -51 1 0 338 -20 1 0 331 -29 1 0 330 -35 1 0 329 -51 1 0 326 -51 1 0 319 -51 1 0
EndChar
StartChar: afii10025
Encoding: 1047 1047 319
Width: 1081
Flags: W
Fore
616 711 m 1,0,1
 795 692 795 692 901.5 598 c 128,-1,2
 1008 504 1008 504 1008 371 c 0,3,4
 1008 192 1008 192 864.5 80.5 c 128,-1,5
 721 -31 721 -31 473 -31 c 0,6,7
 337 -31 337 -31 212.5 37.5 c 128,-1,8
 88 106 88 106 20 215 c 1,9,-1
 86 268 l 1,10,11
 218 92 218 92 430 92 c 0,12,13
 555 92 555 92 622.5 160 c 128,-1,14
 690 228 690 228 690 354 c 0,15,16
 690 511 690 511 598 585 c 128,-1,17
 506 659 506 659 313 659 c 1,18,-1
 313 745 l 1,19,20
 499 745 499 745 582.5 816 c 128,-1,21
 666 887 666 887 666 1049 c 0,22,23
 666 1158 666 1158 618 1225 c 128,-1,24
 570 1292 570 1292 477 1292 c 0,25,26
 344 1292 344 1292 266.5 1205.5 c 128,-1,27
 189 1119 189 1119 147 934 c 1,28,-1
 86 934 l 1,29,-1
 86 1386 l 1,30,-1
 152 1386 l 1,31,32
 161 1331 161 1331 203 1331 c 0,33,34
 222 1331 222 1331 279 1347 c 0,35,36
 421 1386 421 1386 537 1386 c 0,37,38
 720 1386 720 1386 841.5 1286.5 c 128,-1,39
 963 1187 963 1187 963 1051 c 0,40,41
 963 930 963 930 867 833.5 c 128,-1,42
 771 737 771 737 616 711 c 1,0,1
EndSplineSet
KernsSLIFO: 355 -27 1 0 348 -51 1 0 343 -78 1 0 335 -78 1 0 331 -51 1 0 323 -90 1 0 318 -27 1 0 316 -125 1 0
EndChar
StartChar: afii10026
Encoding: 1048 1048 320
Width: 1593
Flags: W
Fore
1546 0 m 1,0,-1
 866 0 l 1,1,-1
 866 68 l 1,2,3
 995 68 995 68 1024 98.5 c 128,-1,4
 1053 129 1053 129 1053 260 c 2,5,-1
 1053 1106 l 1,6,-1
 541 0 l 1,7,-1
 47 0 l 1,8,-1
 47 68 l 1,9,10
 157 68 157 68 192.5 81 c 128,-1,11
 228 94 228 94 241 126 c 128,-1,12
 254 158 254 158 254 260 c 2,13,-1
 254 1096 l 2,14,15
 254 1189 254 1189 242 1226 c 128,-1,16
 230 1263 230 1263 189 1275.5 c 128,-1,17
 148 1288 148 1288 47 1288 c 1,18,-1
 47 1356 l 1,19,-1
 727 1356 l 1,20,-1
 727 1288 l 1,21,22
 627 1288 627 1288 595.5 1275.5 c 128,-1,23
 564 1263 564 1263 552.5 1233 c 128,-1,24
 541 1203 541 1203 541 1096 c 2,25,-1
 541 250 l 1,26,-1
 1053 1356 l 1,27,-1
 1546 1356 l 1,28,-1
 1546 1288 l 1,29,30
 1436 1288 1436 1288 1400.5 1274.5 c 128,-1,31
 1365 1261 1365 1261 1352 1229.5 c 128,-1,32
 1339 1198 1339 1198 1339 1096 c 2,33,-1
 1339 260 l 2,34,35
 1339 167 1339 167 1351.5 130 c 128,-1,36
 1364 93 1364 93 1404.5 80.5 c 128,-1,37
 1445 68 1445 68 1546 68 c 1,38,-1
 1546 0 l 1,0,-1
EndSplineSet
EndChar
StartChar: afii10027
Encoding: 1049 1049 321
Width: 1593
Flags: W
Fore
1546 0 m 1,0,-1
 866 0 l 1,1,-1
 866 68 l 1,2,3
 995 68 995 68 1024 98.5 c 128,-1,4
 1053 129 1053 129 1053 260 c 2,5,-1
 1053 1106 l 1,6,-1
 541 0 l 1,7,-1
 47 0 l 1,8,-1
 47 68 l 1,9,10
 157 68 157 68 192.5 81 c 128,-1,11
 228 94 228 94 241 126 c 128,-1,12
 254 158 254 158 254 260 c 2,13,-1
 254 1096 l 2,14,15
 254 1189 254 1189 242 1226 c 128,-1,16
 230 1263 230 1263 189 1275.5 c 128,-1,17
 148 1288 148 1288 47 1288 c 1,18,-1
 47 1356 l 1,19,-1
 727 1356 l 1,20,-1
 727 1288 l 1,21,22
 627 1288 627 1288 595.5 1275.5 c 128,-1,23
 564 1263 564 1263 552.5 1233 c 128,-1,24
 541 1203 541 1203 541 1096 c 2,25,-1
 541 250 l 1,26,-1
 1053 1356 l 1,27,-1
 1546 1356 l 1,28,-1
 1546 1288 l 1,29,30
 1436 1288 1436 1288 1400.5 1274.5 c 128,-1,31
 1365 1261 1365 1261 1352 1229.5 c 128,-1,32
 1339 1198 1339 1198 1339 1096 c 2,33,-1
 1339 260 l 2,34,35
 1339 167 1339 167 1351.5 130 c 128,-1,36
 1364 93 1364 93 1404.5 80.5 c 128,-1,37
 1445 68 1445 68 1546 68 c 1,38,-1
 1546 0 l 1,0,-1
1112 1804 m 0,39,40
 1144 1804 1144 1804 1168 1778.5 c 128,-1,41
 1192 1753 1192 1753 1192 1716 c 0,42,43
 1192 1621 1192 1621 1087 1560 c 128,-1,44
 982 1499 982 1499 797 1499 c 0,45,46
 612 1499 612 1499 506.5 1560 c 128,-1,47
 401 1621 401 1621 401 1716 c 0,48,49
 401 1753 401 1753 425 1778.5 c 128,-1,50
 449 1804 449 1804 481 1804 c 0,51,52
 519 1804 519 1804 549.5 1782 c 128,-1,53
 580 1760 580 1760 613 1688 c 0,54,55
 643 1622 643 1622 679 1588 c 128,-1,56
 715 1554 715 1554 797 1554 c 0,57,58
 918 1554 918 1554 987 1702 c 0,59,60
 1034 1804 1034 1804 1112 1804 c 0,39,40
EndSplineSet
EndChar
StartChar: afii10028
Encoding: 1050 1050 322
Width: 1485
Flags: W
Fore
1489 0 m 1,0,1
 1367 -20 1367 -20 1243 -20 c 0,2,3
 1115 -20 1115 -20 1041.5 54 c 128,-1,4
 968 128 968 128 885 338 c 0,5,6
 807 537 807 537 743.5 590 c 128,-1,7
 680 643 680 643 588 643 c 2,8,-1
 541 643 l 1,9,-1
 541 260 l 2,10,11
 541 168 541 168 553.5 130.5 c 128,-1,12
 566 93 566 93 607 80.5 c 128,-1,13
 648 68 648 68 750 68 c 1,14,-1
 750 0 l 1,15,-1
 47 0 l 1,16,-1
 47 68 l 1,17,18
 157 68 157 68 192.5 81 c 128,-1,19
 228 94 228 94 241 126 c 128,-1,20
 254 158 254 158 254 260 c 2,21,-1
 254 1085 l 2,22,23
 254 1182 254 1182 243.5 1220.5 c 128,-1,24
 233 1259 233 1259 191.5 1273.5 c 128,-1,25
 150 1288 150 1288 47 1288 c 1,26,-1
 47 1356 l 1,27,-1
 748 1356 l 1,28,-1
 748 1288 l 1,29,30
 645 1288 645 1288 604 1274 c 128,-1,31
 563 1260 563 1260 552 1222.5 c 128,-1,32
 541 1185 541 1185 541 1090 c 2,33,-1
 541 758 l 1,34,-1
 588 758 l 2,35,36
 677 758 677 758 739 822.5 c 128,-1,37
 801 887 801 887 886 1037 c 0,38,39
 976 1195 976 1195 1018.5 1245 c 128,-1,40
 1061 1295 1061 1295 1124 1325.5 c 128,-1,41
 1187 1356 1187 1356 1249 1356 c 0,42,43
 1336 1356 1336 1356 1386 1325.5 c 128,-1,44
 1436 1295 1436 1295 1436 1243 c 0,45,46
 1436 1197 1436 1197 1407 1171 c 128,-1,47
 1378 1145 1378 1145 1329 1145 c 0,48,49
 1271 1145 1271 1145 1214 1192 c 0,50,51
 1180 1219 1180 1219 1161 1219 c 0,52,53
 1129 1219 1129 1219 1100.5 1182.5 c 128,-1,54
 1072 1146 1072 1146 985 997 c 0,55,56
 907 862 907 862 858 804.5 c 128,-1,57
 809 747 809 747 766 725 c 1,58,59
 1025 691 1025 691 1141 424 c 0,60,61
 1247 175 1247 175 1302.5 119 c 128,-1,62
 1358 63 1358 63 1436 63 c 0,63,64
 1457 63 1457 63 1489 68 c 1,65,-1
 1489 0 l 1,0,1
EndSplineSet
KernsSLIFO: 373 -27 1 0 363 -51 1 0 362 -51 1 0 361 -51 1 0 358 -102 1 0 351 -27 1 0 349 -78 1 0 344 -27 1 0 341 25 1 0 335 -27 1 0 332 -152 1 0 331 -41 1 0 329 -51 1 0 326 -51 1 0
EndChar
StartChar: afii10029
Encoding: 1051 1051 323
Width: 1526
Flags: W
Fore
1501 0 m 1,0,-1
 854 0 l 1,1,-1
 854 68 l 1,2,3
 930 70 930 70 960.5 90 c 128,-1,4
 991 110 991 110 991 158 c 0,5,6
 991 206 991 206 946 309 c 2,7,-1
 659 967 l 1,8,-1
 365 295 l 2,9,10
 317 191 317 191 317 147 c 0,11,12
 317 111 317 111 349 92 c 128,-1,13
 381 73 381 73 471 68 c 1,14,-1
 471 0 l 1,15,-1
 25 0 l 1,16,-1
 25 68 l 1,17,18
 84 72 84 72 130.5 105.5 c 128,-1,19
 177 139 177 139 238 274 c 2,20,-1
 737 1386 l 1,21,-1
 782 1386 l 1,22,-1
 1257 305 l 2,23,24
 1297 214 1297 214 1321 172.5 c 128,-1,25
 1345 131 1345 131 1388.5 100.5 c 128,-1,26
 1432 70 1432 70 1501 68 c 1,27,-1
 1501 0 l 1,0,-1
EndSplineSet
KernsSLIFO: 363 -51 1 0 358 -51 1 0 349 -14 1 0 345 -27 1 0 332 -27 1 0
EndChar
StartChar: afii10033
Encoding: 1055 1055 327
Width: 1593
Flags: W
Fore
1546 0 m 1,0,-1
 866 0 l 1,1,-1
 866 68 l 1,2,3
 995 68 995 68 1024 98.5 c 128,-1,4
 1053 129 1053 129 1053 260 c 2,5,-1
 1053 1257 l 1,6,-1
 541 1257 l 1,7,-1
 541 260 l 2,8,9
 541 166 541 166 551 129.5 c 128,-1,10
 561 93 561 93 598 80.5 c 128,-1,11
 635 68 635 68 727 68 c 1,12,-1
 727 0 l 1,13,-1
 47 0 l 1,14,-1
 47 68 l 1,15,16
 157 68 157 68 192.5 81 c 128,-1,17
 228 94 228 94 241 126 c 128,-1,18
 254 158 254 158 254 260 c 2,19,-1
 254 1096 l 2,20,21
 254 1189 254 1189 242 1226 c 128,-1,22
 230 1263 230 1263 189 1275.5 c 128,-1,23
 148 1288 148 1288 47 1288 c 1,24,-1
 47 1356 l 1,25,-1
 1546 1356 l 1,26,-1
 1546 1288 l 1,27,28
 1436 1288 1436 1288 1400.5 1274.5 c 128,-1,29
 1365 1261 1365 1261 1352 1229.5 c 128,-1,30
 1339 1198 1339 1198 1339 1096 c 2,31,-1
 1339 260 l 2,32,33
 1339 167 1339 167 1351.5 130 c 128,-1,34
 1364 93 1364 93 1404.5 80.5 c 128,-1,35
 1445 68 1445 68 1546 68 c 1,36,-1
 1546 0 l 1,0,-1
EndSplineSet
EndChar
StartChar: afii10037
Encoding: 1059 1059 331
Width: 1503
Flags: W
Fore
1468 1288 m 1,0,1
 1409 1288 1409 1288 1357 1253.5 c 128,-1,2
 1305 1219 1305 1219 1237 1087 c 2,3,-1
 807 250 l 2,4,5
 733 105 733 105 636 37 c 128,-1,6
 539 -31 539 -31 406 -31 c 0,7,8
 219 -31 219 -31 219 84 c 0,9,10
 219 125 219 125 249.5 152.5 c 128,-1,11
 280 180 280 180 326 180 c 0,12,13
 384 180 384 180 441 133 c 0,14,15
 474 106 474 106 494 106 c 0,16,17
 541 106 541 106 587.5 132 c 128,-1,18
 634 158 634 158 688 258 c 1,19,-1
 254 1102 l 2,20,21
 202 1200 202 1200 158 1240 c 128,-1,22
 114 1280 114 1280 27 1288 c 1,23,-1
 27 1356 l 1,24,-1
 692 1356 l 1,25,-1
 692 1288 l 1,26,27
 541 1288 541 1288 541 1210 c 0,28,29
 541 1174 541 1174 595 1065 c 2,30,-1
 848 561 l 1,31,32
 1091 1035 1091 1035 1118 1094 c 128,-1,33
 1145 1153 1145 1153 1145 1190 c 0,34,35
 1145 1244 1145 1244 1116 1266 c 128,-1,36
 1087 1288 1087 1288 1014 1288 c 1,37,-1
 1014 1356 l 1,38,-1
 1468 1356 l 1,39,-1
 1468 1288 l 1,0,1
EndSplineSet
KernsSLIFO: 375 -197 1 0 374 -168 1 0 369 -168 1 0 368 -168 1 0 366 -168 1 0 365 -168 1 0 361 -221 1 0 360 -168 1 0 359 -168 1 0 358 -221 1 0 357 -168 1 0 356 -168 1 0 355 -231 1 0 354 -168 1 0 353 -78 1 0 352 -168 1 0 351 -168 1 0 350 -129 1 0 349 -221 1 0 348 -197 1 0 347 -168 1 0 346 -168 1 0 345 -78 1 0 343 -180 1 0 341 -27 1 0 332 -152 1 0 326 -102 1 0 323 -270 1 0 319 -27 1 0 316 -207 1 0 312 -391 1 0 179 -51 1 0 170 -129 1 0 169 -180 1 0 30 -78 1 0 29 -78 1 0 17 -334 1 0 15 -334 1 0
EndChar
StartChar: afii10038
Encoding: 1060 1060 332
Width: 1759
Flags: W
Fore
1024 1143 m 1,0,1
 1348 1138 1348 1138 1521 1014 c 128,-1,2
 1694 890 1694 890 1694 678 c 0,3,4
 1694 462 1694 462 1522 339.5 c 128,-1,5
 1350 217 1350 217 1024 213 c 1,6,7
 1027 117 1027 117 1063 92.5 c 128,-1,8
 1099 68 1099 68 1229 68 c 1,9,-1
 1229 0 l 1,10,-1
 528 0 l 1,11,-1
 528 68 l 1,12,13
 660 68 660 68 696 92.5 c 128,-1,14
 732 117 732 117 735 213 c 1,15,16
 408 217 408 217 235.5 339.5 c 128,-1,17
 63 462 63 462 63 678 c 0,18,19
 63 891 63 891 236.5 1014.5 c 128,-1,20
 410 1138 410 1138 735 1143 c 1,21,22
 732 1239 732 1239 696 1263.5 c 128,-1,23
 660 1288 660 1288 528 1288 c 1,24,-1
 528 1356 l 1,25,-1
 1229 1356 l 1,26,-1
 1229 1288 l 1,27,28
 1099 1288 1099 1288 1063 1263.5 c 128,-1,29
 1027 1239 1027 1239 1024 1143 c 1,0,1
1022 311 m 1,30,31
 1198 317 1198 317 1297.5 412.5 c 128,-1,32
 1397 508 1397 508 1397 678 c 0,33,34
 1397 847 1397 847 1297 943 c 128,-1,35
 1197 1039 1197 1039 1022 1044 c 1,36,-1
 1022 311 l 1,30,31
735 311 m 1,37,-1
 735 1044 l 1,38,39
 561 1039 561 1039 460.5 942.5 c 128,-1,40
 360 846 360 846 360 678 c 0,41,42
 360 508 360 508 460 412.5 c 128,-1,43
 560 317 560 317 735 311 c 1,37,-1
EndSplineSet
KernsSLIFO: 355 -102 1 0 343 -102 1 0 335 -129 1 0 331 -156 1 0 330 -51 1 0 326 25 1 0 323 -154 1 0 316 -180 1 0 312 -129 1 0
EndChar
StartChar: afii10040
Encoding: 1062 1062 334
Width: 1593
Flags: W
Fore
1546 -315 m 1,0,-1
 1479 -315 l 1,1,2
 1456 -139 1456 -139 1398 -69.5 c 128,-1,3
 1340 0 1340 0 1188 0 c 2,4,-1
 47 0 l 1,5,-1
 47 68 l 1,6,7
 157 68 157 68 192.5 81 c 128,-1,8
 228 94 228 94 241 126 c 128,-1,9
 254 158 254 158 254 260 c 2,10,-1
 254 1096 l 2,11,12
 254 1189 254 1189 242 1226 c 128,-1,13
 230 1263 230 1263 189 1275.5 c 128,-1,14
 148 1288 148 1288 47 1288 c 1,15,-1
 47 1356 l 1,16,-1
 727 1356 l 1,17,-1
 727 1288 l 1,18,19
 627 1288 627 1288 595.5 1275.5 c 128,-1,20
 564 1263 564 1263 552.5 1233 c 128,-1,21
 541 1203 541 1203 541 1096 c 2,22,-1
 541 98 l 1,23,-1
 1053 98 l 1,24,-1
 1053 1096 l 2,25,26
 1053 1190 1053 1190 1043 1226.5 c 128,-1,27
 1033 1263 1033 1263 996.5 1275.5 c 128,-1,28
 960 1288 960 1288 866 1288 c 1,29,-1
 866 1356 l 1,30,-1
 1546 1356 l 1,31,-1
 1546 1288 l 1,32,33
 1436 1288 1436 1288 1400.5 1274.5 c 128,-1,34
 1365 1261 1365 1261 1352 1229.5 c 128,-1,35
 1339 1198 1339 1198 1339 1096 c 2,36,-1
 1339 260 l 2,37,38
 1339 167 1339 167 1351.5 130 c 128,-1,39
 1364 93 1364 93 1404.5 80.5 c 128,-1,40
 1445 68 1445 68 1546 68 c 1,41,-1
 1546 -315 l 1,0,-1
EndSplineSet
KernsSLIFO: 326 -27 1 0
EndChar
StartChar: afii10041
Encoding: 1063 1063 335
Width: 1503
Flags: W
Fore
1456 0 m 1,0,-1
 756 0 l 1,1,-1
 756 68 l 1,2,3
 866 68 866 68 901.5 81 c 128,-1,4
 937 94 937 94 950 126 c 128,-1,5
 963 158 963 158 963 260 c 2,6,-1
 963 627 l 1,7,8
 745 473 745 473 575 473 c 0,9,10
 233 473 233 473 233 782 c 2,11,-1
 233 1096 l 2,12,13
 233 1189 233 1189 221 1226 c 128,-1,14
 209 1263 209 1263 168.5 1275.5 c 128,-1,15
 128 1288 128 1288 27 1288 c 1,16,-1
 27 1356 l 1,17,-1
 672 1356 l 1,18,-1
 672 1288 l 1,19,20
 580 1288 580 1288 550 1254 c 128,-1,21
 520 1220 520 1220 520 1096 c 2,22,-1
 520 811 l 2,23,24
 520 696 520 696 564 652 c 128,-1,25
 608 608 608 608 688 608 c 0,26,27
 821 608 821 608 963 721 c 1,28,-1
 963 1096 l 2,29,30
 963 1220 963 1220 933 1254 c 128,-1,31
 903 1288 903 1288 811 1288 c 1,32,-1
 811 1356 l 1,33,-1
 1456 1356 l 1,34,-1
 1456 1288 l 1,35,36
 1346 1288 1346 1288 1310.5 1274.5 c 128,-1,37
 1275 1261 1275 1261 1262 1229.5 c 128,-1,38
 1249 1198 1249 1198 1249 1096 c 2,39,-1
 1249 260 l 2,40,41
 1249 167 1249 167 1261 130 c 128,-1,42
 1273 93 1273 93 1314 80.5 c 128,-1,43
 1355 68 1355 68 1456 68 c 1,44,-1
 1456 0 l 1,0,-1
EndSplineSet
EndChar
StartChar: afii10042
Encoding: 1064 1064 336
Width: 2249
Flags: W
Fore
2202 0 m 1,0,-1
 47 0 l 1,1,-1
 47 68 l 1,2,3
 157 68 157 68 192.5 81 c 128,-1,4
 228 94 228 94 241 126 c 128,-1,5
 254 158 254 158 254 260 c 2,6,-1
 254 1096 l 2,7,8
 254 1189 254 1189 242 1226 c 128,-1,9
 230 1263 230 1263 189 1275.5 c 128,-1,10
 148 1288 148 1288 47 1288 c 1,11,-1
 47 1356 l 1,12,-1
 686 1356 l 1,13,-1
 686 1288 l 1,14,15
 591 1288 591 1288 566 1255.5 c 128,-1,16
 541 1223 541 1223 541 1096 c 2,17,-1
 541 98 l 1,18,-1
 981 98 l 1,19,-1
 981 1096 l 2,20,21
 981 1223 981 1223 955.5 1255.5 c 128,-1,22
 930 1288 930 1288 836 1288 c 1,23,-1
 836 1356 l 1,24,-1
 1413 1356 l 1,25,-1
 1413 1288 l 1,26,27
 1318 1288 1318 1288 1293 1255.5 c 128,-1,28
 1268 1223 1268 1223 1268 1096 c 2,29,-1
 1268 98 l 1,30,-1
 1708 98 l 1,31,-1
 1708 1096 l 2,32,33
 1708 1223 1708 1223 1682.5 1255.5 c 128,-1,34
 1657 1288 1657 1288 1563 1288 c 1,35,-1
 1563 1356 l 1,36,-1
 2202 1356 l 1,37,-1
 2202 1288 l 1,38,39
 2091 1288 2091 1288 2056 1274.5 c 128,-1,40
 2021 1261 2021 1261 2008 1229.5 c 128,-1,41
 1995 1198 1995 1198 1995 1096 c 2,42,-1
 1995 260 l 2,43,44
 1995 167 1995 167 2007 130 c 128,-1,45
 2019 93 2019 93 2059.5 80.5 c 128,-1,46
 2100 68 2100 68 2202 68 c 1,47,-1
 2202 0 l 1,0,-1
EndSplineSet
EndChar
StartChar: afii10043
Encoding: 1065 1065 337
Width: 2249
Flags: W
Fore
2202 -315 m 1,0,-1
 2134 -315 l 1,1,2
 2112 -139 2112 -139 2053.5 -69.5 c 128,-1,3
 1995 0 1995 0 1843 0 c 2,4,-1
 47 0 l 1,5,-1
 47 68 l 1,6,7
 157 68 157 68 192.5 81 c 128,-1,8
 228 94 228 94 241 126 c 128,-1,9
 254 158 254 158 254 260 c 2,10,-1
 254 1096 l 2,11,12
 254 1189 254 1189 242 1226 c 128,-1,13
 230 1263 230 1263 189 1275.5 c 128,-1,14
 148 1288 148 1288 47 1288 c 1,15,-1
 47 1356 l 1,16,-1
 686 1356 l 1,17,-1
 686 1288 l 1,18,19
 591 1288 591 1288 566 1255.5 c 128,-1,20
 541 1223 541 1223 541 1096 c 2,21,-1
 541 98 l 1,22,-1
 981 98 l 1,23,-1
 981 1096 l 2,24,25
 981 1223 981 1223 955.5 1255.5 c 128,-1,26
 930 1288 930 1288 836 1288 c 1,27,-1
 836 1356 l 1,28,-1
 1413 1356 l 1,29,-1
 1413 1288 l 1,30,31
 1318 1288 1318 1288 1293 1255.5 c 128,-1,32
 1268 1223 1268 1223 1268 1096 c 2,33,-1
 1268 98 l 1,34,-1
 1708 98 l 1,35,-1
 1708 1096 l 2,36,37
 1708 1223 1708 1223 1682.5 1255.5 c 128,-1,38
 1657 1288 1657 1288 1563 1288 c 1,39,-1
 1563 1356 l 1,40,-1
 2202 1356 l 1,41,-1
 2202 1288 l 1,42,43
 2091 1288 2091 1288 2056 1274.5 c 128,-1,44
 2021 1261 2021 1261 2008 1229.5 c 128,-1,45
 1995 1198 1995 1198 1995 1096 c 2,46,-1
 1995 260 l 2,47,48
 1995 167 1995 167 2007 130 c 128,-1,49
 2019 93 2019 93 2059.5 80.5 c 128,-1,50
 2100 68 2100 68 2202 68 c 1,51,-1
 2202 -315 l 1,0,-1
EndSplineSet
KernsSLIFO: 363 25 1 0
EndChar
StartChar: afii10044
Encoding: 1066 1066 338
Width: 1567
Flags: W
Fore
795 758 m 1,0,-1
 907 758 l 2,1,2
 1190 758 1190 758 1341.5 655 c 128,-1,3
 1493 552 1493 552 1493 371 c 0,4,5
 1493 201 1493 201 1345.5 100.5 c 128,-1,6
 1198 0 1198 0 938 0 c 2,7,-1
 301 0 l 1,8,-1
 301 68 l 1,9,10
 411 68 411 68 446.5 81 c 128,-1,11
 482 94 482 94 495 126 c 128,-1,12
 508 158 508 158 508 260 c 2,13,-1
 508 1247 l 1,14,-1
 338 1247 l 2,15,16
 249 1247 249 1247 202.5 1191.5 c 128,-1,17
 156 1136 156 1136 156 977 c 1,18,-1
 84 977 l 1,19,-1
 84 1356 l 1,20,-1
 1001 1356 l 1,21,-1
 1001 1288 l 1,22,23
 891 1288 891 1288 855.5 1274.5 c 128,-1,24
 820 1261 820 1261 807.5 1229.5 c 128,-1,25
 795 1198 795 1198 795 1096 c 2,26,-1
 795 758 l 1,0,-1
795 98 m 1,27,28
 853 88 853 88 895 88 c 0,29,30
 1033 88 1033 88 1114.5 162.5 c 128,-1,31
 1196 237 1196 237 1196 377 c 0,32,33
 1196 512 1196 512 1113 585.5 c 128,-1,34
 1030 659 1030 659 897 659 c 2,35,-1
 795 659 l 1,36,-1
 795 98 l 1,27,28
EndSplineSet
KernsSLIFO: 343 -123 1 0 183 -129 1 0
EndChar
StartChar: afii10045
Encoding: 1067 1067 339
Width: 2011
Flags: W
Fore
1962 0 m 1,0,-1
 1262 0 l 1,1,-1
 1262 68 l 1,2,3
 1372 68 1372 68 1407.5 81 c 128,-1,4
 1443 94 1443 94 1455.5 126 c 128,-1,5
 1468 158 1468 158 1468 260 c 2,6,-1
 1468 1096 l 2,7,8
 1468 1189 1468 1189 1456 1226 c 128,-1,9
 1444 1263 1444 1263 1403.5 1275.5 c 128,-1,10
 1363 1288 1363 1288 1262 1288 c 1,11,-1
 1262 1356 l 1,12,-1
 1962 1356 l 1,13,-1
 1962 1288 l 1,14,15
 1852 1288 1852 1288 1816.5 1274.5 c 128,-1,16
 1781 1261 1781 1261 1768 1229.5 c 128,-1,17
 1755 1198 1755 1198 1755 1096 c 2,18,-1
 1755 260 l 2,19,20
 1755 167 1755 167 1767 130 c 128,-1,21
 1779 93 1779 93 1820 80.5 c 128,-1,22
 1861 68 1861 68 1962 68 c 1,23,-1
 1962 0 l 1,0,-1
541 758 m 1,24,-1
 621 758 l 2,25,26
 891 758 891 758 1038.5 654 c 128,-1,27
 1186 550 1186 550 1186 371 c 0,28,29
 1186 204 1186 204 1042 102 c 128,-1,30
 898 0 898 0 651 0 c 2,31,-1
 47 0 l 1,32,-1
 47 68 l 1,33,34
 157 68 157 68 192.5 81 c 128,-1,35
 228 94 228 94 241 126 c 128,-1,36
 254 158 254 158 254 260 c 2,37,-1
 254 1096 l 2,38,39
 254 1189 254 1189 242 1226 c 128,-1,40
 230 1263 230 1263 189 1275.5 c 128,-1,41
 148 1288 148 1288 47 1288 c 1,42,-1
 47 1356 l 1,43,-1
 748 1356 l 1,44,-1
 748 1288 l 1,45,46
 637 1288 637 1288 602 1274.5 c 128,-1,47
 567 1261 567 1261 554 1229.5 c 128,-1,48
 541 1198 541 1198 541 1096 c 2,49,-1
 541 758 l 1,24,-1
541 98 m 1,50,51
 574 88 574 88 608 88 c 0,52,53
 736 88 736 88 812.5 162.5 c 128,-1,54
 889 237 889 237 889 377 c 0,55,56
 889 510 889 510 808.5 584.5 c 128,-1,57
 728 659 728 659 610 659 c 2,58,-1
 541 659 l 1,59,-1
 541 98 l 1,50,51
EndSplineSet
EndChar
StartChar: afii10046
Encoding: 1068 1068 340
Width: 1354
Flags: W
Fore
541 758 m 1,0,-1
 694 758 l 2,1,2
 977 758 977 758 1128.5 655 c 128,-1,3
 1280 552 1280 552 1280 371 c 0,4,5
 1280 203 1280 203 1134 101.5 c 128,-1,6
 988 0 988 0 725 0 c 2,7,-1
 47 0 l 1,8,-1
 47 68 l 1,9,10
 157 68 157 68 192.5 81 c 128,-1,11
 228 94 228 94 241 126 c 128,-1,12
 254 158 254 158 254 260 c 2,13,-1
 254 1096 l 2,14,15
 254 1189 254 1189 242 1226 c 128,-1,16
 230 1263 230 1263 189 1275.5 c 128,-1,17
 148 1288 148 1288 47 1288 c 1,18,-1
 47 1356 l 1,19,-1
 748 1356 l 1,20,-1
 748 1288 l 1,21,22
 637 1288 637 1288 602 1274.5 c 128,-1,23
 567 1261 567 1261 554 1229.5 c 128,-1,24
 541 1198 541 1198 541 1096 c 2,25,-1
 541 758 l 1,0,-1
541 98 m 1,26,27
 640 88 640 88 682 88 c 0,28,29
 820 88 820 88 901.5 162.5 c 128,-1,30
 983 237 983 237 983 377 c 0,31,32
 983 521 983 521 895.5 590 c 128,-1,33
 808 659 808 659 684 659 c 2,34,-1
 541 659 l 1,35,-1
 541 98 l 1,26,27
EndSplineSet
KernsSLIFO: 343 -109 1 0 341 -27 1 0 335 -229 1 0 333 -147 1 0 330 -154 1 0 329 -51 1 0 326 -51 1 0 324 -82 1 0 323 -82 1 0 319 -78 1 0 318 -129 1 0 316 -150 1 0 312 -88 1 0 183 -129 1 0
EndChar
StartChar: afii10047
Encoding: 1069 1069 341
Width: 1389
Flags: W
Fore
193 1386 m 1,0,1
 202 1331 202 1331 244 1331 c 0,2,3
 257 1331 257 1331 310 1345 c 0,4,5
 475 1386 475 1386 600 1386 c 0,6,7
 900 1386 900 1386 1098 1182.5 c 128,-1,8
 1296 979 1296 979 1296 678 c 0,9,10
 1296 364 1296 364 1100.5 166.5 c 128,-1,11
 905 -31 905 -31 602 -31 c 0,12,13
 269 -31 269 -31 53 244 c 1,14,-1
 96 305 l 1,15,16
 276 109 276 109 512 109 c 0,17,18
 719 109 719 109 845.5 253 c 128,-1,19
 972 397 972 397 979 657 c 1,20,-1
 768 657 l 2,21,22
 675 657 675 657 639 647.5 c 128,-1,23
 603 638 603 638 589 601 c 128,-1,24
 575 564 575 564 575 471 c 1,25,-1
 508 471 l 1,26,-1
 508 946 l 1,27,-1
 575 946 l 1,28,29
 575 854 575 854 589.5 817 c 128,-1,30
 604 780 604 780 640 771 c 128,-1,31
 676 762 676 762 768 762 c 2,32,-1
 975 762 l 1,33,34
 954 1005 954 1005 851 1148.5 c 128,-1,35
 748 1292 748 1292 592 1292 c 0,36,37
 441 1292 441 1292 335 1199.5 c 128,-1,38
 229 1107 229 1107 188 934 c 1,39,-1
 127 934 l 1,40,-1
 127 1386 l 1,41,-1
 193 1386 l 1,0,1
EndSplineSet
KernsSLIFO: 355 -27 1 0 348 -51 1 0 343 -150 1 0 333 -104 1 0 332 10 1 0 326 25 1 0 323 -129 1 0 319 25 1 0 318 -51 1 0 316 -172 1 0
EndChar
StartChar: afii10048
Encoding: 1070 1070 342
Width: 2306
Flags: W
Fore
809 758 m 1,0,1
 838 1050 838 1050 1029 1218 c 128,-1,2
 1220 1386 1220 1386 1509 1386 c 0,3,4
 1826 1386 1826 1386 2020 1189 c 128,-1,5
 2214 992 2214 992 2214 678 c 0,6,7
 2214 363 2214 363 2020.5 166 c 128,-1,8
 1827 -31 1827 -31 1509 -31 c 0,9,10
 1209 -31 1209 -31 1015 150.5 c 128,-1,11
 821 332 821 332 805 643 c 1,12,-1
 541 643 l 1,13,-1
 541 260 l 2,14,15
 541 167 541 167 553 130 c 128,-1,16
 565 93 565 93 605.5 80.5 c 128,-1,17
 646 68 646 68 748 68 c 1,18,-1
 748 0 l 1,19,-1
 47 0 l 1,20,-1
 47 68 l 1,21,22
 157 68 157 68 192.5 81 c 128,-1,23
 228 94 228 94 241 126 c 128,-1,24
 254 158 254 158 254 260 c 2,25,-1
 254 1096 l 2,26,27
 254 1189 254 1189 242 1226 c 128,-1,28
 230 1263 230 1263 189 1275.5 c 128,-1,29
 148 1288 148 1288 47 1288 c 1,30,-1
 47 1356 l 1,31,-1
 748 1356 l 1,32,-1
 748 1288 l 1,33,34
 637 1288 637 1288 602 1274.5 c 128,-1,35
 567 1261 567 1261 554 1229.5 c 128,-1,36
 541 1198 541 1198 541 1096 c 2,37,-1
 541 758 l 1,38,-1
 809 758 l 1,0,1
1509 66 m 0,39,40
 1697 66 1697 66 1796.5 230 c 128,-1,41
 1896 394 1896 394 1896 678 c 0,42,43
 1896 962 1896 962 1796.5 1126 c 128,-1,44
 1697 1290 1697 1290 1509 1290 c 0,45,46
 1322 1290 1322 1290 1222 1126 c 128,-1,47
 1122 962 1122 962 1122 678 c 0,48,49
 1122 394 1122 394 1222 230 c 128,-1,50
 1322 66 1322 66 1509 66 c 0,39,40
EndSplineSet
KernsSLIFO: 355 -27 1 0 350 25 1 0 348 -51 1 0 335 -78 1 0 333 -186 1 0 330 -51 1 0 326 25 1 0 323 -102 1 0 318 -143 1 0 316 -154 1 0 312 -78 1 0
EndChar
